G75*
%MOIN*%
%OFA0B0*%
%FSLAX25Y25*%
%IPPOS*%
%LPD*%
%AMOC8*
5,1,8,0,0,1.08239X$1,22.5*
%
%ADD10C,0.10000*%
%ADD11OC8,0.10000*%
%ADD12OC8,0.05600*%
%ADD13C,0.05600*%
%ADD14OC8,0.06300*%
%ADD15R,0.14173X0.07087*%
%ADD16C,0.06300*%
%ADD17C,0.02400*%
%ADD18C,0.04900*%
%ADD19C,0.05000*%
%ADD20C,0.01600*%
%ADD21C,0.12300*%
D10*
X0038020Y0032115D03*
X0067942Y0048650D03*
X0076997Y0087233D03*
X0087627Y0094320D03*
X0080383Y0128965D03*
X0051406Y0138808D03*
X0023847Y0159280D03*
X0080383Y0172272D03*
X0117548Y0181328D03*
X0080383Y0215580D03*
X0117548Y0224635D03*
X0080383Y0258887D03*
X0117154Y0267942D03*
X0117942Y0138020D03*
X0192351Y0128178D03*
X0313611Y0044713D03*
X0126603Y0033296D03*
D11*
X0100383Y0128965D03*
X0100383Y0172272D03*
X0100383Y0215580D03*
X0100383Y0258887D03*
D12*
X0129556Y0267942D03*
X0179556Y0267942D03*
X0223847Y0270501D03*
X0243139Y0270501D03*
X0262430Y0270501D03*
X0300225Y0263493D03*
X0300225Y0253493D03*
X0313611Y0253493D03*
X0313611Y0263493D03*
X0351013Y0270894D03*
X0370304Y0270894D03*
X0370304Y0220894D03*
X0370304Y0209871D03*
X0389595Y0209871D03*
X0351013Y0209871D03*
X0351013Y0220894D03*
X0351013Y0159871D03*
X0370304Y0159871D03*
X0389595Y0159871D03*
X0389595Y0142942D03*
X0370304Y0142942D03*
X0351013Y0142942D03*
X0313611Y0146957D03*
X0313611Y0136957D03*
X0300225Y0136957D03*
X0300225Y0146957D03*
X0243139Y0142942D03*
X0223847Y0142942D03*
X0223847Y0159871D03*
X0243139Y0159871D03*
X0180343Y0138020D03*
X0130343Y0138020D03*
X0114398Y0095304D03*
X0099044Y0095304D03*
X0151406Y0057587D03*
X0151406Y0047587D03*
X0114398Y0045304D03*
X0099044Y0045304D03*
X0177115Y0086839D03*
X0187115Y0086839D03*
X0223847Y0082312D03*
X0223847Y0092942D03*
X0243139Y0092942D03*
X0243139Y0082312D03*
X0262430Y0082312D03*
X0262430Y0032312D03*
X0243139Y0032312D03*
X0223847Y0032312D03*
X0351013Y0032312D03*
X0370304Y0032312D03*
X0370304Y0082312D03*
X0370304Y0092942D03*
X0389595Y0092942D03*
X0351013Y0092942D03*
X0351013Y0082312D03*
X0179950Y0181328D03*
X0129950Y0181328D03*
X0129950Y0224635D03*
X0179950Y0224635D03*
X0223847Y0220501D03*
X0223847Y0209871D03*
X0243139Y0209871D03*
X0243139Y0220501D03*
X0262430Y0220501D03*
X0064280Y0217548D03*
X0054280Y0217548D03*
X0054280Y0201406D03*
X0064280Y0201406D03*
X0064280Y0185265D03*
X0054280Y0185265D03*
X0054280Y0169123D03*
X0064280Y0169123D03*
X0042351Y0165855D03*
X0042351Y0155855D03*
D13*
X0164315Y0072706D02*
X0169915Y0072706D01*
X0169915Y0062706D02*
X0164315Y0062706D01*
X0164315Y0052706D02*
X0169915Y0052706D01*
X0169915Y0042706D02*
X0164315Y0042706D01*
X0194315Y0042706D02*
X0199915Y0042706D01*
X0199915Y0052706D02*
X0194315Y0052706D01*
X0194315Y0062706D02*
X0199915Y0062706D01*
X0199915Y0072706D02*
X0194315Y0072706D01*
X0289118Y0073139D02*
X0294718Y0073139D01*
X0294718Y0083139D02*
X0289118Y0083139D01*
X0289118Y0093139D02*
X0294718Y0093139D01*
X0294718Y0103139D02*
X0289118Y0103139D01*
X0289118Y0113139D02*
X0294718Y0113139D01*
X0294718Y0123139D02*
X0289118Y0123139D01*
X0319118Y0123139D02*
X0324718Y0123139D01*
X0324718Y0113139D02*
X0319118Y0113139D01*
X0319118Y0103139D02*
X0324718Y0103139D01*
X0324718Y0093139D02*
X0319118Y0093139D01*
X0319118Y0083139D02*
X0324718Y0083139D01*
X0324718Y0073139D02*
X0319118Y0073139D01*
X0319118Y0063139D02*
X0324718Y0063139D01*
X0294718Y0063139D02*
X0289118Y0063139D01*
X0289118Y0179674D02*
X0294718Y0179674D01*
X0294718Y0189674D02*
X0289118Y0189674D01*
X0289118Y0199674D02*
X0294718Y0199674D01*
X0294718Y0209674D02*
X0289118Y0209674D01*
X0289118Y0219674D02*
X0294718Y0219674D01*
X0294718Y0229674D02*
X0289118Y0229674D01*
X0289118Y0239674D02*
X0294718Y0239674D01*
X0319118Y0239674D02*
X0324718Y0239674D01*
X0324718Y0229674D02*
X0319118Y0229674D01*
X0319118Y0219674D02*
X0324718Y0219674D01*
X0324718Y0209674D02*
X0319118Y0209674D01*
X0319118Y0199674D02*
X0324718Y0199674D01*
X0324718Y0189674D02*
X0319118Y0189674D01*
X0319118Y0179674D02*
X0324718Y0179674D01*
D14*
X0036328Y0125383D03*
X0026328Y0125383D03*
X0026328Y0115383D03*
X0036328Y0115383D03*
X0036328Y0105383D03*
X0026328Y0105383D03*
X0026328Y0095383D03*
X0036328Y0095383D03*
X0036328Y0085383D03*
X0026328Y0085383D03*
X0026328Y0075383D03*
X0036328Y0075383D03*
X0036328Y0065383D03*
X0026328Y0065383D03*
X0026328Y0055383D03*
X0036328Y0055383D03*
D15*
X0082115Y0058099D03*
X0082115Y0074635D03*
D16*
X0083847Y0035265D02*
X0083847Y0028965D01*
X0073847Y0028965D02*
X0073847Y0035265D01*
X0063847Y0035265D02*
X0063847Y0028965D01*
X0053847Y0028965D02*
X0053847Y0035265D01*
X0093847Y0035265D02*
X0093847Y0028965D01*
X0025816Y0177469D02*
X0019516Y0177469D01*
X0019516Y0187469D02*
X0025816Y0187469D01*
X0025816Y0197469D02*
X0019516Y0197469D01*
X0019516Y0207469D02*
X0025816Y0207469D01*
X0025816Y0217469D02*
X0019516Y0217469D01*
D17*
X0022666Y0217469D02*
X0054202Y0217469D01*
X0054280Y0217548D01*
X0054280Y0219241D01*
X0057312Y0222272D01*
X0057312Y0235816D01*
X0080383Y0258887D01*
X0080383Y0259517D01*
X0088808Y0267942D01*
X0117154Y0267942D01*
X0129556Y0267942D01*
X0129950Y0224635D02*
X0117548Y0224635D01*
X0089438Y0224635D01*
X0080383Y0215580D01*
X0080383Y0215422D01*
X0073847Y0208887D01*
X0061761Y0208887D01*
X0054280Y0201406D01*
X0048650Y0201406D01*
X0042587Y0207469D01*
X0022666Y0207469D01*
X0022666Y0197469D02*
X0042076Y0197469D01*
X0054280Y0185265D01*
X0054280Y0185146D01*
X0060855Y0178572D01*
X0067548Y0178572D01*
X0073847Y0172272D01*
X0080146Y0172272D01*
X0080383Y0172509D01*
X0080383Y0172272D01*
X0080383Y0172509D02*
X0089595Y0181721D01*
X0117154Y0181721D01*
X0117548Y0181328D01*
X0129950Y0181328D01*
X0179753Y0181131D02*
X0179753Y0163611D01*
X0190776Y0152587D01*
X0252587Y0152587D01*
X0267548Y0166761D01*
X0293926Y0166761D01*
X0291957Y0160855D02*
X0259280Y0128178D01*
X0192351Y0128178D01*
X0259293Y0128178D01*
X0260270Y0129154D01*
X0264005Y0142745D02*
X0243335Y0142745D01*
X0243139Y0142942D01*
X0223847Y0142942D01*
X0223847Y0159871D02*
X0223847Y0160068D01*
X0202981Y0160068D01*
X0193926Y0169123D01*
X0193926Y0210658D01*
X0179950Y0224635D01*
X0223847Y0220501D02*
X0243139Y0220501D01*
X0263965Y0199674D01*
X0291918Y0199674D01*
X0291918Y0189674D02*
X0263532Y0189674D01*
X0243335Y0209871D01*
X0243139Y0209871D01*
X0223847Y0209871D01*
X0262430Y0220501D02*
X0262824Y0220894D01*
X0262824Y0251800D01*
X0273847Y0262824D01*
X0284477Y0262824D01*
X0290776Y0261643D02*
X0290776Y0265580D01*
X0290776Y0261643D02*
X0282115Y0252981D01*
X0282115Y0233690D01*
X0286131Y0229674D01*
X0291918Y0229674D01*
X0300225Y0211643D02*
X0298257Y0209674D01*
X0298257Y0209280D01*
X0300225Y0207312D01*
X0300225Y0158493D01*
X0293139Y0151406D01*
X0293139Y0143926D01*
X0300107Y0136957D01*
X0300225Y0136957D01*
X0300225Y0136721D01*
X0300225Y0136957D02*
X0300225Y0095501D01*
X0297863Y0093139D01*
X0300225Y0090776D01*
X0300225Y0059674D01*
X0293926Y0053375D01*
X0223454Y0053375D01*
X0204162Y0072666D01*
X0197154Y0072666D01*
X0190776Y0072666D01*
X0187627Y0069517D01*
X0187627Y0040383D01*
X0180146Y0032902D01*
X0126800Y0032902D01*
X0126800Y0033099D01*
X0126603Y0033296D01*
X0126800Y0032902D02*
X0114398Y0045304D01*
X0099044Y0045304D01*
X0067942Y0048650D02*
X0066367Y0045107D01*
X0064005Y0042745D01*
X0041170Y0032509D02*
X0038020Y0032115D01*
X0041170Y0032509D02*
X0037627Y0036052D01*
X0037627Y0040776D01*
X0036328Y0053887D02*
X0036328Y0055383D01*
X0052981Y0086052D02*
X0077391Y0086052D01*
X0076997Y0086446D01*
X0076997Y0087233D01*
X0077391Y0086052D02*
X0105146Y0086052D01*
X0114398Y0095304D01*
X0099044Y0095304D02*
X0098454Y0095894D01*
X0090383Y0095894D01*
X0088808Y0094320D01*
X0087627Y0094320D01*
X0090383Y0095894D02*
X0052981Y0095894D01*
X0043493Y0105383D01*
X0036328Y0105383D01*
X0036328Y0115383D02*
X0043335Y0115383D01*
X0052981Y0105737D01*
X0091957Y0105737D01*
X0114398Y0128178D01*
X0192351Y0128178D01*
X0202981Y0118729D02*
X0202981Y0084871D01*
X0222666Y0065186D01*
X0223847Y0075028D02*
X0237627Y0061249D01*
X0282902Y0061249D01*
X0284871Y0063217D01*
X0291839Y0063217D01*
X0291918Y0063139D01*
X0304162Y0058099D02*
X0295501Y0049438D01*
X0218335Y0049438D01*
X0215973Y0047076D01*
X0206918Y0046682D02*
X0206918Y0029753D01*
X0212824Y0023847D01*
X0293139Y0023847D01*
X0313611Y0044713D01*
X0313611Y0090776D01*
X0315973Y0093139D01*
X0321918Y0093139D01*
X0315973Y0093139D02*
X0313611Y0095501D01*
X0313611Y0136957D01*
X0313729Y0136957D01*
X0320698Y0143926D01*
X0320698Y0151406D01*
X0313611Y0158493D01*
X0313611Y0207312D01*
X0315580Y0209280D01*
X0315580Y0209674D01*
X0321918Y0209674D01*
X0315580Y0209674D02*
X0313611Y0211643D01*
X0313611Y0253493D01*
X0300225Y0253493D02*
X0300225Y0211643D01*
X0298257Y0209674D02*
X0291918Y0209674D01*
X0321918Y0199674D02*
X0360107Y0199674D01*
X0370304Y0209871D01*
X0389595Y0209871D01*
X0370304Y0220894D02*
X0351013Y0220894D01*
X0354477Y0229674D02*
X0370304Y0245501D01*
X0370304Y0270894D01*
X0321918Y0265540D02*
X0321918Y0239674D01*
X0321918Y0229674D02*
X0354477Y0229674D01*
X0338217Y0209871D02*
X0328572Y0219517D01*
X0322076Y0219517D01*
X0321918Y0219674D01*
X0338217Y0209871D02*
X0351013Y0209871D01*
X0321918Y0189674D02*
X0321918Y0179674D01*
X0291918Y0179674D02*
X0291839Y0179753D01*
X0243532Y0179753D01*
X0223847Y0160068D01*
X0179950Y0181328D02*
X0179753Y0181131D01*
X0130343Y0138020D02*
X0117942Y0138020D01*
X0088650Y0138020D01*
X0080383Y0128965D01*
X0074241Y0128965D01*
X0065186Y0138020D01*
X0065186Y0158217D01*
X0054280Y0169123D01*
X0053887Y0169123D01*
X0035776Y0187233D01*
X0022902Y0187233D01*
X0022666Y0187469D01*
X0022666Y0177469D02*
X0030737Y0177469D01*
X0042351Y0165855D01*
X0051406Y0156800D01*
X0051406Y0138808D01*
X0041957Y0133690D01*
X0033690Y0133690D01*
X0026328Y0126328D01*
X0026328Y0125383D01*
X0026328Y0115383D01*
X0036328Y0095383D02*
X0043650Y0095383D01*
X0052981Y0086052D01*
X0098847Y0095501D02*
X0099044Y0095304D01*
X0151406Y0057587D02*
X0156524Y0062706D01*
X0167115Y0062706D01*
X0151406Y0047587D02*
X0156288Y0042706D01*
X0167115Y0042706D01*
X0197115Y0042706D02*
X0197154Y0042745D01*
X0202981Y0042745D01*
X0206918Y0046682D01*
X0206918Y0058887D01*
X0203099Y0062706D01*
X0197115Y0062706D01*
X0197154Y0072666D02*
X0197115Y0072706D01*
X0212036Y0094320D02*
X0212036Y0119517D01*
X0212036Y0094320D02*
X0223847Y0082509D01*
X0223847Y0082312D01*
X0223847Y0075028D01*
X0223847Y0091564D02*
X0241957Y0073454D01*
X0252784Y0073454D01*
X0261643Y0082312D01*
X0262430Y0082312D01*
X0262430Y0083139D01*
X0291918Y0083139D01*
X0291918Y0093139D02*
X0297863Y0093139D01*
X0304162Y0100619D02*
X0304162Y0058099D01*
X0321918Y0063139D02*
X0321918Y0073139D01*
X0321918Y0083139D02*
X0322076Y0083296D01*
X0328178Y0083296D01*
X0329162Y0082312D01*
X0351013Y0082312D01*
X0370304Y0082312D01*
X0370304Y0092942D02*
X0389595Y0092942D01*
X0360580Y0113139D02*
X0389595Y0142154D01*
X0389595Y0142942D01*
X0360580Y0113139D02*
X0321918Y0113139D01*
X0321918Y0103139D02*
X0322076Y0102981D01*
X0326603Y0102981D01*
X0336643Y0092942D01*
X0351013Y0092942D01*
X0307312Y0102981D02*
X0306524Y0102981D01*
X0304162Y0100619D01*
X0291918Y0123139D02*
X0283965Y0123139D01*
X0284083Y0123257D01*
X0284083Y0145501D01*
X0288020Y0149831D01*
X0291957Y0123178D02*
X0291918Y0123139D01*
X0283965Y0123139D02*
X0243139Y0082312D01*
X0223847Y0091564D02*
X0223847Y0092942D01*
X0277391Y0078178D02*
X0277391Y0066761D01*
X0295501Y0042351D02*
X0245501Y0042351D01*
X0243139Y0032312D02*
X0223847Y0032312D01*
X0228965Y0262036D02*
X0254162Y0262036D01*
X0262430Y0270304D01*
X0262430Y0270501D01*
X0262627Y0270698D01*
X0316761Y0270698D01*
X0321918Y0265540D01*
X0228965Y0262036D02*
X0223847Y0267154D01*
X0223847Y0270501D01*
D18*
X0284477Y0262824D03*
X0290776Y0265580D03*
X0293926Y0166761D03*
X0291957Y0160855D03*
X0288020Y0149831D03*
X0264005Y0142745D03*
X0212036Y0119517D03*
X0202981Y0118729D03*
X0277391Y0078178D03*
X0277391Y0066761D03*
X0295501Y0042351D03*
X0245501Y0042351D03*
X0215973Y0047076D03*
X0222666Y0065186D03*
X0307312Y0102981D03*
X0037627Y0040776D03*
D19*
X0044320Y0045501D02*
X0063217Y0045501D01*
X0067942Y0048650D01*
X0064005Y0042745D02*
X0064005Y0032272D01*
X0063847Y0032115D01*
X0044320Y0045501D02*
X0036328Y0053493D01*
X0036328Y0053887D01*
X0036328Y0055383D02*
X0036328Y0065383D01*
X0036328Y0075383D01*
X0036328Y0085383D02*
X0039477Y0085383D01*
X0050225Y0074635D01*
X0082115Y0074635D01*
X0082115Y0058099D02*
X0094910Y0045304D01*
X0099044Y0045304D01*
X0093847Y0040107D01*
X0093847Y0032115D01*
D20*
X0030647Y0018384D02*
X0029887Y0017624D01*
X0387886Y0017624D01*
X0387520Y0017990D01*
X0386157Y0021280D01*
X0386157Y0024840D01*
X0387520Y0028130D01*
X0390037Y0030647D01*
X0393327Y0032010D01*
X0396887Y0032010D01*
X0400177Y0030647D01*
X0400937Y0029887D01*
X0400937Y0265445D01*
X0399783Y0264291D01*
X0396494Y0262929D01*
X0392933Y0262929D01*
X0389644Y0264291D01*
X0387126Y0266809D01*
X0385763Y0270098D01*
X0385763Y0273659D01*
X0387126Y0276948D01*
X0388280Y0278102D01*
X0029100Y0278102D01*
X0030254Y0276948D01*
X0031616Y0273659D01*
X0031616Y0270098D01*
X0030254Y0266809D01*
X0027736Y0264291D01*
X0024446Y0262929D01*
X0020886Y0262929D01*
X0017596Y0264291D01*
X0016443Y0265445D01*
X0016443Y0221679D01*
X0016599Y0221835D01*
X0018492Y0222619D01*
X0026841Y0222619D01*
X0028733Y0221835D01*
X0029899Y0220669D01*
X0050613Y0220669D01*
X0052292Y0222348D01*
X0052862Y0222348D01*
X0054112Y0223598D01*
X0054112Y0236452D01*
X0054599Y0237628D01*
X0055499Y0238529D01*
X0073700Y0256729D01*
X0073383Y0257494D01*
X0073383Y0260279D01*
X0074448Y0262852D01*
X0076417Y0264821D01*
X0078990Y0265887D01*
X0081775Y0265887D01*
X0082095Y0265754D01*
X0086995Y0270655D01*
X0088171Y0271142D01*
X0110903Y0271142D01*
X0111220Y0271907D01*
X0113189Y0273876D01*
X0115762Y0274942D01*
X0118547Y0274942D01*
X0121120Y0273876D01*
X0123089Y0271907D01*
X0123406Y0271142D01*
X0125968Y0271142D01*
X0127568Y0272742D01*
X0131544Y0272742D01*
X0134356Y0269930D01*
X0134356Y0265954D01*
X0131544Y0263142D01*
X0127568Y0263142D01*
X0125968Y0264742D01*
X0123406Y0264742D01*
X0123089Y0263977D01*
X0121120Y0262007D01*
X0118547Y0260942D01*
X0115762Y0260942D01*
X0113189Y0262007D01*
X0111220Y0263977D01*
X0110903Y0264742D01*
X0104993Y0264742D01*
X0107783Y0261952D01*
X0107783Y0259062D01*
X0100558Y0259062D01*
X0100558Y0258712D01*
X0107783Y0258712D01*
X0107783Y0255821D01*
X0103448Y0251487D01*
X0100558Y0251487D01*
X0100558Y0258712D01*
X0100208Y0258712D01*
X0092983Y0258712D01*
X0092983Y0255821D01*
X0097317Y0251487D01*
X0100208Y0251487D01*
X0100208Y0258712D01*
X0100208Y0259062D01*
X0092983Y0259062D01*
X0092983Y0261952D01*
X0095773Y0264742D01*
X0090133Y0264742D01*
X0086881Y0261490D01*
X0087383Y0260279D01*
X0087383Y0257494D01*
X0086317Y0254921D01*
X0084348Y0252952D01*
X0081775Y0251887D01*
X0078990Y0251887D01*
X0078225Y0252204D01*
X0060512Y0234490D01*
X0060512Y0221636D01*
X0060156Y0220778D01*
X0062126Y0222748D01*
X0064280Y0222748D01*
X0064280Y0217548D01*
X0059080Y0217548D01*
X0059080Y0215394D01*
X0062126Y0212348D01*
X0064280Y0212348D01*
X0064280Y0217548D01*
X0064280Y0217548D01*
X0059080Y0217548D01*
X0059080Y0219515D01*
X0059080Y0219515D01*
X0059080Y0215560D01*
X0056269Y0212748D01*
X0052292Y0212748D01*
X0050771Y0214269D01*
X0029899Y0214269D01*
X0028733Y0213103D01*
X0027203Y0212469D01*
X0028733Y0211835D01*
X0029899Y0210669D01*
X0043224Y0210669D01*
X0044400Y0210182D01*
X0045300Y0209282D01*
X0045300Y0209282D01*
X0049976Y0204606D01*
X0050692Y0204606D01*
X0052292Y0206206D01*
X0054555Y0206206D01*
X0059048Y0210699D01*
X0059948Y0211599D01*
X0061124Y0212087D01*
X0072522Y0212087D01*
X0073746Y0213311D01*
X0073383Y0214187D01*
X0073383Y0216972D01*
X0074448Y0219545D01*
X0076417Y0221514D01*
X0078990Y0222580D01*
X0081775Y0222580D01*
X0082540Y0222263D01*
X0086725Y0226447D01*
X0087625Y0227347D01*
X0088801Y0227835D01*
X0111297Y0227835D01*
X0111614Y0228600D01*
X0113583Y0230569D01*
X0116156Y0231635D01*
X0118940Y0231635D01*
X0121513Y0230569D01*
X0123482Y0228600D01*
X0123799Y0227835D01*
X0126361Y0227835D01*
X0127961Y0229435D01*
X0131938Y0229435D01*
X0134750Y0226623D01*
X0134750Y0222646D01*
X0131938Y0219835D01*
X0127961Y0219835D01*
X0126361Y0221435D01*
X0123799Y0221435D01*
X0123482Y0220669D01*
X0121513Y0218700D01*
X0118940Y0217635D01*
X0116156Y0217635D01*
X0113583Y0218700D01*
X0111614Y0220669D01*
X0111297Y0221435D01*
X0104993Y0221435D01*
X0107783Y0218645D01*
X0107783Y0215755D01*
X0100558Y0215755D01*
X0100558Y0215405D01*
X0107783Y0215405D01*
X0107783Y0212514D01*
X0103448Y0208180D01*
X0100558Y0208180D01*
X0100558Y0215404D01*
X0100208Y0215404D01*
X0100208Y0208180D01*
X0097317Y0208180D01*
X0092983Y0212514D01*
X0092983Y0215405D01*
X0100208Y0215405D01*
X0100208Y0215755D01*
X0092983Y0215755D01*
X0092983Y0218645D01*
X0095773Y0221435D01*
X0090763Y0221435D01*
X0087066Y0217737D01*
X0087383Y0216972D01*
X0087383Y0214187D01*
X0086317Y0211614D01*
X0084348Y0209645D01*
X0081775Y0208580D01*
X0078990Y0208580D01*
X0078336Y0208850D01*
X0075660Y0206174D01*
X0074484Y0205687D01*
X0067354Y0205687D01*
X0069480Y0203560D01*
X0069480Y0201406D01*
X0064280Y0201406D01*
X0064280Y0201406D01*
X0064280Y0196206D01*
X0062126Y0196206D01*
X0059080Y0199252D01*
X0059080Y0201406D01*
X0064280Y0201406D01*
X0064280Y0201406D01*
X0059080Y0201406D01*
X0059080Y0201681D01*
X0059080Y0201681D01*
X0059080Y0199418D01*
X0056269Y0196606D01*
X0052292Y0196606D01*
X0050692Y0198206D01*
X0048014Y0198206D01*
X0046838Y0198693D01*
X0041262Y0204269D01*
X0029899Y0204269D01*
X0028733Y0203103D01*
X0027203Y0202469D01*
X0028733Y0201835D01*
X0029899Y0200669D01*
X0042712Y0200669D01*
X0043888Y0200182D01*
X0044788Y0199282D01*
X0054006Y0190065D01*
X0056269Y0190065D01*
X0059080Y0187253D01*
X0059080Y0184872D01*
X0059080Y0184872D01*
X0059080Y0185264D01*
X0064280Y0185264D01*
X0064280Y0185265D01*
X0064280Y0190465D01*
X0062126Y0190465D01*
X0059080Y0187418D01*
X0059080Y0185265D01*
X0064280Y0185265D01*
X0064280Y0185265D01*
X0064280Y0190465D01*
X0066434Y0190465D01*
X0069480Y0187418D01*
X0069480Y0185265D01*
X0064280Y0185265D01*
X0064280Y0185264D01*
X0069480Y0185264D01*
X0069480Y0183111D01*
X0068141Y0181772D01*
X0068185Y0181772D01*
X0069361Y0181284D01*
X0070261Y0180384D01*
X0074436Y0176209D01*
X0074448Y0176238D01*
X0076417Y0178207D01*
X0078990Y0179272D01*
X0081775Y0179272D01*
X0082373Y0179025D01*
X0087783Y0184434D01*
X0088959Y0184921D01*
X0111460Y0184921D01*
X0111614Y0185293D01*
X0113583Y0187262D01*
X0116156Y0188328D01*
X0118940Y0188328D01*
X0121513Y0187262D01*
X0123482Y0185293D01*
X0123799Y0184528D01*
X0126361Y0184528D01*
X0127961Y0186128D01*
X0131938Y0186128D01*
X0134750Y0183316D01*
X0134750Y0179339D01*
X0131938Y0176528D01*
X0127961Y0176528D01*
X0126361Y0178128D01*
X0123799Y0178128D01*
X0123482Y0177362D01*
X0121513Y0175393D01*
X0118940Y0174328D01*
X0116156Y0174328D01*
X0113583Y0175393D01*
X0111614Y0177362D01*
X0111134Y0178521D01*
X0104599Y0178521D01*
X0107783Y0175338D01*
X0107783Y0172447D01*
X0100558Y0172447D01*
X0100558Y0172097D01*
X0100558Y0164872D01*
X0103448Y0164872D01*
X0107783Y0169207D01*
X0107783Y0172097D01*
X0100558Y0172097D01*
X0100208Y0172097D01*
X0100208Y0164872D01*
X0097317Y0164872D01*
X0092983Y0169207D01*
X0092983Y0172097D01*
X0100208Y0172097D01*
X0100208Y0172447D01*
X0092983Y0172447D01*
X0092983Y0175338D01*
X0096166Y0178521D01*
X0090921Y0178521D01*
X0086997Y0174597D01*
X0087383Y0173665D01*
X0087383Y0170880D01*
X0086317Y0168307D01*
X0084348Y0166338D01*
X0081775Y0165272D01*
X0078990Y0165272D01*
X0076417Y0166338D01*
X0074448Y0168307D01*
X0074131Y0169072D01*
X0073211Y0169072D01*
X0072035Y0169560D01*
X0066223Y0175372D01*
X0060219Y0175372D01*
X0059042Y0175859D01*
X0054437Y0180465D01*
X0052292Y0180465D01*
X0049480Y0183276D01*
X0049480Y0185539D01*
X0040750Y0194269D01*
X0029899Y0194269D01*
X0028733Y0193103D01*
X0027203Y0192469D01*
X0028733Y0191835D01*
X0030136Y0190433D01*
X0036413Y0190433D01*
X0037589Y0189946D01*
X0053612Y0173923D01*
X0056269Y0173923D01*
X0059080Y0171111D01*
X0059080Y0168848D01*
X0059080Y0168848D01*
X0059080Y0169123D01*
X0064280Y0169123D01*
X0064280Y0169123D01*
X0064280Y0174323D01*
X0062126Y0174323D01*
X0059080Y0171277D01*
X0059080Y0169123D01*
X0064280Y0169123D01*
X0064280Y0169123D01*
X0064280Y0174323D01*
X0066434Y0174323D01*
X0069480Y0171277D01*
X0069480Y0169123D01*
X0064280Y0169123D01*
X0064280Y0169123D01*
X0064280Y0163923D01*
X0064006Y0163923D01*
X0067899Y0160030D01*
X0068386Y0158854D01*
X0068386Y0139346D01*
X0074625Y0133107D01*
X0076417Y0134900D01*
X0078990Y0135965D01*
X0081775Y0135965D01*
X0082258Y0135765D01*
X0085909Y0139764D01*
X0085938Y0139833D01*
X0086336Y0140232D01*
X0086716Y0140648D01*
X0086785Y0140680D01*
X0086838Y0140733D01*
X0087359Y0140949D01*
X0087869Y0141188D01*
X0087944Y0141192D01*
X0088014Y0141220D01*
X0088578Y0141220D01*
X0089141Y0141246D01*
X0089212Y0141220D01*
X0111690Y0141220D01*
X0112007Y0141986D01*
X0113977Y0143955D01*
X0116549Y0145020D01*
X0119334Y0145020D01*
X0121907Y0143955D01*
X0123876Y0141986D01*
X0124193Y0141220D01*
X0126755Y0141220D01*
X0128355Y0142820D01*
X0132332Y0142820D01*
X0135143Y0140009D01*
X0135143Y0136032D01*
X0132332Y0133220D01*
X0128355Y0133220D01*
X0126755Y0134820D01*
X0124193Y0134820D01*
X0123876Y0134055D01*
X0121907Y0132086D01*
X0120197Y0131378D01*
X0186100Y0131378D01*
X0186417Y0132143D01*
X0188386Y0134112D01*
X0190959Y0135178D01*
X0193744Y0135178D01*
X0196316Y0134112D01*
X0198285Y0132143D01*
X0198602Y0131378D01*
X0257955Y0131378D01*
X0264872Y0138295D01*
X0263120Y0138295D01*
X0261484Y0138972D01*
X0260911Y0139545D01*
X0246530Y0139545D01*
X0245127Y0138142D01*
X0241150Y0138142D01*
X0239550Y0139742D01*
X0227435Y0139742D01*
X0225835Y0138142D01*
X0221859Y0138142D01*
X0219047Y0140954D01*
X0219047Y0144930D01*
X0221859Y0147742D01*
X0225835Y0147742D01*
X0227435Y0146142D01*
X0239550Y0146142D01*
X0241150Y0147742D01*
X0245127Y0147742D01*
X0246924Y0145945D01*
X0260911Y0145945D01*
X0261484Y0146517D01*
X0263120Y0147195D01*
X0264890Y0147195D01*
X0266525Y0146517D01*
X0267777Y0145266D01*
X0268455Y0143630D01*
X0268455Y0141878D01*
X0287507Y0160931D01*
X0287507Y0161740D01*
X0288185Y0163376D01*
X0288370Y0163561D01*
X0268823Y0163561D01*
X0254820Y0150294D01*
X0254400Y0149875D01*
X0254359Y0149857D01*
X0254326Y0149827D01*
X0253772Y0149614D01*
X0253224Y0149387D01*
X0253179Y0149387D01*
X0253137Y0149371D01*
X0252544Y0149387D01*
X0190140Y0149387D01*
X0188964Y0149875D01*
X0177940Y0160898D01*
X0177040Y0161798D01*
X0176553Y0162974D01*
X0176553Y0177936D01*
X0175150Y0179339D01*
X0175150Y0183316D01*
X0177961Y0186128D01*
X0181938Y0186128D01*
X0184750Y0183316D01*
X0184750Y0179339D01*
X0182953Y0177542D01*
X0182953Y0164937D01*
X0192102Y0155787D01*
X0221143Y0155787D01*
X0220062Y0156868D01*
X0202345Y0156868D01*
X0201168Y0157355D01*
X0192113Y0166410D01*
X0191213Y0167310D01*
X0190726Y0168486D01*
X0190726Y0209333D01*
X0180224Y0219835D01*
X0177961Y0219835D01*
X0175150Y0222646D01*
X0175150Y0226623D01*
X0177961Y0229435D01*
X0181938Y0229435D01*
X0184750Y0226623D01*
X0184750Y0224360D01*
X0196639Y0212471D01*
X0197126Y0211295D01*
X0197126Y0170448D01*
X0204307Y0163268D01*
X0220456Y0163268D01*
X0221859Y0164671D01*
X0223925Y0164671D01*
X0241720Y0182466D01*
X0242896Y0182953D01*
X0285609Y0182953D01*
X0286399Y0183743D01*
X0288163Y0184474D01*
X0295673Y0184474D01*
X0297025Y0183914D01*
X0297025Y0185434D01*
X0295673Y0184874D01*
X0288163Y0184874D01*
X0286399Y0185605D01*
X0285530Y0186474D01*
X0262896Y0186474D01*
X0261720Y0186961D01*
X0260819Y0187861D01*
X0243610Y0205071D01*
X0241150Y0205071D01*
X0239550Y0206671D01*
X0227435Y0206671D01*
X0225835Y0205071D01*
X0221859Y0205071D01*
X0219047Y0207883D01*
X0219047Y0211859D01*
X0221859Y0214671D01*
X0225835Y0214671D01*
X0227435Y0213071D01*
X0239550Y0213071D01*
X0241150Y0214671D01*
X0244443Y0214671D01*
X0243413Y0215701D01*
X0241150Y0215701D01*
X0239550Y0217301D01*
X0227435Y0217301D01*
X0225835Y0215701D01*
X0221859Y0215701D01*
X0219047Y0218513D01*
X0219047Y0222489D01*
X0221859Y0225301D01*
X0225835Y0225301D01*
X0227435Y0223701D01*
X0239550Y0223701D01*
X0241150Y0225301D01*
X0245127Y0225301D01*
X0247939Y0222489D01*
X0247939Y0220226D01*
X0265291Y0202874D01*
X0285530Y0202874D01*
X0286399Y0203743D01*
X0288163Y0204474D01*
X0295673Y0204474D01*
X0297025Y0203914D01*
X0297025Y0205434D01*
X0295673Y0204874D01*
X0288163Y0204874D01*
X0286399Y0205605D01*
X0285049Y0206955D01*
X0284318Y0208719D01*
X0284318Y0210629D01*
X0285049Y0212393D01*
X0286399Y0213743D01*
X0288163Y0214474D01*
X0295673Y0214474D01*
X0297025Y0213914D01*
X0297025Y0215013D01*
X0296714Y0214855D01*
X0295936Y0214602D01*
X0295127Y0214474D01*
X0291918Y0214474D01*
X0291918Y0219674D01*
X0283918Y0219674D01*
X0291918Y0219674D01*
X0291918Y0219674D01*
X0291918Y0219674D01*
X0291918Y0224874D01*
X0288709Y0224874D01*
X0287900Y0224746D01*
X0287122Y0224493D01*
X0286393Y0224121D01*
X0285731Y0223640D01*
X0285152Y0223062D01*
X0284671Y0222399D01*
X0284299Y0221670D01*
X0284046Y0220892D01*
X0283918Y0220083D01*
X0283918Y0219674D01*
X0283918Y0219265D01*
X0284046Y0218456D01*
X0284299Y0217678D01*
X0284671Y0216949D01*
X0285152Y0216286D01*
X0285731Y0215708D01*
X0286393Y0215227D01*
X0287122Y0214855D01*
X0287900Y0214602D01*
X0288709Y0214474D01*
X0291918Y0214474D01*
X0291918Y0219674D01*
X0291918Y0219674D01*
X0291918Y0224874D01*
X0295127Y0224874D01*
X0295936Y0224746D01*
X0296714Y0224493D01*
X0297025Y0224335D01*
X0297025Y0225434D01*
X0295673Y0224874D01*
X0288163Y0224874D01*
X0286399Y0225605D01*
X0285530Y0226474D01*
X0285494Y0226474D01*
X0284318Y0226961D01*
X0283418Y0227861D01*
X0283418Y0227861D01*
X0280302Y0230977D01*
X0280302Y0230977D01*
X0279402Y0231877D01*
X0278915Y0233053D01*
X0278915Y0253618D01*
X0279402Y0254794D01*
X0283161Y0258552D01*
X0281956Y0259051D01*
X0281384Y0259624D01*
X0275173Y0259624D01*
X0266024Y0250475D01*
X0266024Y0223695D01*
X0267230Y0222489D01*
X0267230Y0218513D01*
X0264418Y0215701D01*
X0260442Y0215701D01*
X0257630Y0218513D01*
X0257630Y0222489D01*
X0259624Y0224483D01*
X0259624Y0252437D01*
X0260111Y0253613D01*
X0261011Y0254513D01*
X0272035Y0265536D01*
X0273211Y0266024D01*
X0281384Y0266024D01*
X0281956Y0266596D01*
X0283592Y0267274D01*
X0285362Y0267274D01*
X0286471Y0266814D01*
X0286754Y0267498D01*
X0266215Y0267498D01*
X0264418Y0265701D01*
X0262352Y0265701D01*
X0256875Y0260224D01*
X0255975Y0259323D01*
X0254799Y0258836D01*
X0228329Y0258836D01*
X0227153Y0259323D01*
X0226253Y0260224D01*
X0226253Y0260224D01*
X0221134Y0265342D01*
X0220647Y0266518D01*
X0220647Y0266913D01*
X0219047Y0268513D01*
X0219047Y0272489D01*
X0221859Y0275301D01*
X0225835Y0275301D01*
X0228647Y0272489D01*
X0228647Y0268513D01*
X0227831Y0267696D01*
X0230291Y0265236D01*
X0252837Y0265236D01*
X0257630Y0270029D01*
X0257630Y0272489D01*
X0260442Y0275301D01*
X0264418Y0275301D01*
X0265821Y0273898D01*
X0317397Y0273898D01*
X0318573Y0273410D01*
X0324631Y0267353D01*
X0325118Y0266177D01*
X0325118Y0244474D01*
X0325673Y0244474D01*
X0327437Y0243743D01*
X0328787Y0242393D01*
X0329518Y0240629D01*
X0329518Y0238719D01*
X0328787Y0236955D01*
X0327437Y0235605D01*
X0325673Y0234874D01*
X0318163Y0234874D01*
X0316811Y0235434D01*
X0316811Y0233914D01*
X0318163Y0234474D01*
X0325673Y0234474D01*
X0327437Y0233743D01*
X0328306Y0232874D01*
X0353152Y0232874D01*
X0367104Y0246826D01*
X0367104Y0267306D01*
X0365504Y0268906D01*
X0365504Y0272883D01*
X0368316Y0275694D01*
X0372292Y0275694D01*
X0375104Y0272883D01*
X0375104Y0268906D01*
X0373504Y0267306D01*
X0373504Y0244864D01*
X0373017Y0243688D01*
X0372117Y0242788D01*
X0356290Y0226961D01*
X0355114Y0226474D01*
X0328306Y0226474D01*
X0327437Y0225605D01*
X0325673Y0224874D01*
X0318163Y0224874D01*
X0316811Y0225434D01*
X0316811Y0223914D01*
X0318163Y0224474D01*
X0325673Y0224474D01*
X0327437Y0223743D01*
X0328464Y0222717D01*
X0329208Y0222717D01*
X0330384Y0222229D01*
X0331284Y0221329D01*
X0339543Y0213071D01*
X0347424Y0213071D01*
X0349024Y0214671D01*
X0353001Y0214671D01*
X0355813Y0211859D01*
X0355813Y0207883D01*
X0353001Y0205071D01*
X0349024Y0205071D01*
X0347424Y0206671D01*
X0337581Y0206671D01*
X0336405Y0207158D01*
X0327698Y0215865D01*
X0327437Y0215605D01*
X0325673Y0214874D01*
X0318163Y0214874D01*
X0316811Y0215434D01*
X0316811Y0213914D01*
X0318163Y0214474D01*
X0325673Y0214474D01*
X0327437Y0213743D01*
X0328787Y0212393D01*
X0329518Y0210629D01*
X0329518Y0208719D01*
X0328787Y0206955D01*
X0327437Y0205605D01*
X0325673Y0204874D01*
X0318163Y0204874D01*
X0316811Y0205434D01*
X0316811Y0203914D01*
X0318163Y0204474D01*
X0325673Y0204474D01*
X0327437Y0203743D01*
X0328306Y0202874D01*
X0358782Y0202874D01*
X0365504Y0209596D01*
X0365504Y0211859D01*
X0368316Y0214671D01*
X0372292Y0214671D01*
X0373892Y0213071D01*
X0386007Y0213071D01*
X0387607Y0214671D01*
X0391583Y0214671D01*
X0394395Y0211859D01*
X0394395Y0207883D01*
X0391583Y0205071D01*
X0387607Y0205071D01*
X0386007Y0206671D01*
X0373892Y0206671D01*
X0372292Y0205071D01*
X0370029Y0205071D01*
X0361920Y0196961D01*
X0360744Y0196474D01*
X0328306Y0196474D01*
X0327437Y0195605D01*
X0325673Y0194874D01*
X0318163Y0194874D01*
X0316811Y0195434D01*
X0316811Y0193914D01*
X0318163Y0194474D01*
X0325673Y0194474D01*
X0327437Y0193743D01*
X0328787Y0192393D01*
X0329518Y0190629D01*
X0329518Y0188719D01*
X0328787Y0186955D01*
X0327437Y0185605D01*
X0325673Y0184874D01*
X0325118Y0184874D01*
X0325118Y0184474D01*
X0325673Y0184474D01*
X0327437Y0183743D01*
X0328787Y0182393D01*
X0329518Y0180629D01*
X0329518Y0178719D01*
X0328787Y0176955D01*
X0327437Y0175605D01*
X0325673Y0174874D01*
X0318163Y0174874D01*
X0316811Y0175434D01*
X0316811Y0159818D01*
X0323410Y0153219D01*
X0323898Y0152043D01*
X0323898Y0143289D01*
X0323410Y0142113D01*
X0322510Y0141213D01*
X0318411Y0137114D01*
X0318411Y0134969D01*
X0316811Y0133369D01*
X0316811Y0127378D01*
X0318163Y0127939D01*
X0325673Y0127939D01*
X0327437Y0127208D01*
X0328787Y0125858D01*
X0329518Y0124093D01*
X0329518Y0122184D01*
X0328787Y0120420D01*
X0327437Y0119069D01*
X0325673Y0118339D01*
X0318163Y0118339D01*
X0316811Y0118899D01*
X0316811Y0117378D01*
X0318163Y0117939D01*
X0325673Y0117939D01*
X0327437Y0117208D01*
X0328306Y0116339D01*
X0359254Y0116339D01*
X0384795Y0141880D01*
X0384795Y0144930D01*
X0387607Y0147742D01*
X0391583Y0147742D01*
X0394395Y0144930D01*
X0394395Y0140954D01*
X0391583Y0138142D01*
X0390108Y0138142D01*
X0362392Y0110426D01*
X0361216Y0109939D01*
X0328306Y0109939D01*
X0327437Y0109069D01*
X0325673Y0108339D01*
X0318163Y0108339D01*
X0316811Y0108899D01*
X0316811Y0107378D01*
X0318163Y0107939D01*
X0325673Y0107939D01*
X0327437Y0107208D01*
X0328787Y0105858D01*
X0329166Y0104944D01*
X0329316Y0104794D01*
X0337968Y0096142D01*
X0347424Y0096142D01*
X0349024Y0097742D01*
X0353001Y0097742D01*
X0355813Y0094930D01*
X0355813Y0090954D01*
X0353001Y0088142D01*
X0349024Y0088142D01*
X0347424Y0089742D01*
X0336006Y0089742D01*
X0334830Y0090229D01*
X0326413Y0098645D01*
X0325673Y0098339D01*
X0318163Y0098339D01*
X0316811Y0098899D01*
X0316811Y0097378D01*
X0318163Y0097939D01*
X0325673Y0097939D01*
X0327437Y0097208D01*
X0328787Y0095858D01*
X0329518Y0094093D01*
X0329518Y0092184D01*
X0328787Y0090420D01*
X0327437Y0089069D01*
X0325673Y0088339D01*
X0318163Y0088339D01*
X0316811Y0088899D01*
X0316811Y0087378D01*
X0318163Y0087939D01*
X0325673Y0087939D01*
X0327437Y0087208D01*
X0328149Y0086496D01*
X0328814Y0086496D01*
X0329991Y0086009D01*
X0330488Y0085512D01*
X0347424Y0085512D01*
X0349024Y0087112D01*
X0353001Y0087112D01*
X0354601Y0085512D01*
X0366716Y0085512D01*
X0368316Y0087112D01*
X0372292Y0087112D01*
X0375104Y0084300D01*
X0375104Y0080324D01*
X0372292Y0077512D01*
X0368316Y0077512D01*
X0366716Y0079112D01*
X0354601Y0079112D01*
X0353001Y0077512D01*
X0349024Y0077512D01*
X0347424Y0079112D01*
X0328526Y0079112D01*
X0327786Y0079418D01*
X0327437Y0079069D01*
X0325673Y0078339D01*
X0318163Y0078339D01*
X0316811Y0078899D01*
X0316811Y0077378D01*
X0318163Y0077939D01*
X0325673Y0077939D01*
X0327437Y0077208D01*
X0328787Y0075858D01*
X0329518Y0074093D01*
X0329518Y0072184D01*
X0328787Y0070420D01*
X0327437Y0069069D01*
X0325673Y0068339D01*
X0325118Y0068339D01*
X0325118Y0067939D01*
X0325673Y0067939D01*
X0327437Y0067208D01*
X0328787Y0065858D01*
X0329518Y0064093D01*
X0329518Y0062184D01*
X0328787Y0060420D01*
X0327437Y0059069D01*
X0325673Y0058339D01*
X0318163Y0058339D01*
X0316811Y0058899D01*
X0316811Y0050965D01*
X0317576Y0050648D01*
X0319545Y0048679D01*
X0320611Y0046106D01*
X0320611Y0043321D01*
X0319545Y0040748D01*
X0317576Y0038779D01*
X0315003Y0037713D01*
X0312219Y0037713D01*
X0311513Y0038006D01*
X0295857Y0022049D01*
X0295851Y0022035D01*
X0295412Y0021595D01*
X0294977Y0021152D01*
X0294962Y0021146D01*
X0294951Y0021134D01*
X0294378Y0020897D01*
X0293806Y0020653D01*
X0293790Y0020653D01*
X0293775Y0020647D01*
X0293154Y0020647D01*
X0292533Y0020641D01*
X0292518Y0020647D01*
X0212187Y0020647D01*
X0211011Y0021134D01*
X0210111Y0022035D01*
X0204205Y0027940D01*
X0203718Y0029116D01*
X0203718Y0039587D01*
X0203618Y0039545D01*
X0203543Y0039545D01*
X0202634Y0038636D01*
X0200870Y0037906D01*
X0193360Y0037906D01*
X0191596Y0038636D01*
X0190727Y0039505D01*
X0190340Y0038570D01*
X0182859Y0031090D01*
X0181959Y0030190D01*
X0180783Y0029702D01*
X0132691Y0029702D01*
X0132537Y0029331D01*
X0130568Y0027362D01*
X0127996Y0026296D01*
X0125211Y0026296D01*
X0122638Y0027362D01*
X0120669Y0029331D01*
X0119603Y0031904D01*
X0119603Y0034688D01*
X0119862Y0035314D01*
X0114673Y0040504D01*
X0112410Y0040504D01*
X0110810Y0042104D01*
X0102632Y0042104D01*
X0101032Y0040504D01*
X0100608Y0040504D01*
X0098347Y0038243D01*
X0098347Y0037859D01*
X0098997Y0036289D01*
X0098997Y0027941D01*
X0098213Y0026048D01*
X0096764Y0024599D01*
X0094872Y0023815D01*
X0092823Y0023815D01*
X0090930Y0024599D01*
X0089481Y0026048D01*
X0089063Y0027057D01*
X0088991Y0026834D01*
X0088594Y0026056D01*
X0088081Y0025349D01*
X0087463Y0024732D01*
X0086756Y0024218D01*
X0085978Y0023822D01*
X0085147Y0023552D01*
X0084284Y0023415D01*
X0084022Y0023415D01*
X0084022Y0031940D01*
X0083672Y0031940D01*
X0074022Y0031940D01*
X0074022Y0023415D01*
X0074284Y0023415D01*
X0075147Y0023552D01*
X0075978Y0023822D01*
X0076756Y0024218D01*
X0077463Y0024732D01*
X0078081Y0025349D01*
X0078594Y0026056D01*
X0078847Y0026553D01*
X0079100Y0026056D01*
X0079614Y0025349D01*
X0080232Y0024732D01*
X0080938Y0024218D01*
X0081717Y0023822D01*
X0082548Y0023552D01*
X0083410Y0023415D01*
X0083672Y0023415D01*
X0083672Y0031940D01*
X0083672Y0032290D01*
X0079397Y0032290D01*
X0074022Y0032290D01*
X0073672Y0032290D01*
X0073672Y0040815D01*
X0073410Y0040815D01*
X0072548Y0040678D01*
X0071717Y0040408D01*
X0070938Y0040012D01*
X0070232Y0039498D01*
X0069614Y0038881D01*
X0069100Y0038174D01*
X0068704Y0037395D01*
X0068631Y0037172D01*
X0068505Y0037478D01*
X0068505Y0041650D01*
X0069334Y0041650D01*
X0071907Y0042716D01*
X0073876Y0044685D01*
X0074942Y0047258D01*
X0074942Y0050043D01*
X0073876Y0052616D01*
X0071907Y0054585D01*
X0069334Y0055650D01*
X0066549Y0055650D01*
X0063977Y0054585D01*
X0062007Y0052616D01*
X0060942Y0050043D01*
X0060942Y0050001D01*
X0046184Y0050001D01*
X0041478Y0054707D01*
X0041478Y0057516D01*
X0040828Y0058166D01*
X0040828Y0062599D01*
X0041478Y0063249D01*
X0041478Y0067516D01*
X0040828Y0068166D01*
X0040828Y0072599D01*
X0041478Y0073249D01*
X0041478Y0077018D01*
X0046410Y0072086D01*
X0047676Y0070820D01*
X0049330Y0070135D01*
X0073157Y0070135D01*
X0074200Y0069091D01*
X0090030Y0069091D01*
X0091202Y0070263D01*
X0091202Y0079006D01*
X0090030Y0080178D01*
X0074200Y0080178D01*
X0073157Y0079135D01*
X0052089Y0079135D01*
X0042026Y0089198D01*
X0040372Y0089883D01*
X0039111Y0089883D01*
X0038611Y0090383D01*
X0040411Y0092183D01*
X0042325Y0092183D01*
X0050268Y0084239D01*
X0051168Y0083339D01*
X0052345Y0082852D01*
X0071478Y0082852D01*
X0073032Y0081299D01*
X0075604Y0080233D01*
X0078389Y0080233D01*
X0080962Y0081299D01*
X0082515Y0082852D01*
X0105783Y0082852D01*
X0106959Y0083339D01*
X0114124Y0090504D01*
X0116387Y0090504D01*
X0119198Y0093316D01*
X0119198Y0097292D01*
X0116387Y0100104D01*
X0112410Y0100104D01*
X0109598Y0097292D01*
X0109598Y0095029D01*
X0103821Y0089252D01*
X0092459Y0089252D01*
X0093561Y0090355D01*
X0094530Y0092694D01*
X0094865Y0092694D01*
X0097056Y0090504D01*
X0101032Y0090504D01*
X0103844Y0093316D01*
X0103844Y0097292D01*
X0101032Y0100104D01*
X0097056Y0100104D01*
X0096046Y0099094D01*
X0092751Y0099094D01*
X0091592Y0100254D01*
X0089019Y0101320D01*
X0086234Y0101320D01*
X0083662Y0100254D01*
X0082502Y0099094D01*
X0054307Y0099094D01*
X0045306Y0108095D01*
X0044129Y0108583D01*
X0040411Y0108583D01*
X0038611Y0110383D01*
X0040411Y0112183D01*
X0042010Y0112183D01*
X0050268Y0103924D01*
X0051168Y0103024D01*
X0052345Y0102537D01*
X0092594Y0102537D01*
X0093770Y0103024D01*
X0115724Y0124978D01*
X0186100Y0124978D01*
X0186417Y0124213D01*
X0188386Y0122244D01*
X0190959Y0121178D01*
X0193744Y0121178D01*
X0196316Y0122244D01*
X0198285Y0124213D01*
X0198602Y0124978D01*
X0259930Y0124978D01*
X0261106Y0125465D01*
X0262983Y0127342D01*
X0262992Y0127364D01*
X0280883Y0145256D01*
X0280883Y0124582D01*
X0247939Y0091637D01*
X0247939Y0094930D01*
X0245127Y0097742D01*
X0241150Y0097742D01*
X0238339Y0094930D01*
X0238339Y0090954D01*
X0241150Y0088142D01*
X0244443Y0088142D01*
X0243413Y0087112D01*
X0241150Y0087112D01*
X0238339Y0084300D01*
X0238339Y0081598D01*
X0228647Y0091289D01*
X0228647Y0094930D01*
X0225835Y0097742D01*
X0221859Y0097742D01*
X0219047Y0094930D01*
X0219047Y0091834D01*
X0215236Y0095645D01*
X0215236Y0116423D01*
X0215809Y0116996D01*
X0216486Y0118631D01*
X0216486Y0120402D01*
X0215809Y0122037D01*
X0214557Y0123289D01*
X0212921Y0123967D01*
X0211151Y0123967D01*
X0209515Y0123289D01*
X0208264Y0122037D01*
X0207586Y0120402D01*
X0207586Y0118631D01*
X0208264Y0116996D01*
X0208836Y0116423D01*
X0208836Y0093683D01*
X0209323Y0092507D01*
X0210224Y0091607D01*
X0219047Y0082783D01*
X0219047Y0080324D01*
X0220647Y0078724D01*
X0220647Y0074392D01*
X0221134Y0073216D01*
X0234914Y0059436D01*
X0235814Y0058536D01*
X0236990Y0058049D01*
X0283539Y0058049D01*
X0284715Y0058536D01*
X0285824Y0059645D01*
X0286399Y0059069D01*
X0288163Y0058339D01*
X0294364Y0058339D01*
X0292600Y0056575D01*
X0224779Y0056575D01*
X0205975Y0075379D01*
X0204799Y0075866D01*
X0203543Y0075866D01*
X0202634Y0076775D01*
X0200870Y0077505D01*
X0193360Y0077505D01*
X0191596Y0076775D01*
X0190687Y0075866D01*
X0190140Y0075866D01*
X0188964Y0075379D01*
X0185814Y0072229D01*
X0184914Y0071329D01*
X0184427Y0070153D01*
X0184427Y0041708D01*
X0178821Y0036102D01*
X0133017Y0036102D01*
X0132537Y0037261D01*
X0130568Y0039230D01*
X0127996Y0040296D01*
X0125211Y0040296D01*
X0124306Y0039921D01*
X0119198Y0045029D01*
X0119198Y0047292D01*
X0116387Y0050104D01*
X0112410Y0050104D01*
X0110810Y0048504D01*
X0102632Y0048504D01*
X0101032Y0050104D01*
X0097056Y0050104D01*
X0096765Y0049813D01*
X0091202Y0055377D01*
X0091202Y0062471D01*
X0090030Y0063643D01*
X0074200Y0063643D01*
X0073028Y0062471D01*
X0073028Y0053727D01*
X0074200Y0052556D01*
X0081294Y0052556D01*
X0090613Y0043237D01*
X0090032Y0042656D01*
X0089347Y0041002D01*
X0089347Y0037859D01*
X0089063Y0037172D01*
X0088991Y0037395D01*
X0088594Y0038174D01*
X0088081Y0038881D01*
X0087463Y0039498D01*
X0086756Y0040012D01*
X0085978Y0040408D01*
X0085147Y0040678D01*
X0084284Y0040815D01*
X0084022Y0040815D01*
X0084022Y0032290D01*
X0083672Y0032290D01*
X0083672Y0040815D01*
X0083410Y0040815D01*
X0082548Y0040678D01*
X0081717Y0040408D01*
X0080938Y0040012D01*
X0080232Y0039498D01*
X0079614Y0038881D01*
X0079100Y0038174D01*
X0078847Y0037677D01*
X0078594Y0038174D01*
X0078081Y0038881D01*
X0077463Y0039498D01*
X0076756Y0040012D01*
X0075978Y0040408D01*
X0075147Y0040678D01*
X0074284Y0040815D01*
X0074022Y0040815D01*
X0074022Y0032290D01*
X0074022Y0031940D01*
X0073672Y0031940D01*
X0073672Y0023415D01*
X0073410Y0023415D01*
X0072548Y0023552D01*
X0071717Y0023822D01*
X0070938Y0024218D01*
X0070232Y0024732D01*
X0069614Y0025349D01*
X0069100Y0026056D01*
X0068704Y0026834D01*
X0068631Y0027057D01*
X0068213Y0026048D01*
X0066764Y0024599D01*
X0064872Y0023815D01*
X0062823Y0023815D01*
X0060930Y0024599D01*
X0059481Y0026048D01*
X0058847Y0027578D01*
X0058213Y0026048D01*
X0056764Y0024599D01*
X0054872Y0023815D01*
X0052823Y0023815D01*
X0050930Y0024599D01*
X0049481Y0026048D01*
X0048697Y0027941D01*
X0048697Y0036289D01*
X0049481Y0038182D01*
X0050930Y0039631D01*
X0052823Y0040415D01*
X0054872Y0040415D01*
X0056764Y0039631D01*
X0058213Y0038182D01*
X0058847Y0036651D01*
X0059481Y0038182D01*
X0059505Y0038206D01*
X0059505Y0041001D01*
X0043425Y0041001D01*
X0042077Y0041559D01*
X0042077Y0039891D01*
X0041412Y0038287D01*
X0041986Y0038049D01*
X0043955Y0036080D01*
X0045020Y0033507D01*
X0045020Y0030723D01*
X0043955Y0028150D01*
X0041986Y0026181D01*
X0039413Y0025115D01*
X0036628Y0025115D01*
X0034055Y0026181D01*
X0032086Y0028150D01*
X0031020Y0030723D01*
X0031020Y0033507D01*
X0032086Y0036080D01*
X0034055Y0038049D01*
X0034059Y0038051D01*
X0033854Y0038256D01*
X0033177Y0039891D01*
X0033177Y0041662D01*
X0033854Y0043297D01*
X0035106Y0044549D01*
X0036742Y0045226D01*
X0038230Y0045226D01*
X0032513Y0050944D01*
X0031828Y0052598D01*
X0031828Y0052599D01*
X0031610Y0052817D01*
X0028626Y0049833D01*
X0026503Y0049833D01*
X0026503Y0055208D01*
X0026153Y0055208D01*
X0026153Y0049833D01*
X0024029Y0049833D01*
X0020778Y0053084D01*
X0020778Y0055208D01*
X0026152Y0055208D01*
X0026152Y0055558D01*
X0020778Y0055558D01*
X0020778Y0057682D01*
X0023479Y0060383D01*
X0020778Y0063084D01*
X0020778Y0065208D01*
X0026152Y0065208D01*
X0026152Y0065558D01*
X0020778Y0065558D01*
X0020778Y0067682D01*
X0023479Y0070383D01*
X0020778Y0073084D01*
X0020778Y0075208D01*
X0026152Y0075208D01*
X0026152Y0075558D01*
X0020778Y0075558D01*
X0020778Y0077682D01*
X0023479Y0080383D01*
X0020778Y0083084D01*
X0020778Y0085208D01*
X0026152Y0085208D01*
X0026152Y0085558D01*
X0020778Y0085558D01*
X0020778Y0087682D01*
X0023479Y0090383D01*
X0020778Y0093084D01*
X0020778Y0095208D01*
X0026152Y0095208D01*
X0026152Y0095558D01*
X0020778Y0095558D01*
X0020778Y0097682D01*
X0023479Y0100383D01*
X0020778Y0103084D01*
X0020778Y0105208D01*
X0026152Y0105208D01*
X0026152Y0105558D01*
X0020778Y0105558D01*
X0020778Y0107682D01*
X0023762Y0110666D01*
X0021178Y0113249D01*
X0021178Y0117516D01*
X0023128Y0119466D01*
X0023128Y0121299D01*
X0021178Y0123249D01*
X0021178Y0127516D01*
X0024194Y0130533D01*
X0026007Y0130533D01*
X0030977Y0135502D01*
X0031877Y0136403D01*
X0033053Y0136890D01*
X0041146Y0136890D01*
X0044406Y0138655D01*
X0044406Y0140200D01*
X0045472Y0142773D01*
X0047441Y0144742D01*
X0048206Y0145059D01*
X0048206Y0155475D01*
X0047551Y0156130D01*
X0047551Y0155855D01*
X0042351Y0155855D01*
X0037151Y0155855D01*
X0037151Y0153701D01*
X0040197Y0150655D01*
X0042351Y0150655D01*
X0042351Y0155855D01*
X0042351Y0155855D01*
X0042351Y0155855D01*
X0037151Y0155855D01*
X0037151Y0158009D01*
X0040197Y0161055D01*
X0042351Y0161055D01*
X0042351Y0155855D01*
X0042351Y0150655D01*
X0044505Y0150655D01*
X0047551Y0153701D01*
X0047551Y0155855D01*
X0042351Y0155855D01*
X0042351Y0155855D01*
X0042351Y0155855D01*
X0042351Y0161055D01*
X0042626Y0161055D01*
X0042626Y0161055D01*
X0040363Y0161055D01*
X0037551Y0163867D01*
X0037551Y0166130D01*
X0029655Y0174025D01*
X0028733Y0173103D01*
X0026841Y0172319D01*
X0018492Y0172319D01*
X0016599Y0173103D01*
X0016443Y0173260D01*
X0016443Y0029493D01*
X0017990Y0031041D01*
X0021280Y0032404D01*
X0024840Y0032404D01*
X0028130Y0031041D01*
X0030647Y0028523D01*
X0032010Y0025234D01*
X0032010Y0021673D01*
X0030647Y0018384D01*
X0030390Y0018126D02*
X0387463Y0018126D01*
X0386801Y0019725D02*
X0031203Y0019725D01*
X0031865Y0021323D02*
X0210822Y0021323D01*
X0209223Y0022922D02*
X0032010Y0022922D01*
X0032010Y0024520D02*
X0051120Y0024520D01*
X0049452Y0026119D02*
X0041837Y0026119D01*
X0043522Y0027717D02*
X0048790Y0027717D01*
X0048697Y0029316D02*
X0044438Y0029316D01*
X0045020Y0030914D02*
X0048697Y0030914D01*
X0048697Y0032513D02*
X0045020Y0032513D01*
X0044770Y0034111D02*
X0048697Y0034111D01*
X0048697Y0035710D02*
X0044108Y0035710D01*
X0042726Y0037309D02*
X0049119Y0037309D01*
X0050206Y0038907D02*
X0041669Y0038907D01*
X0042077Y0040506D02*
X0059505Y0040506D01*
X0059505Y0038907D02*
X0057488Y0038907D01*
X0058575Y0037309D02*
X0059119Y0037309D01*
X0068575Y0037309D02*
X0068676Y0037309D01*
X0068505Y0038907D02*
X0069640Y0038907D01*
X0068505Y0040506D02*
X0072016Y0040506D01*
X0073672Y0040506D02*
X0074022Y0040506D01*
X0074022Y0038907D02*
X0073672Y0038907D01*
X0073672Y0037309D02*
X0074022Y0037309D01*
X0074022Y0035710D02*
X0073672Y0035710D01*
X0073672Y0034111D02*
X0074022Y0034111D01*
X0074022Y0032513D02*
X0073672Y0032513D01*
X0073672Y0030914D02*
X0074022Y0030914D01*
X0074022Y0029316D02*
X0073672Y0029316D01*
X0073672Y0027717D02*
X0074022Y0027717D01*
X0074022Y0026119D02*
X0073672Y0026119D01*
X0073672Y0024520D02*
X0074022Y0024520D01*
X0077172Y0024520D02*
X0080522Y0024520D01*
X0079068Y0026119D02*
X0078626Y0026119D01*
X0083672Y0026119D02*
X0084022Y0026119D01*
X0084022Y0027717D02*
X0083672Y0027717D01*
X0083672Y0029316D02*
X0084022Y0029316D01*
X0084022Y0030914D02*
X0083672Y0030914D01*
X0083672Y0032513D02*
X0084022Y0032513D01*
X0084022Y0034111D02*
X0083672Y0034111D01*
X0083672Y0035710D02*
X0084022Y0035710D01*
X0084022Y0037309D02*
X0083672Y0037309D01*
X0083672Y0038907D02*
X0084022Y0038907D01*
X0084022Y0040506D02*
X0083672Y0040506D01*
X0082016Y0040506D02*
X0075679Y0040506D01*
X0078054Y0038907D02*
X0079640Y0038907D01*
X0085679Y0040506D02*
X0089347Y0040506D01*
X0089347Y0038907D02*
X0088054Y0038907D01*
X0089019Y0037309D02*
X0089119Y0037309D01*
X0089804Y0042104D02*
X0070429Y0042104D01*
X0072893Y0043703D02*
X0090148Y0043703D01*
X0088549Y0045301D02*
X0074131Y0045301D01*
X0074793Y0046900D02*
X0086951Y0046900D01*
X0085352Y0048498D02*
X0074942Y0048498D01*
X0074919Y0050097D02*
X0083754Y0050097D01*
X0082155Y0051695D02*
X0074257Y0051695D01*
X0073462Y0053294D02*
X0073198Y0053294D01*
X0073028Y0054892D02*
X0071165Y0054892D01*
X0073028Y0056491D02*
X0041478Y0056491D01*
X0041478Y0054892D02*
X0064719Y0054892D01*
X0062685Y0053294D02*
X0042891Y0053294D01*
X0044489Y0051695D02*
X0061626Y0051695D01*
X0060964Y0050097D02*
X0046088Y0050097D01*
X0038155Y0045301D02*
X0016443Y0045301D01*
X0016443Y0043703D02*
X0034260Y0043703D01*
X0033360Y0042104D02*
X0016443Y0042104D01*
X0016443Y0040506D02*
X0033177Y0040506D01*
X0033584Y0038907D02*
X0016443Y0038907D01*
X0016443Y0037309D02*
X0033315Y0037309D01*
X0031933Y0035710D02*
X0016443Y0035710D01*
X0016443Y0034111D02*
X0031271Y0034111D01*
X0031020Y0032513D02*
X0016443Y0032513D01*
X0016443Y0030914D02*
X0017864Y0030914D01*
X0028256Y0030914D02*
X0031020Y0030914D01*
X0031603Y0029316D02*
X0029855Y0029316D01*
X0030981Y0027717D02*
X0032519Y0027717D01*
X0031643Y0026119D02*
X0034204Y0026119D01*
X0056575Y0024520D02*
X0061120Y0024520D01*
X0059452Y0026119D02*
X0058243Y0026119D01*
X0066575Y0024520D02*
X0070522Y0024520D01*
X0069068Y0026119D02*
X0068243Y0026119D01*
X0083672Y0024520D02*
X0084022Y0024520D01*
X0087172Y0024520D02*
X0091120Y0024520D01*
X0089452Y0026119D02*
X0088626Y0026119D01*
X0096575Y0024520D02*
X0207625Y0024520D01*
X0206026Y0026119D02*
X0098243Y0026119D01*
X0098905Y0027717D02*
X0122282Y0027717D01*
X0120684Y0029316D02*
X0098997Y0029316D01*
X0098997Y0030914D02*
X0120013Y0030914D01*
X0119603Y0032513D02*
X0098997Y0032513D01*
X0098997Y0034111D02*
X0119603Y0034111D01*
X0119467Y0035710D02*
X0098997Y0035710D01*
X0098575Y0037309D02*
X0117868Y0037309D01*
X0116270Y0038907D02*
X0099011Y0038907D01*
X0101034Y0040506D02*
X0112409Y0040506D01*
X0119198Y0045301D02*
X0146904Y0045301D01*
X0146606Y0045599D02*
X0149418Y0042787D01*
X0151681Y0042787D01*
X0154476Y0039993D01*
X0155652Y0039506D01*
X0160727Y0039506D01*
X0161596Y0038636D01*
X0163360Y0037906D01*
X0170870Y0037906D01*
X0172634Y0038636D01*
X0173984Y0039987D01*
X0174715Y0041751D01*
X0174715Y0043660D01*
X0173984Y0045424D01*
X0172634Y0046775D01*
X0170870Y0047505D01*
X0163360Y0047505D01*
X0161596Y0046775D01*
X0160727Y0045905D01*
X0157614Y0045905D01*
X0156206Y0047313D01*
X0156206Y0049576D01*
X0153395Y0052387D01*
X0149418Y0052387D01*
X0146606Y0049576D01*
X0146606Y0045599D01*
X0146606Y0046900D02*
X0119198Y0046900D01*
X0117992Y0048498D02*
X0146606Y0048498D01*
X0147127Y0050097D02*
X0116394Y0050097D01*
X0112403Y0050097D02*
X0101040Y0050097D01*
X0097049Y0050097D02*
X0096482Y0050097D01*
X0094883Y0051695D02*
X0148726Y0051695D01*
X0149418Y0052787D02*
X0153395Y0052787D01*
X0156206Y0055599D01*
X0156206Y0057862D01*
X0157850Y0059506D01*
X0160727Y0059506D01*
X0161596Y0058636D01*
X0163360Y0057906D01*
X0170870Y0057906D01*
X0172634Y0058636D01*
X0173984Y0059987D01*
X0174715Y0061751D01*
X0174715Y0063660D01*
X0173984Y0065424D01*
X0172634Y0066775D01*
X0170870Y0067505D01*
X0163360Y0067505D01*
X0161596Y0066775D01*
X0160727Y0065905D01*
X0155888Y0065905D01*
X0154712Y0065418D01*
X0151681Y0062387D01*
X0149418Y0062387D01*
X0146606Y0059576D01*
X0146606Y0055599D01*
X0149418Y0052787D01*
X0148912Y0053294D02*
X0093284Y0053294D01*
X0091686Y0054892D02*
X0147313Y0054892D01*
X0146606Y0056491D02*
X0091202Y0056491D01*
X0091202Y0058089D02*
X0146606Y0058089D01*
X0146718Y0059688D02*
X0091202Y0059688D01*
X0091202Y0061286D02*
X0148317Y0061286D01*
X0152178Y0062885D02*
X0090788Y0062885D01*
X0090217Y0069279D02*
X0160388Y0069279D01*
X0160349Y0069318D02*
X0160927Y0068739D01*
X0161590Y0068258D01*
X0162319Y0067886D01*
X0163097Y0067634D01*
X0163906Y0067506D01*
X0167115Y0067506D01*
X0170324Y0067506D01*
X0171133Y0067634D01*
X0171911Y0067886D01*
X0172640Y0068258D01*
X0173303Y0068739D01*
X0173881Y0069318D01*
X0174362Y0069980D01*
X0174734Y0070709D01*
X0174987Y0071488D01*
X0175115Y0072296D01*
X0175115Y0072705D01*
X0167115Y0072705D01*
X0167115Y0067506D01*
X0167115Y0072705D01*
X0167115Y0072705D01*
X0167115Y0072706D01*
X0167115Y0072706D01*
X0167115Y0077905D01*
X0163906Y0077905D01*
X0163097Y0077777D01*
X0162319Y0077525D01*
X0161590Y0077153D01*
X0160927Y0076672D01*
X0160349Y0076093D01*
X0159868Y0075431D01*
X0159496Y0074702D01*
X0159243Y0073923D01*
X0159115Y0073115D01*
X0159115Y0072706D01*
X0167115Y0072706D01*
X0167115Y0077905D01*
X0170324Y0077905D01*
X0171133Y0077777D01*
X0171911Y0077525D01*
X0172640Y0077153D01*
X0173303Y0076672D01*
X0173881Y0076093D01*
X0174362Y0075431D01*
X0174734Y0074702D01*
X0174987Y0073923D01*
X0175115Y0073115D01*
X0175115Y0072706D01*
X0167115Y0072706D01*
X0167115Y0072705D01*
X0159115Y0072705D01*
X0159115Y0072296D01*
X0159243Y0071488D01*
X0159496Y0070709D01*
X0159868Y0069980D01*
X0160349Y0069318D01*
X0159441Y0070877D02*
X0091202Y0070877D01*
X0091202Y0072476D02*
X0159115Y0072476D01*
X0159292Y0074074D02*
X0091202Y0074074D01*
X0091202Y0075673D02*
X0160043Y0075673D01*
X0161822Y0077271D02*
X0091202Y0077271D01*
X0091202Y0078870D02*
X0204457Y0078870D01*
X0206055Y0077271D02*
X0201435Y0077271D01*
X0202858Y0080468D02*
X0078957Y0080468D01*
X0081730Y0082067D02*
X0174534Y0082067D01*
X0174961Y0081639D02*
X0177115Y0081639D01*
X0179269Y0081639D01*
X0182315Y0084685D01*
X0182315Y0086839D01*
X0177115Y0086839D01*
X0177115Y0081639D01*
X0177115Y0086839D01*
X0177115Y0086839D01*
X0177115Y0086839D01*
X0171915Y0086839D01*
X0171915Y0084685D01*
X0174961Y0081639D01*
X0177115Y0082067D02*
X0177115Y0082067D01*
X0177115Y0083665D02*
X0177115Y0083665D01*
X0177115Y0085264D02*
X0177115Y0085264D01*
X0177115Y0086839D02*
X0177115Y0086839D01*
X0182315Y0086839D01*
X0182315Y0088993D01*
X0179269Y0092039D01*
X0177115Y0092039D01*
X0177115Y0086839D01*
X0171915Y0086839D01*
X0171915Y0088993D01*
X0174961Y0092039D01*
X0177115Y0092039D01*
X0177115Y0086839D01*
X0177115Y0086839D01*
X0177115Y0086862D02*
X0177115Y0086862D01*
X0177115Y0088461D02*
X0177115Y0088461D01*
X0177115Y0090059D02*
X0177115Y0090059D01*
X0177115Y0091658D02*
X0177115Y0091658D01*
X0179650Y0091658D02*
X0199781Y0091658D01*
X0199781Y0093256D02*
X0119139Y0093256D01*
X0119198Y0094855D02*
X0199781Y0094855D01*
X0199781Y0096453D02*
X0119198Y0096453D01*
X0118439Y0098052D02*
X0199781Y0098052D01*
X0199781Y0099650D02*
X0116840Y0099650D01*
X0111957Y0099650D02*
X0101486Y0099650D01*
X0103084Y0098052D02*
X0110358Y0098052D01*
X0109598Y0096453D02*
X0103844Y0096453D01*
X0103844Y0094855D02*
X0109424Y0094855D01*
X0107825Y0093256D02*
X0103785Y0093256D01*
X0102186Y0091658D02*
X0106227Y0091658D01*
X0104628Y0090059D02*
X0093266Y0090059D01*
X0094101Y0091658D02*
X0095902Y0091658D01*
X0096602Y0099650D02*
X0092195Y0099650D01*
X0093344Y0102847D02*
X0199781Y0102847D01*
X0199781Y0101249D02*
X0089190Y0101249D01*
X0086064Y0101249D02*
X0052152Y0101249D01*
X0051595Y0102847D02*
X0050554Y0102847D01*
X0050268Y0103924D02*
X0050268Y0103924D01*
X0049747Y0104446D02*
X0048955Y0104446D01*
X0048148Y0106044D02*
X0047357Y0106044D01*
X0046550Y0107643D02*
X0045758Y0107643D01*
X0044951Y0109242D02*
X0039752Y0109242D01*
X0039068Y0110840D02*
X0043353Y0110840D01*
X0049207Y0114037D02*
X0095732Y0114037D01*
X0094134Y0112439D02*
X0050805Y0112439D01*
X0052404Y0110840D02*
X0092535Y0110840D01*
X0090937Y0109242D02*
X0054002Y0109242D01*
X0054307Y0108937D02*
X0045148Y0118095D01*
X0043972Y0118583D01*
X0040411Y0118583D01*
X0038611Y0120383D01*
X0041478Y0123249D01*
X0041478Y0127516D01*
X0038504Y0130490D01*
X0041492Y0130490D01*
X0041656Y0130441D01*
X0042124Y0130490D01*
X0042594Y0130490D01*
X0042752Y0130555D01*
X0042922Y0130573D01*
X0043335Y0130797D01*
X0043770Y0130977D01*
X0043891Y0131098D01*
X0047346Y0132969D01*
X0047441Y0132874D01*
X0050014Y0131808D01*
X0052799Y0131808D01*
X0055371Y0132874D01*
X0057341Y0134843D01*
X0058406Y0137415D01*
X0058406Y0140200D01*
X0057341Y0142773D01*
X0055371Y0144742D01*
X0054606Y0145059D01*
X0054606Y0157437D01*
X0054119Y0158613D01*
X0047151Y0165581D01*
X0047151Y0167843D01*
X0044339Y0170655D01*
X0042077Y0170655D01*
X0032550Y0180182D01*
X0031374Y0180669D01*
X0030100Y0180669D01*
X0029899Y0180669D01*
X0028733Y0181835D01*
X0027203Y0182469D01*
X0028733Y0183103D01*
X0029663Y0184033D01*
X0034451Y0184033D01*
X0049480Y0169004D01*
X0049480Y0167135D01*
X0052292Y0164323D01*
X0054555Y0164323D01*
X0061986Y0156892D01*
X0061986Y0137384D01*
X0062473Y0136208D01*
X0072428Y0126253D01*
X0073604Y0125765D01*
X0074131Y0125765D01*
X0074448Y0125000D01*
X0076417Y0123031D01*
X0078990Y0121965D01*
X0081775Y0121965D01*
X0084348Y0123031D01*
X0086317Y0125000D01*
X0087383Y0127573D01*
X0087383Y0130358D01*
X0086947Y0131409D01*
X0090062Y0134820D01*
X0095773Y0134820D01*
X0092983Y0132031D01*
X0092983Y0129140D01*
X0100208Y0129140D01*
X0100208Y0128790D01*
X0100558Y0128790D01*
X0100558Y0129140D01*
X0107783Y0129140D01*
X0107783Y0132031D01*
X0104993Y0134820D01*
X0111690Y0134820D01*
X0112007Y0134055D01*
X0113977Y0132086D01*
X0115686Y0131378D01*
X0113762Y0131378D01*
X0112586Y0130891D01*
X0107783Y0126088D01*
X0107783Y0128790D01*
X0100558Y0128790D01*
X0100558Y0121565D01*
X0103260Y0121565D01*
X0090632Y0108937D01*
X0054307Y0108937D01*
X0047608Y0115636D02*
X0097331Y0115636D01*
X0098929Y0117234D02*
X0046010Y0117234D01*
X0040161Y0118833D02*
X0100528Y0118833D01*
X0102126Y0120431D02*
X0038659Y0120431D01*
X0040258Y0122030D02*
X0078835Y0122030D01*
X0081930Y0122030D02*
X0096853Y0122030D01*
X0097317Y0121565D02*
X0100208Y0121565D01*
X0100208Y0128790D01*
X0092983Y0128790D01*
X0092983Y0125900D01*
X0097317Y0121565D01*
X0095255Y0123628D02*
X0084945Y0123628D01*
X0086411Y0125227D02*
X0093656Y0125227D01*
X0092983Y0126825D02*
X0087073Y0126825D01*
X0087383Y0128424D02*
X0092983Y0128424D01*
X0092983Y0130022D02*
X0087383Y0130022D01*
X0087140Y0131621D02*
X0092983Y0131621D01*
X0094171Y0133219D02*
X0088600Y0133219D01*
X0090059Y0134818D02*
X0095770Y0134818D01*
X0100208Y0128424D02*
X0100558Y0128424D01*
X0100558Y0126825D02*
X0100208Y0126825D01*
X0100208Y0125227D02*
X0100558Y0125227D01*
X0100558Y0123628D02*
X0100208Y0123628D01*
X0100208Y0122030D02*
X0100558Y0122030D01*
X0106382Y0115636D02*
X0199781Y0115636D01*
X0199781Y0084234D01*
X0200268Y0083058D01*
X0218216Y0065110D01*
X0218216Y0064301D01*
X0218894Y0062665D01*
X0220145Y0061413D01*
X0221781Y0060736D01*
X0223551Y0060736D01*
X0225187Y0061413D01*
X0226439Y0062665D01*
X0227116Y0064301D01*
X0227116Y0066071D01*
X0226439Y0067707D01*
X0225187Y0068958D01*
X0223551Y0069636D01*
X0222742Y0069636D01*
X0206181Y0086196D01*
X0206181Y0115636D01*
X0206754Y0116208D01*
X0207431Y0117844D01*
X0207431Y0119614D01*
X0206754Y0121250D01*
X0205502Y0122502D01*
X0203866Y0123179D01*
X0202096Y0123179D01*
X0200460Y0122502D01*
X0199209Y0121250D01*
X0198531Y0119614D01*
X0198531Y0117844D01*
X0199209Y0116208D01*
X0199781Y0115636D01*
X0199781Y0114037D02*
X0104783Y0114037D01*
X0103184Y0112439D02*
X0199781Y0112439D01*
X0199781Y0110840D02*
X0101586Y0110840D01*
X0099987Y0109242D02*
X0199781Y0109242D01*
X0199781Y0107643D02*
X0098389Y0107643D01*
X0096790Y0106044D02*
X0199781Y0106044D01*
X0199781Y0104446D02*
X0095192Y0104446D01*
X0083058Y0099650D02*
X0053751Y0099650D01*
X0042850Y0091658D02*
X0039886Y0091658D01*
X0038934Y0090059D02*
X0044448Y0090059D01*
X0046047Y0088461D02*
X0042763Y0088461D01*
X0044361Y0086862D02*
X0047645Y0086862D01*
X0049244Y0085264D02*
X0045960Y0085264D01*
X0047558Y0083665D02*
X0050842Y0083665D01*
X0049157Y0082067D02*
X0072264Y0082067D01*
X0075037Y0080468D02*
X0050755Y0080468D01*
X0044422Y0074074D02*
X0041478Y0074074D01*
X0041478Y0075673D02*
X0042823Y0075673D01*
X0040828Y0072476D02*
X0046020Y0072476D01*
X0047619Y0070877D02*
X0040828Y0070877D01*
X0040828Y0069279D02*
X0074013Y0069279D01*
X0073442Y0062885D02*
X0041113Y0062885D01*
X0040828Y0061286D02*
X0073028Y0061286D01*
X0073028Y0059688D02*
X0040828Y0059688D01*
X0040904Y0058089D02*
X0073028Y0058089D01*
X0041478Y0064483D02*
X0153777Y0064483D01*
X0156434Y0058089D02*
X0162917Y0058089D01*
X0163097Y0057777D02*
X0162319Y0057525D01*
X0161590Y0057153D01*
X0160927Y0056672D01*
X0160349Y0056093D01*
X0159868Y0055431D01*
X0159496Y0054702D01*
X0159243Y0053923D01*
X0159115Y0053115D01*
X0159115Y0052706D01*
X0167115Y0052706D01*
X0167115Y0052706D01*
X0167115Y0057905D01*
X0163906Y0057905D01*
X0163097Y0057777D01*
X0160746Y0056491D02*
X0156206Y0056491D01*
X0155499Y0054892D02*
X0159593Y0054892D01*
X0159143Y0053294D02*
X0153901Y0053294D01*
X0154087Y0051695D02*
X0159210Y0051695D01*
X0159243Y0051488D02*
X0159115Y0052296D01*
X0159115Y0052705D01*
X0167115Y0052705D01*
X0167115Y0047506D01*
X0170324Y0047506D01*
X0171133Y0047634D01*
X0171911Y0047886D01*
X0172640Y0048258D01*
X0173303Y0048739D01*
X0173881Y0049318D01*
X0174362Y0049980D01*
X0174734Y0050709D01*
X0174987Y0051488D01*
X0175115Y0052296D01*
X0175115Y0052705D01*
X0167115Y0052705D01*
X0167115Y0052705D01*
X0167115Y0047506D01*
X0163906Y0047506D01*
X0163097Y0047634D01*
X0162319Y0047886D01*
X0161590Y0048258D01*
X0160927Y0048739D01*
X0160349Y0049318D01*
X0159868Y0049980D01*
X0159496Y0050709D01*
X0159243Y0051488D01*
X0159808Y0050097D02*
X0155685Y0050097D01*
X0156206Y0048498D02*
X0161259Y0048498D01*
X0161897Y0046900D02*
X0156620Y0046900D01*
X0152364Y0042104D02*
X0122124Y0042104D01*
X0123722Y0040506D02*
X0153963Y0040506D01*
X0148503Y0043703D02*
X0120525Y0043703D01*
X0130892Y0038907D02*
X0161325Y0038907D01*
X0172905Y0038907D02*
X0181626Y0038907D01*
X0183224Y0040506D02*
X0174199Y0040506D01*
X0174715Y0042104D02*
X0184427Y0042104D01*
X0184427Y0043703D02*
X0174697Y0043703D01*
X0174035Y0045301D02*
X0184427Y0045301D01*
X0184427Y0046900D02*
X0172333Y0046900D01*
X0172971Y0048498D02*
X0184427Y0048498D01*
X0184427Y0050097D02*
X0174422Y0050097D01*
X0175020Y0051695D02*
X0184427Y0051695D01*
X0184427Y0053294D02*
X0175087Y0053294D01*
X0175115Y0053115D02*
X0174987Y0053923D01*
X0174734Y0054702D01*
X0174362Y0055431D01*
X0173881Y0056093D01*
X0173303Y0056672D01*
X0172640Y0057153D01*
X0171911Y0057525D01*
X0171133Y0057777D01*
X0170324Y0057905D01*
X0167115Y0057905D01*
X0167115Y0052706D01*
X0175115Y0052706D01*
X0175115Y0053115D01*
X0174637Y0054892D02*
X0184427Y0054892D01*
X0184427Y0056491D02*
X0173484Y0056491D01*
X0171313Y0058089D02*
X0184427Y0058089D01*
X0184427Y0059688D02*
X0173685Y0059688D01*
X0174523Y0061286D02*
X0184427Y0061286D01*
X0184427Y0062885D02*
X0174715Y0062885D01*
X0174374Y0064483D02*
X0184427Y0064483D01*
X0184427Y0066082D02*
X0173327Y0066082D01*
X0171276Y0067680D02*
X0184427Y0067680D01*
X0184427Y0069279D02*
X0173842Y0069279D01*
X0174789Y0070877D02*
X0184727Y0070877D01*
X0186061Y0072476D02*
X0175115Y0072476D01*
X0174938Y0074074D02*
X0187659Y0074074D01*
X0189673Y0075673D02*
X0174187Y0075673D01*
X0172408Y0077271D02*
X0192795Y0077271D01*
X0189103Y0082039D02*
X0191915Y0084851D01*
X0191915Y0088828D01*
X0189103Y0091639D01*
X0185127Y0091639D01*
X0182315Y0088828D01*
X0182315Y0084851D01*
X0185127Y0082039D01*
X0189103Y0082039D01*
X0189131Y0082067D02*
X0201260Y0082067D01*
X0200017Y0083665D02*
X0190729Y0083665D01*
X0191915Y0085264D02*
X0199781Y0085264D01*
X0199781Y0086862D02*
X0191915Y0086862D01*
X0191915Y0088461D02*
X0199781Y0088461D01*
X0199781Y0090059D02*
X0190683Y0090059D01*
X0183547Y0090059D02*
X0181249Y0090059D01*
X0182315Y0088461D02*
X0182315Y0088461D01*
X0182315Y0086862D02*
X0182315Y0086862D01*
X0182315Y0085264D02*
X0182315Y0085264D01*
X0181295Y0083665D02*
X0183501Y0083665D01*
X0185099Y0082067D02*
X0179696Y0082067D01*
X0172935Y0083665D02*
X0107285Y0083665D01*
X0108884Y0085264D02*
X0171915Y0085264D01*
X0171915Y0086862D02*
X0110482Y0086862D01*
X0112081Y0088461D02*
X0171915Y0088461D01*
X0172981Y0090059D02*
X0113679Y0090059D01*
X0117541Y0091658D02*
X0174580Y0091658D01*
X0167115Y0077271D02*
X0167115Y0077271D01*
X0167115Y0075673D02*
X0167115Y0075673D01*
X0167115Y0074074D02*
X0167115Y0074074D01*
X0167115Y0072476D02*
X0167115Y0072476D01*
X0167115Y0070877D02*
X0167115Y0070877D01*
X0167115Y0069279D02*
X0167115Y0069279D01*
X0167115Y0067680D02*
X0167115Y0067680D01*
X0162954Y0067680D02*
X0041313Y0067680D01*
X0041478Y0066082D02*
X0160903Y0066082D01*
X0167115Y0056491D02*
X0167115Y0056491D01*
X0167115Y0054892D02*
X0167115Y0054892D01*
X0167115Y0053294D02*
X0167115Y0053294D01*
X0167115Y0052706D02*
X0167115Y0052705D01*
X0167115Y0052706D01*
X0167115Y0051695D02*
X0167115Y0051695D01*
X0167115Y0050097D02*
X0167115Y0050097D01*
X0167115Y0048498D02*
X0167115Y0048498D01*
X0180027Y0037309D02*
X0132490Y0037309D01*
X0132523Y0029316D02*
X0203718Y0029316D01*
X0203718Y0030914D02*
X0182684Y0030914D01*
X0184283Y0032513D02*
X0203718Y0032513D01*
X0203718Y0034111D02*
X0185881Y0034111D01*
X0187480Y0035710D02*
X0203718Y0035710D01*
X0203718Y0037309D02*
X0189078Y0037309D01*
X0190479Y0038907D02*
X0191325Y0038907D01*
X0190827Y0046006D02*
X0190827Y0048840D01*
X0190927Y0048739D01*
X0191590Y0048258D01*
X0192319Y0047886D01*
X0193097Y0047634D01*
X0193906Y0047506D01*
X0197115Y0047506D01*
X0200324Y0047506D01*
X0201133Y0047634D01*
X0201911Y0047886D01*
X0202640Y0048258D01*
X0203303Y0048739D01*
X0203718Y0049155D01*
X0203718Y0048007D01*
X0202529Y0046818D01*
X0200870Y0047505D01*
X0193360Y0047505D01*
X0191596Y0046775D01*
X0190827Y0046006D01*
X0190827Y0046900D02*
X0191897Y0046900D01*
X0191259Y0048498D02*
X0190827Y0048498D01*
X0197115Y0048498D02*
X0197115Y0048498D01*
X0197115Y0047506D02*
X0197115Y0052705D01*
X0197115Y0052705D01*
X0197115Y0047506D01*
X0197115Y0050097D02*
X0197115Y0050097D01*
X0197115Y0051695D02*
X0197115Y0051695D01*
X0197115Y0052706D02*
X0197115Y0057905D01*
X0193906Y0057905D01*
X0193097Y0057777D01*
X0192319Y0057525D01*
X0191590Y0057153D01*
X0190927Y0056672D01*
X0190827Y0056571D01*
X0190827Y0059405D01*
X0191596Y0058636D01*
X0193360Y0057906D01*
X0200870Y0057906D01*
X0202634Y0058636D01*
X0202638Y0058641D01*
X0203718Y0057561D01*
X0203718Y0056256D01*
X0203303Y0056672D01*
X0202640Y0057153D01*
X0201911Y0057525D01*
X0201133Y0057777D01*
X0200324Y0057905D01*
X0197115Y0057905D01*
X0197115Y0052706D01*
X0197115Y0052706D01*
X0197115Y0053294D02*
X0197115Y0053294D01*
X0197115Y0054892D02*
X0197115Y0054892D01*
X0197115Y0056491D02*
X0197115Y0056491D01*
X0201313Y0058089D02*
X0203190Y0058089D01*
X0203484Y0056491D02*
X0203718Y0056491D01*
X0210118Y0056491D02*
X0215812Y0056491D01*
X0214214Y0058089D02*
X0210118Y0058089D01*
X0210118Y0059523D02*
X0209631Y0060699D01*
X0208731Y0061599D01*
X0204912Y0065418D01*
X0203736Y0065905D01*
X0203503Y0065905D01*
X0202634Y0066775D01*
X0200870Y0067505D01*
X0193360Y0067505D01*
X0191596Y0066775D01*
X0190827Y0066006D01*
X0190827Y0068191D01*
X0191434Y0068798D01*
X0191596Y0068636D01*
X0193360Y0067906D01*
X0200870Y0067906D01*
X0202634Y0068636D01*
X0203150Y0069153D01*
X0219665Y0052638D01*
X0217699Y0052638D01*
X0216523Y0052151D01*
X0215898Y0051526D01*
X0215088Y0051526D01*
X0213452Y0050848D01*
X0212201Y0049596D01*
X0211523Y0047961D01*
X0211523Y0046190D01*
X0212201Y0044555D01*
X0213452Y0043303D01*
X0215088Y0042626D01*
X0216858Y0042626D01*
X0218494Y0043303D01*
X0219746Y0044555D01*
X0220423Y0046190D01*
X0220423Y0046238D01*
X0243256Y0046238D01*
X0242980Y0046124D01*
X0241728Y0044872D01*
X0241051Y0043236D01*
X0241051Y0041466D01*
X0241728Y0039830D01*
X0242980Y0038579D01*
X0244616Y0037901D01*
X0246386Y0037901D01*
X0248022Y0038579D01*
X0248594Y0039151D01*
X0292408Y0039151D01*
X0292980Y0038579D01*
X0294616Y0037901D01*
X0296386Y0037901D01*
X0298022Y0038579D01*
X0299273Y0039830D01*
X0299951Y0041466D01*
X0299951Y0043236D01*
X0299273Y0044872D01*
X0298022Y0046124D01*
X0296942Y0046571D01*
X0297313Y0046725D01*
X0298214Y0047625D01*
X0306875Y0056287D01*
X0307362Y0057463D01*
X0307362Y0098531D01*
X0308197Y0098531D01*
X0309833Y0099209D01*
X0310411Y0099787D01*
X0310411Y0094864D01*
X0310898Y0093688D01*
X0311448Y0093139D01*
X0310898Y0092589D01*
X0310411Y0091413D01*
X0310411Y0050965D01*
X0309646Y0050648D01*
X0307677Y0048679D01*
X0306611Y0046106D01*
X0306611Y0043321D01*
X0306953Y0042496D01*
X0291795Y0027047D01*
X0214149Y0027047D01*
X0210118Y0031078D01*
X0210118Y0059523D01*
X0210050Y0059688D02*
X0212615Y0059688D01*
X0211017Y0061286D02*
X0209044Y0061286D01*
X0209418Y0062885D02*
X0207446Y0062885D01*
X0207820Y0064483D02*
X0205847Y0064483D01*
X0206221Y0066082D02*
X0203327Y0066082D01*
X0204623Y0067680D02*
X0190827Y0067680D01*
X0190827Y0066082D02*
X0190903Y0066082D01*
X0190827Y0058089D02*
X0192917Y0058089D01*
X0202971Y0048498D02*
X0203718Y0048498D01*
X0202610Y0046900D02*
X0202333Y0046900D01*
X0210118Y0046900D02*
X0211523Y0046900D01*
X0211746Y0048498D02*
X0210118Y0048498D01*
X0210118Y0050097D02*
X0212701Y0050097D01*
X0210118Y0051695D02*
X0216067Y0051695D01*
X0219009Y0053294D02*
X0210118Y0053294D01*
X0210118Y0054892D02*
X0217411Y0054892D01*
X0221666Y0059688D02*
X0234662Y0059688D01*
X0234914Y0059436D02*
X0234914Y0059436D01*
X0236893Y0058089D02*
X0223265Y0058089D01*
X0224880Y0061286D02*
X0233064Y0061286D01*
X0231465Y0062885D02*
X0226530Y0062885D01*
X0227116Y0064483D02*
X0229867Y0064483D01*
X0228268Y0066082D02*
X0227112Y0066082D01*
X0226670Y0067680D02*
X0226450Y0067680D01*
X0225071Y0069279D02*
X0224413Y0069279D01*
X0223473Y0070877D02*
X0221500Y0070877D01*
X0221874Y0072476D02*
X0219902Y0072476D01*
X0220779Y0074074D02*
X0218303Y0074074D01*
X0216705Y0075673D02*
X0220647Y0075673D01*
X0220647Y0077271D02*
X0215106Y0077271D01*
X0213508Y0078870D02*
X0220501Y0078870D01*
X0219047Y0080468D02*
X0211909Y0080468D01*
X0210311Y0082067D02*
X0219047Y0082067D01*
X0218165Y0083665D02*
X0208712Y0083665D01*
X0207114Y0085264D02*
X0216567Y0085264D01*
X0214968Y0086862D02*
X0206181Y0086862D01*
X0206181Y0088461D02*
X0213370Y0088461D01*
X0211771Y0090059D02*
X0206181Y0090059D01*
X0206181Y0091658D02*
X0210173Y0091658D01*
X0209013Y0093256D02*
X0206181Y0093256D01*
X0206181Y0094855D02*
X0208836Y0094855D01*
X0208836Y0096453D02*
X0206181Y0096453D01*
X0206181Y0098052D02*
X0208836Y0098052D01*
X0208836Y0099650D02*
X0206181Y0099650D01*
X0206181Y0101249D02*
X0208836Y0101249D01*
X0208836Y0102847D02*
X0206181Y0102847D01*
X0206181Y0104446D02*
X0208836Y0104446D01*
X0208836Y0106044D02*
X0206181Y0106044D01*
X0206181Y0107643D02*
X0208836Y0107643D01*
X0208836Y0109242D02*
X0206181Y0109242D01*
X0206181Y0110840D02*
X0208836Y0110840D01*
X0208836Y0112439D02*
X0206181Y0112439D01*
X0206181Y0114037D02*
X0208836Y0114037D01*
X0208836Y0115636D02*
X0206181Y0115636D01*
X0207178Y0117234D02*
X0208165Y0117234D01*
X0207586Y0118833D02*
X0207431Y0118833D01*
X0207598Y0120431D02*
X0207093Y0120431D01*
X0205974Y0122030D02*
X0208261Y0122030D01*
X0210334Y0123628D02*
X0197701Y0123628D01*
X0195800Y0122030D02*
X0199988Y0122030D01*
X0198869Y0120431D02*
X0111177Y0120431D01*
X0109579Y0118833D02*
X0198531Y0118833D01*
X0198784Y0117234D02*
X0107980Y0117234D01*
X0112776Y0122030D02*
X0188903Y0122030D01*
X0187002Y0123628D02*
X0114374Y0123628D01*
X0110119Y0128424D02*
X0107783Y0128424D01*
X0107783Y0130022D02*
X0111717Y0130022D01*
X0112844Y0133219D02*
X0106594Y0133219D01*
X0107783Y0131621D02*
X0115100Y0131621D01*
X0111692Y0134818D02*
X0104995Y0134818D01*
X0107783Y0126825D02*
X0108520Y0126825D01*
X0120783Y0131621D02*
X0186200Y0131621D01*
X0187493Y0133219D02*
X0123040Y0133219D01*
X0124192Y0134818D02*
X0126758Y0134818D01*
X0133929Y0134818D02*
X0176758Y0134818D01*
X0175543Y0136032D02*
X0178355Y0133220D01*
X0182332Y0133220D01*
X0185143Y0136032D01*
X0185143Y0140009D01*
X0182332Y0142820D01*
X0178355Y0142820D01*
X0175543Y0140009D01*
X0175543Y0136032D01*
X0175543Y0136416D02*
X0135143Y0136416D01*
X0135143Y0138015D02*
X0175543Y0138015D01*
X0175543Y0139613D02*
X0135143Y0139613D01*
X0133940Y0141212D02*
X0176746Y0141212D01*
X0178345Y0142810D02*
X0132342Y0142810D01*
X0128345Y0142810D02*
X0123051Y0142810D01*
X0120811Y0144409D02*
X0219047Y0144409D01*
X0219047Y0142810D02*
X0182342Y0142810D01*
X0183940Y0141212D02*
X0219047Y0141212D01*
X0220388Y0139613D02*
X0185143Y0139613D01*
X0185143Y0138015D02*
X0264592Y0138015D01*
X0262993Y0136416D02*
X0185143Y0136416D01*
X0183929Y0134818D02*
X0190089Y0134818D01*
X0194613Y0134818D02*
X0261395Y0134818D01*
X0259796Y0133219D02*
X0197209Y0133219D01*
X0198502Y0131621D02*
X0258198Y0131621D01*
X0262466Y0126825D02*
X0280883Y0126825D01*
X0280883Y0125227D02*
X0260530Y0125227D01*
X0264051Y0128424D02*
X0280883Y0128424D01*
X0280883Y0130022D02*
X0265650Y0130022D01*
X0267248Y0131621D02*
X0280883Y0131621D01*
X0280883Y0133219D02*
X0268847Y0133219D01*
X0270446Y0134818D02*
X0280883Y0134818D01*
X0280883Y0136416D02*
X0272044Y0136416D01*
X0273643Y0138015D02*
X0280883Y0138015D01*
X0280883Y0139613D02*
X0275241Y0139613D01*
X0276840Y0141212D02*
X0280883Y0141212D01*
X0280883Y0142810D02*
X0278438Y0142810D01*
X0280037Y0144409D02*
X0280883Y0144409D01*
X0275781Y0149204D02*
X0068386Y0149204D01*
X0068386Y0147606D02*
X0221723Y0147606D01*
X0220125Y0146007D02*
X0068386Y0146007D01*
X0068386Y0144409D02*
X0115073Y0144409D01*
X0112832Y0142810D02*
X0068386Y0142810D01*
X0068386Y0141212D02*
X0087993Y0141212D01*
X0085771Y0139613D02*
X0068386Y0139613D01*
X0069717Y0138015D02*
X0084312Y0138015D01*
X0082852Y0136416D02*
X0071316Y0136416D01*
X0072914Y0134818D02*
X0076336Y0134818D01*
X0074737Y0133219D02*
X0074513Y0133219D01*
X0070257Y0128424D02*
X0040570Y0128424D01*
X0041478Y0126825D02*
X0071856Y0126825D01*
X0074355Y0125227D02*
X0041478Y0125227D01*
X0041478Y0123628D02*
X0075820Y0123628D01*
X0068659Y0130022D02*
X0038971Y0130022D01*
X0044856Y0131621D02*
X0067060Y0131621D01*
X0065462Y0133219D02*
X0055717Y0133219D01*
X0057316Y0134818D02*
X0063863Y0134818D01*
X0062387Y0136416D02*
X0057992Y0136416D01*
X0058406Y0138015D02*
X0061986Y0138015D01*
X0061986Y0139613D02*
X0058406Y0139613D01*
X0057987Y0141212D02*
X0061986Y0141212D01*
X0061986Y0142810D02*
X0057303Y0142810D01*
X0055705Y0144409D02*
X0061986Y0144409D01*
X0061986Y0146007D02*
X0054606Y0146007D01*
X0054606Y0147606D02*
X0061986Y0147606D01*
X0061986Y0149204D02*
X0054606Y0149204D01*
X0054606Y0150803D02*
X0061986Y0150803D01*
X0061986Y0152401D02*
X0054606Y0152401D01*
X0054606Y0154000D02*
X0061986Y0154000D01*
X0061986Y0155598D02*
X0054606Y0155598D01*
X0054606Y0157197D02*
X0061681Y0157197D01*
X0060082Y0158795D02*
X0053936Y0158795D01*
X0052338Y0160394D02*
X0058484Y0160394D01*
X0056885Y0161992D02*
X0050739Y0161992D01*
X0049141Y0163591D02*
X0055287Y0163591D01*
X0051426Y0165189D02*
X0047542Y0165189D01*
X0047151Y0166788D02*
X0049827Y0166788D01*
X0049480Y0168386D02*
X0046608Y0168386D01*
X0045010Y0169985D02*
X0048499Y0169985D01*
X0046901Y0171583D02*
X0041148Y0171583D01*
X0039550Y0173182D02*
X0045302Y0173182D01*
X0043703Y0174780D02*
X0037951Y0174780D01*
X0036353Y0176379D02*
X0042105Y0176379D01*
X0040506Y0177977D02*
X0034754Y0177977D01*
X0033156Y0179576D02*
X0038908Y0179576D01*
X0037309Y0181175D02*
X0029394Y0181175D01*
X0027936Y0182773D02*
X0035711Y0182773D01*
X0041565Y0185970D02*
X0049049Y0185970D01*
X0049480Y0184372D02*
X0043163Y0184372D01*
X0044762Y0182773D02*
X0049984Y0182773D01*
X0051582Y0181175D02*
X0046360Y0181175D01*
X0047959Y0179576D02*
X0055325Y0179576D01*
X0056924Y0177977D02*
X0049557Y0177977D01*
X0051156Y0176379D02*
X0058522Y0176379D01*
X0057009Y0173182D02*
X0060986Y0173182D01*
X0059387Y0171583D02*
X0058608Y0171583D01*
X0059080Y0169985D02*
X0059080Y0169985D01*
X0064280Y0169985D02*
X0064280Y0169985D01*
X0064280Y0169123D02*
X0064280Y0169123D01*
X0064280Y0163923D01*
X0066434Y0163923D01*
X0069480Y0166969D01*
X0069480Y0169123D01*
X0064280Y0169123D01*
X0064280Y0168386D02*
X0064280Y0168386D01*
X0064280Y0166788D02*
X0064280Y0166788D01*
X0064280Y0165189D02*
X0064280Y0165189D01*
X0064338Y0163591D02*
X0176553Y0163591D01*
X0176553Y0165189D02*
X0103765Y0165189D01*
X0105363Y0166788D02*
X0176553Y0166788D01*
X0176553Y0168386D02*
X0106962Y0168386D01*
X0107783Y0169985D02*
X0176553Y0169985D01*
X0176553Y0171583D02*
X0107783Y0171583D01*
X0107783Y0173182D02*
X0176553Y0173182D01*
X0176553Y0174780D02*
X0120034Y0174780D01*
X0122499Y0176379D02*
X0176553Y0176379D01*
X0176511Y0177977D02*
X0133388Y0177977D01*
X0134750Y0179576D02*
X0175150Y0179576D01*
X0175150Y0181175D02*
X0134750Y0181175D01*
X0134750Y0182773D02*
X0175150Y0182773D01*
X0176205Y0184372D02*
X0133694Y0184372D01*
X0132095Y0185970D02*
X0177804Y0185970D01*
X0182095Y0185970D02*
X0190726Y0185970D01*
X0190726Y0184372D02*
X0183694Y0184372D01*
X0184750Y0182773D02*
X0190726Y0182773D01*
X0190726Y0181175D02*
X0184750Y0181175D01*
X0184750Y0179576D02*
X0190726Y0179576D01*
X0190726Y0177977D02*
X0183388Y0177977D01*
X0182953Y0176379D02*
X0190726Y0176379D01*
X0190726Y0174780D02*
X0182953Y0174780D01*
X0182953Y0173182D02*
X0190726Y0173182D01*
X0190726Y0171583D02*
X0182953Y0171583D01*
X0182953Y0169985D02*
X0190726Y0169985D01*
X0190767Y0168386D02*
X0182953Y0168386D01*
X0182953Y0166788D02*
X0191735Y0166788D01*
X0193334Y0165189D02*
X0182953Y0165189D01*
X0184298Y0163591D02*
X0194932Y0163591D01*
X0196531Y0161992D02*
X0185897Y0161992D01*
X0187495Y0160394D02*
X0198129Y0160394D01*
X0199728Y0158795D02*
X0189094Y0158795D01*
X0190692Y0157197D02*
X0201550Y0157197D01*
X0203983Y0163591D02*
X0220779Y0163591D01*
X0224443Y0165189D02*
X0202385Y0165189D01*
X0200786Y0166788D02*
X0226042Y0166788D01*
X0227640Y0168386D02*
X0199188Y0168386D01*
X0197589Y0169985D02*
X0229239Y0169985D01*
X0230837Y0171583D02*
X0197126Y0171583D01*
X0197126Y0173182D02*
X0232436Y0173182D01*
X0234035Y0174780D02*
X0197126Y0174780D01*
X0197126Y0176379D02*
X0235633Y0176379D01*
X0237232Y0177977D02*
X0197126Y0177977D01*
X0197126Y0179576D02*
X0238830Y0179576D01*
X0240429Y0181175D02*
X0197126Y0181175D01*
X0197126Y0182773D02*
X0242462Y0182773D01*
X0257915Y0190766D02*
X0197126Y0190766D01*
X0197126Y0192364D02*
X0256317Y0192364D01*
X0254718Y0193963D02*
X0197126Y0193963D01*
X0197126Y0195561D02*
X0253120Y0195561D01*
X0251521Y0197160D02*
X0197126Y0197160D01*
X0197126Y0198758D02*
X0249923Y0198758D01*
X0248324Y0200357D02*
X0197126Y0200357D01*
X0197126Y0201955D02*
X0246726Y0201955D01*
X0245127Y0203554D02*
X0197126Y0203554D01*
X0197126Y0205152D02*
X0221778Y0205152D01*
X0220179Y0206751D02*
X0197126Y0206751D01*
X0197126Y0208349D02*
X0219047Y0208349D01*
X0219047Y0209948D02*
X0197126Y0209948D01*
X0197022Y0211546D02*
X0219047Y0211546D01*
X0220333Y0213145D02*
X0195965Y0213145D01*
X0194366Y0214743D02*
X0244371Y0214743D01*
X0240509Y0216342D02*
X0226476Y0216342D01*
X0221218Y0216342D02*
X0192768Y0216342D01*
X0191169Y0217940D02*
X0219620Y0217940D01*
X0219047Y0219539D02*
X0189571Y0219539D01*
X0187972Y0221137D02*
X0219047Y0221137D01*
X0219294Y0222736D02*
X0186374Y0222736D01*
X0184775Y0224334D02*
X0220893Y0224334D01*
X0226802Y0224334D02*
X0240184Y0224334D01*
X0246093Y0224334D02*
X0259475Y0224334D01*
X0259624Y0225933D02*
X0184750Y0225933D01*
X0183841Y0227531D02*
X0259624Y0227531D01*
X0259624Y0229130D02*
X0182243Y0229130D01*
X0177657Y0229130D02*
X0132243Y0229130D01*
X0133841Y0227531D02*
X0176058Y0227531D01*
X0175150Y0225933D02*
X0134750Y0225933D01*
X0134750Y0224334D02*
X0175150Y0224334D01*
X0175150Y0222736D02*
X0134750Y0222736D01*
X0133240Y0221137D02*
X0176659Y0221137D01*
X0180520Y0219539D02*
X0122352Y0219539D01*
X0123676Y0221137D02*
X0126659Y0221137D01*
X0119678Y0217940D02*
X0182118Y0217940D01*
X0183717Y0216342D02*
X0107783Y0216342D01*
X0107783Y0217940D02*
X0115418Y0217940D01*
X0112744Y0219539D02*
X0106889Y0219539D01*
X0105290Y0221137D02*
X0111420Y0221137D01*
X0107783Y0214743D02*
X0185316Y0214743D01*
X0186914Y0213145D02*
X0107783Y0213145D01*
X0106815Y0211546D02*
X0188513Y0211546D01*
X0190111Y0209948D02*
X0105216Y0209948D01*
X0103618Y0208349D02*
X0190726Y0208349D01*
X0190726Y0206751D02*
X0076237Y0206751D01*
X0077835Y0208349D02*
X0097148Y0208349D01*
X0095549Y0209948D02*
X0084650Y0209948D01*
X0086249Y0211546D02*
X0093951Y0211546D01*
X0092983Y0213145D02*
X0086951Y0213145D01*
X0087383Y0214743D02*
X0092983Y0214743D01*
X0092983Y0216342D02*
X0087383Y0216342D01*
X0087269Y0217940D02*
X0092983Y0217940D01*
X0093877Y0219539D02*
X0088867Y0219539D01*
X0090466Y0221137D02*
X0095475Y0221137D01*
X0100208Y0214743D02*
X0100558Y0214743D01*
X0100558Y0213145D02*
X0100208Y0213145D01*
X0100208Y0211546D02*
X0100558Y0211546D01*
X0100558Y0209948D02*
X0100208Y0209948D01*
X0100208Y0208349D02*
X0100558Y0208349D01*
X0084612Y0224334D02*
X0060512Y0224334D01*
X0060512Y0222736D02*
X0062114Y0222736D01*
X0064280Y0222736D02*
X0064280Y0222736D01*
X0064280Y0222748D02*
X0064280Y0217548D01*
X0064280Y0217548D01*
X0064280Y0217548D01*
X0064280Y0212348D01*
X0066434Y0212348D01*
X0069480Y0215394D01*
X0069480Y0217548D01*
X0064280Y0217548D01*
X0069480Y0217548D01*
X0069480Y0219702D01*
X0066434Y0222748D01*
X0064280Y0222748D01*
X0064280Y0221137D02*
X0064280Y0221137D01*
X0064280Y0219539D02*
X0064280Y0219539D01*
X0064280Y0217940D02*
X0064280Y0217940D01*
X0064280Y0217548D02*
X0064280Y0217548D01*
X0064280Y0216342D02*
X0064280Y0216342D01*
X0064280Y0214743D02*
X0064280Y0214743D01*
X0064280Y0213145D02*
X0064280Y0213145D01*
X0061330Y0213145D02*
X0056665Y0213145D01*
X0058264Y0214743D02*
X0059731Y0214743D01*
X0059080Y0216342D02*
X0059080Y0216342D01*
X0059080Y0217940D02*
X0059080Y0217940D01*
X0060305Y0221137D02*
X0060516Y0221137D01*
X0066446Y0222736D02*
X0083013Y0222736D01*
X0086211Y0225933D02*
X0060512Y0225933D01*
X0060512Y0227531D02*
X0088069Y0227531D01*
X0076041Y0221137D02*
X0068045Y0221137D01*
X0069480Y0219539D02*
X0074446Y0219539D01*
X0073784Y0217940D02*
X0069480Y0217940D01*
X0069480Y0216342D02*
X0073383Y0216342D01*
X0073383Y0214743D02*
X0068829Y0214743D01*
X0067231Y0213145D02*
X0073580Y0213145D01*
X0067888Y0205152D02*
X0190726Y0205152D01*
X0190726Y0203554D02*
X0069480Y0203554D01*
X0069480Y0201955D02*
X0190726Y0201955D01*
X0190726Y0200357D02*
X0069480Y0200357D01*
X0069480Y0201406D02*
X0069480Y0199252D01*
X0066434Y0196206D01*
X0064280Y0196206D01*
X0064280Y0201406D01*
X0064280Y0201406D01*
X0069480Y0201406D01*
X0068986Y0198758D02*
X0190726Y0198758D01*
X0190726Y0197160D02*
X0067388Y0197160D01*
X0064280Y0197160D02*
X0064280Y0197160D01*
X0064280Y0198758D02*
X0064280Y0198758D01*
X0064280Y0200357D02*
X0064280Y0200357D01*
X0061173Y0197160D02*
X0056822Y0197160D01*
X0058420Y0198758D02*
X0059575Y0198758D01*
X0059080Y0200357D02*
X0059080Y0200357D01*
X0051739Y0197160D02*
X0046911Y0197160D01*
X0046773Y0198758D02*
X0045312Y0198758D01*
X0045175Y0200357D02*
X0043467Y0200357D01*
X0043576Y0201955D02*
X0028444Y0201955D01*
X0029184Y0203554D02*
X0041978Y0203554D01*
X0046233Y0208349D02*
X0056698Y0208349D01*
X0058296Y0209948D02*
X0044634Y0209948D01*
X0047831Y0206751D02*
X0055099Y0206751D01*
X0051238Y0205152D02*
X0049430Y0205152D01*
X0051895Y0213145D02*
X0028775Y0213145D01*
X0029022Y0211546D02*
X0059895Y0211546D01*
X0051081Y0221137D02*
X0029431Y0221137D01*
X0016443Y0222736D02*
X0053250Y0222736D01*
X0054112Y0224334D02*
X0016443Y0224334D01*
X0016443Y0225933D02*
X0054112Y0225933D01*
X0054112Y0227531D02*
X0016443Y0227531D01*
X0016443Y0229130D02*
X0054112Y0229130D01*
X0054112Y0230728D02*
X0016443Y0230728D01*
X0016443Y0232327D02*
X0054112Y0232327D01*
X0054112Y0233925D02*
X0016443Y0233925D01*
X0016443Y0235524D02*
X0054112Y0235524D01*
X0054389Y0237122D02*
X0016443Y0237122D01*
X0016443Y0238721D02*
X0055692Y0238721D01*
X0057290Y0240319D02*
X0016443Y0240319D01*
X0016443Y0241918D02*
X0058889Y0241918D01*
X0060487Y0243516D02*
X0016443Y0243516D01*
X0016443Y0245115D02*
X0062086Y0245115D01*
X0063684Y0246713D02*
X0016443Y0246713D01*
X0016443Y0248312D02*
X0065283Y0248312D01*
X0066881Y0249911D02*
X0016443Y0249911D01*
X0016443Y0251509D02*
X0068480Y0251509D01*
X0070078Y0253108D02*
X0016443Y0253108D01*
X0016443Y0254706D02*
X0071677Y0254706D01*
X0073275Y0256305D02*
X0016443Y0256305D01*
X0016443Y0257903D02*
X0073383Y0257903D01*
X0073383Y0259502D02*
X0016443Y0259502D01*
X0016443Y0261100D02*
X0073723Y0261100D01*
X0074385Y0262699D02*
X0016443Y0262699D01*
X0016443Y0264297D02*
X0017591Y0264297D01*
X0027742Y0264297D02*
X0075894Y0264297D01*
X0082236Y0265896D02*
X0029340Y0265896D01*
X0030537Y0267494D02*
X0083835Y0267494D01*
X0085433Y0269093D02*
X0031199Y0269093D01*
X0031616Y0270691D02*
X0087084Y0270691D01*
X0089689Y0264297D02*
X0095328Y0264297D01*
X0093730Y0262699D02*
X0088090Y0262699D01*
X0087043Y0261100D02*
X0092983Y0261100D01*
X0092983Y0259502D02*
X0087383Y0259502D01*
X0087383Y0257903D02*
X0092983Y0257903D01*
X0092983Y0256305D02*
X0086890Y0256305D01*
X0086102Y0254706D02*
X0094098Y0254706D01*
X0095697Y0253108D02*
X0084503Y0253108D01*
X0077531Y0251509D02*
X0097295Y0251509D01*
X0100208Y0251509D02*
X0100558Y0251509D01*
X0100558Y0253108D02*
X0100208Y0253108D01*
X0100208Y0254706D02*
X0100558Y0254706D01*
X0100558Y0256305D02*
X0100208Y0256305D01*
X0100208Y0257903D02*
X0100558Y0257903D01*
X0105069Y0253108D02*
X0259902Y0253108D01*
X0259624Y0251509D02*
X0103470Y0251509D01*
X0106667Y0254706D02*
X0261204Y0254706D01*
X0262803Y0256305D02*
X0107783Y0256305D01*
X0107783Y0257903D02*
X0264401Y0257903D01*
X0266000Y0259502D02*
X0256153Y0259502D01*
X0257752Y0261100D02*
X0267598Y0261100D01*
X0269197Y0262699D02*
X0259350Y0262699D01*
X0260949Y0264297D02*
X0270795Y0264297D01*
X0272902Y0265896D02*
X0264613Y0265896D01*
X0266211Y0267494D02*
X0286753Y0267494D01*
X0293976Y0262486D02*
X0294549Y0263059D01*
X0295025Y0264209D01*
X0295025Y0263493D01*
X0300225Y0263493D01*
X0300225Y0263493D01*
X0295025Y0263493D01*
X0295025Y0261339D01*
X0298071Y0258293D01*
X0300225Y0258293D01*
X0300225Y0263493D01*
X0300225Y0263493D01*
X0305425Y0263493D01*
X0305425Y0265647D01*
X0303574Y0267498D01*
X0310262Y0267498D01*
X0308411Y0265647D01*
X0308411Y0263493D01*
X0313611Y0263493D01*
X0313611Y0263493D01*
X0308411Y0263493D01*
X0308411Y0261339D01*
X0311457Y0258293D01*
X0313611Y0258293D01*
X0313611Y0263493D01*
X0313611Y0258293D01*
X0315765Y0258293D01*
X0318718Y0261246D01*
X0318718Y0244474D01*
X0318163Y0244474D01*
X0316811Y0243914D01*
X0316811Y0249905D01*
X0318411Y0251505D01*
X0318411Y0255481D01*
X0315599Y0258293D01*
X0311623Y0258293D01*
X0308811Y0255481D01*
X0308811Y0251505D01*
X0310411Y0249905D01*
X0310411Y0211006D01*
X0310898Y0209830D01*
X0311251Y0209477D01*
X0310898Y0209124D01*
X0310411Y0207948D01*
X0310411Y0157856D01*
X0310898Y0156680D01*
X0311798Y0155780D01*
X0315421Y0152157D01*
X0313611Y0152157D01*
X0313611Y0146958D01*
X0313611Y0152157D01*
X0311457Y0152157D01*
X0308411Y0149111D01*
X0308411Y0146958D01*
X0313611Y0146958D01*
X0313611Y0146958D01*
X0313611Y0146957D01*
X0313611Y0141757D01*
X0314004Y0141757D01*
X0311623Y0141757D01*
X0308811Y0138946D01*
X0308811Y0134969D01*
X0310411Y0133369D01*
X0310411Y0106175D01*
X0309833Y0106754D01*
X0308197Y0107431D01*
X0306427Y0107431D01*
X0304791Y0106754D01*
X0303539Y0105502D01*
X0303425Y0105226D01*
X0303425Y0133369D01*
X0305025Y0134969D01*
X0305025Y0138946D01*
X0302213Y0141757D01*
X0299833Y0141757D01*
X0299833Y0141757D01*
X0300225Y0141757D01*
X0300225Y0146957D01*
X0300225Y0146957D01*
X0300225Y0141757D01*
X0302379Y0141757D01*
X0305425Y0144804D01*
X0305425Y0146957D01*
X0300225Y0146957D01*
X0300225Y0146958D01*
X0300225Y0152157D01*
X0298415Y0152157D01*
X0302038Y0155780D01*
X0302938Y0156680D01*
X0303425Y0157856D01*
X0303425Y0207948D01*
X0302938Y0209124D01*
X0302585Y0209477D01*
X0302938Y0209830D01*
X0303425Y0211006D01*
X0303425Y0249905D01*
X0305025Y0251505D01*
X0305025Y0255481D01*
X0302213Y0258293D01*
X0298237Y0258293D01*
X0295425Y0255481D01*
X0295425Y0251505D01*
X0297025Y0249905D01*
X0297025Y0243914D01*
X0295673Y0244474D01*
X0288163Y0244474D01*
X0286399Y0243743D01*
X0285315Y0242659D01*
X0285315Y0251656D01*
X0293489Y0259830D01*
X0293976Y0261006D01*
X0293976Y0262486D01*
X0294189Y0262699D02*
X0295025Y0262699D01*
X0295264Y0261100D02*
X0293976Y0261100D01*
X0293161Y0259502D02*
X0296863Y0259502D01*
X0297847Y0257903D02*
X0291562Y0257903D01*
X0289964Y0256305D02*
X0296249Y0256305D01*
X0295425Y0254706D02*
X0288365Y0254706D01*
X0286767Y0253108D02*
X0295425Y0253108D01*
X0295425Y0251509D02*
X0285315Y0251509D01*
X0285315Y0249911D02*
X0297019Y0249911D01*
X0297025Y0248312D02*
X0285315Y0248312D01*
X0285315Y0246713D02*
X0297025Y0246713D01*
X0297025Y0245115D02*
X0285315Y0245115D01*
X0285315Y0243516D02*
X0286172Y0243516D01*
X0278915Y0243516D02*
X0266024Y0243516D01*
X0266024Y0241918D02*
X0278915Y0241918D01*
X0278915Y0240319D02*
X0266024Y0240319D01*
X0266024Y0238721D02*
X0278915Y0238721D01*
X0278915Y0237122D02*
X0266024Y0237122D01*
X0266024Y0235524D02*
X0278915Y0235524D01*
X0278915Y0233925D02*
X0266024Y0233925D01*
X0266024Y0232327D02*
X0279216Y0232327D01*
X0280551Y0230728D02*
X0266024Y0230728D01*
X0266024Y0229130D02*
X0282149Y0229130D01*
X0283748Y0227531D02*
X0266024Y0227531D01*
X0266024Y0225933D02*
X0286071Y0225933D01*
X0286811Y0224334D02*
X0266024Y0224334D01*
X0266983Y0222736D02*
X0284915Y0222736D01*
X0284126Y0221137D02*
X0267230Y0221137D01*
X0267230Y0219539D02*
X0283918Y0219539D01*
X0284214Y0217940D02*
X0266658Y0217940D01*
X0265059Y0216342D02*
X0285112Y0216342D01*
X0287466Y0214743D02*
X0253422Y0214743D01*
X0255020Y0213145D02*
X0285801Y0213145D01*
X0284698Y0211546D02*
X0256619Y0211546D01*
X0258217Y0209948D02*
X0284318Y0209948D01*
X0284471Y0208349D02*
X0259816Y0208349D01*
X0261414Y0206751D02*
X0285253Y0206751D01*
X0287492Y0205152D02*
X0263013Y0205152D01*
X0264611Y0203554D02*
X0286210Y0203554D01*
X0296344Y0205152D02*
X0297025Y0205152D01*
X0303425Y0205152D02*
X0310411Y0205152D01*
X0310411Y0203554D02*
X0303425Y0203554D01*
X0303425Y0201955D02*
X0310411Y0201955D01*
X0310411Y0200357D02*
X0303425Y0200357D01*
X0303425Y0198758D02*
X0310411Y0198758D01*
X0310411Y0197160D02*
X0303425Y0197160D01*
X0303425Y0195561D02*
X0310411Y0195561D01*
X0310411Y0193963D02*
X0303425Y0193963D01*
X0303425Y0192364D02*
X0310411Y0192364D01*
X0310411Y0190766D02*
X0303425Y0190766D01*
X0303425Y0189167D02*
X0310411Y0189167D01*
X0310411Y0187569D02*
X0303425Y0187569D01*
X0303425Y0185970D02*
X0310411Y0185970D01*
X0310411Y0184372D02*
X0303425Y0184372D01*
X0303425Y0182773D02*
X0310411Y0182773D01*
X0310411Y0181175D02*
X0303425Y0181175D01*
X0303425Y0179576D02*
X0310411Y0179576D01*
X0310411Y0177977D02*
X0303425Y0177977D01*
X0303425Y0176379D02*
X0310411Y0176379D01*
X0310411Y0174780D02*
X0303425Y0174780D01*
X0303425Y0173182D02*
X0310411Y0173182D01*
X0310411Y0171583D02*
X0303425Y0171583D01*
X0303425Y0169985D02*
X0310411Y0169985D01*
X0310411Y0168386D02*
X0303425Y0168386D01*
X0303425Y0166788D02*
X0310411Y0166788D01*
X0310411Y0165189D02*
X0303425Y0165189D01*
X0303425Y0163591D02*
X0310411Y0163591D01*
X0310411Y0161992D02*
X0303425Y0161992D01*
X0303425Y0160394D02*
X0310411Y0160394D01*
X0310411Y0158795D02*
X0303425Y0158795D01*
X0303152Y0157197D02*
X0310684Y0157197D01*
X0311980Y0155598D02*
X0301856Y0155598D01*
X0300258Y0154000D02*
X0313579Y0154000D01*
X0315177Y0152401D02*
X0298659Y0152401D01*
X0300225Y0152157D02*
X0300225Y0146958D01*
X0300225Y0146958D01*
X0305425Y0146958D01*
X0305425Y0149111D01*
X0302379Y0152157D01*
X0300225Y0152157D01*
X0300225Y0150803D02*
X0300225Y0150803D01*
X0300225Y0149204D02*
X0300225Y0149204D01*
X0300225Y0147606D02*
X0300225Y0147606D01*
X0300225Y0146007D02*
X0300225Y0146007D01*
X0300225Y0144409D02*
X0300225Y0144409D01*
X0300225Y0142810D02*
X0300225Y0142810D01*
X0302759Y0141212D02*
X0311077Y0141212D01*
X0311457Y0141757D02*
X0313611Y0141757D01*
X0313611Y0146957D01*
X0313611Y0146957D01*
X0308411Y0146957D01*
X0308411Y0144804D01*
X0311457Y0141757D01*
X0310404Y0142810D02*
X0303432Y0142810D01*
X0305030Y0144409D02*
X0308806Y0144409D01*
X0308411Y0146007D02*
X0305425Y0146007D01*
X0305425Y0147606D02*
X0308411Y0147606D01*
X0308504Y0149204D02*
X0305332Y0149204D01*
X0303734Y0150803D02*
X0310102Y0150803D01*
X0313611Y0150803D02*
X0313611Y0150803D01*
X0313611Y0149204D02*
X0313611Y0149204D01*
X0313611Y0147606D02*
X0313611Y0147606D01*
X0313611Y0146007D02*
X0313611Y0146007D01*
X0313611Y0144409D02*
X0313611Y0144409D01*
X0313611Y0142810D02*
X0313611Y0142810D01*
X0314004Y0141757D02*
X0314004Y0141757D01*
X0309479Y0139613D02*
X0304358Y0139613D01*
X0305025Y0138015D02*
X0308811Y0138015D01*
X0308811Y0136416D02*
X0305025Y0136416D01*
X0304874Y0134818D02*
X0308963Y0134818D01*
X0310411Y0133219D02*
X0303425Y0133219D01*
X0303425Y0131621D02*
X0310411Y0131621D01*
X0310411Y0130022D02*
X0303425Y0130022D01*
X0303425Y0128424D02*
X0310411Y0128424D01*
X0310411Y0126825D02*
X0303425Y0126825D01*
X0303425Y0125227D02*
X0310411Y0125227D01*
X0310411Y0123628D02*
X0303425Y0123628D01*
X0303425Y0122030D02*
X0310411Y0122030D01*
X0310411Y0120431D02*
X0303425Y0120431D01*
X0303425Y0118833D02*
X0310411Y0118833D01*
X0310411Y0117234D02*
X0303425Y0117234D01*
X0303425Y0115636D02*
X0310411Y0115636D01*
X0310411Y0114037D02*
X0303425Y0114037D01*
X0303425Y0112439D02*
X0310411Y0112439D01*
X0310411Y0110840D02*
X0303425Y0110840D01*
X0303425Y0109242D02*
X0310411Y0109242D01*
X0310411Y0107643D02*
X0303425Y0107643D01*
X0303425Y0106044D02*
X0304082Y0106044D01*
X0297025Y0107799D02*
X0297025Y0108899D01*
X0295673Y0108339D01*
X0288163Y0108339D01*
X0286399Y0109069D01*
X0285049Y0110420D01*
X0284318Y0112184D01*
X0284318Y0114093D01*
X0285049Y0115858D01*
X0286399Y0117208D01*
X0288163Y0117939D01*
X0295673Y0117939D01*
X0297025Y0117378D01*
X0297025Y0118899D01*
X0295673Y0118339D01*
X0288163Y0118339D01*
X0286399Y0119069D01*
X0285530Y0119939D01*
X0285291Y0119939D01*
X0247939Y0082586D01*
X0247939Y0080324D01*
X0245127Y0077512D01*
X0242425Y0077512D01*
X0243283Y0076654D01*
X0251459Y0076654D01*
X0257630Y0082825D01*
X0257630Y0084300D01*
X0260442Y0087112D01*
X0264418Y0087112D01*
X0265191Y0086339D01*
X0285530Y0086339D01*
X0286399Y0087208D01*
X0288163Y0087939D01*
X0295673Y0087939D01*
X0297025Y0087378D01*
X0297025Y0088899D01*
X0295673Y0088339D01*
X0288163Y0088339D01*
X0286399Y0089069D01*
X0285049Y0090420D01*
X0284318Y0092184D01*
X0284318Y0094093D01*
X0285049Y0095858D01*
X0286399Y0097208D01*
X0288163Y0097939D01*
X0295673Y0097939D01*
X0297025Y0097378D01*
X0297025Y0098478D01*
X0296714Y0098320D01*
X0295936Y0098067D01*
X0295127Y0097939D01*
X0291918Y0097939D01*
X0291918Y0103138D01*
X0291918Y0103138D01*
X0291918Y0097939D01*
X0288709Y0097939D01*
X0287900Y0098067D01*
X0287122Y0098320D01*
X0286393Y0098691D01*
X0285731Y0099172D01*
X0285152Y0099751D01*
X0284671Y0100413D01*
X0284299Y0101142D01*
X0284046Y0101921D01*
X0283918Y0102729D01*
X0283918Y0103139D01*
X0291918Y0103139D01*
X0291918Y0108339D01*
X0288709Y0108339D01*
X0287900Y0108211D01*
X0287122Y0107958D01*
X0286393Y0107586D01*
X0285731Y0107105D01*
X0285152Y0106526D01*
X0284671Y0105864D01*
X0284299Y0105135D01*
X0284046Y0104356D01*
X0283918Y0103548D01*
X0283918Y0103139D01*
X0291918Y0103139D01*
X0291918Y0103139D01*
X0291918Y0108339D01*
X0295127Y0108339D01*
X0295936Y0108211D01*
X0296714Y0107958D01*
X0297025Y0107799D01*
X0291918Y0107643D02*
X0291918Y0107643D01*
X0291918Y0106044D02*
X0291918Y0106044D01*
X0291918Y0104446D02*
X0291918Y0104446D01*
X0291918Y0103139D02*
X0291918Y0103139D01*
X0291918Y0102847D02*
X0291918Y0102847D01*
X0291918Y0101249D02*
X0291918Y0101249D01*
X0291918Y0099650D02*
X0291918Y0099650D01*
X0291918Y0098052D02*
X0291918Y0098052D01*
X0287993Y0098052D02*
X0263404Y0098052D01*
X0261806Y0096453D02*
X0285645Y0096453D01*
X0284634Y0094855D02*
X0260207Y0094855D01*
X0258609Y0093256D02*
X0284318Y0093256D01*
X0284536Y0091658D02*
X0257010Y0091658D01*
X0255412Y0090059D02*
X0285409Y0090059D01*
X0287868Y0088461D02*
X0253813Y0088461D01*
X0252215Y0086862D02*
X0260192Y0086862D01*
X0258594Y0085264D02*
X0250616Y0085264D01*
X0249018Y0083665D02*
X0257630Y0083665D01*
X0256872Y0082067D02*
X0247939Y0082067D01*
X0247939Y0080468D02*
X0255274Y0080468D01*
X0253675Y0078870D02*
X0246485Y0078870D01*
X0242665Y0077271D02*
X0252077Y0077271D01*
X0238339Y0082067D02*
X0237870Y0082067D01*
X0238339Y0083665D02*
X0236271Y0083665D01*
X0234673Y0085264D02*
X0239302Y0085264D01*
X0240901Y0086862D02*
X0233074Y0086862D01*
X0231476Y0088461D02*
X0240831Y0088461D01*
X0239233Y0090059D02*
X0229877Y0090059D01*
X0228647Y0091658D02*
X0238339Y0091658D01*
X0238339Y0093256D02*
X0228647Y0093256D01*
X0228647Y0094855D02*
X0238339Y0094855D01*
X0239862Y0096453D02*
X0227124Y0096453D01*
X0220571Y0096453D02*
X0215236Y0096453D01*
X0215236Y0098052D02*
X0254353Y0098052D01*
X0252755Y0096453D02*
X0246415Y0096453D01*
X0247939Y0094855D02*
X0251156Y0094855D01*
X0249558Y0093256D02*
X0247939Y0093256D01*
X0247939Y0091658D02*
X0247959Y0091658D01*
X0255952Y0099650D02*
X0215236Y0099650D01*
X0215236Y0101249D02*
X0257550Y0101249D01*
X0259149Y0102847D02*
X0215236Y0102847D01*
X0215236Y0104446D02*
X0260747Y0104446D01*
X0262346Y0106044D02*
X0215236Y0106044D01*
X0215236Y0107643D02*
X0263944Y0107643D01*
X0265543Y0109242D02*
X0215236Y0109242D01*
X0215236Y0110840D02*
X0267141Y0110840D01*
X0268740Y0112439D02*
X0215236Y0112439D01*
X0215236Y0114037D02*
X0270338Y0114037D01*
X0271937Y0115636D02*
X0215236Y0115636D01*
X0215907Y0117234D02*
X0273535Y0117234D01*
X0275134Y0118833D02*
X0216486Y0118833D01*
X0216474Y0120431D02*
X0276732Y0120431D01*
X0278331Y0122030D02*
X0215812Y0122030D01*
X0213738Y0123628D02*
X0279929Y0123628D01*
X0284185Y0118833D02*
X0286971Y0118833D01*
X0286463Y0117234D02*
X0282586Y0117234D01*
X0280988Y0115636D02*
X0284957Y0115636D01*
X0284318Y0114037D02*
X0279389Y0114037D01*
X0277791Y0112439D02*
X0284318Y0112439D01*
X0284875Y0110840D02*
X0276192Y0110840D01*
X0274594Y0109242D02*
X0286227Y0109242D01*
X0286505Y0107643D02*
X0272995Y0107643D01*
X0271397Y0106044D02*
X0284802Y0106044D01*
X0284075Y0104446D02*
X0269798Y0104446D01*
X0268200Y0102847D02*
X0283918Y0102847D01*
X0284264Y0101249D02*
X0266601Y0101249D01*
X0265003Y0099650D02*
X0285252Y0099650D01*
X0295843Y0098052D02*
X0297025Y0098052D01*
X0307362Y0098052D02*
X0310411Y0098052D01*
X0310411Y0099650D02*
X0310274Y0099650D01*
X0310411Y0096453D02*
X0307362Y0096453D01*
X0307362Y0094855D02*
X0310415Y0094855D01*
X0311330Y0093256D02*
X0307362Y0093256D01*
X0307362Y0091658D02*
X0310513Y0091658D01*
X0310411Y0090059D02*
X0307362Y0090059D01*
X0307362Y0088461D02*
X0310411Y0088461D01*
X0310411Y0086862D02*
X0307362Y0086862D01*
X0307362Y0085264D02*
X0310411Y0085264D01*
X0310411Y0083665D02*
X0307362Y0083665D01*
X0307362Y0082067D02*
X0310411Y0082067D01*
X0310411Y0080468D02*
X0307362Y0080468D01*
X0307362Y0078870D02*
X0310411Y0078870D01*
X0310411Y0077271D02*
X0307362Y0077271D01*
X0307362Y0075673D02*
X0310411Y0075673D01*
X0310411Y0074074D02*
X0307362Y0074074D01*
X0307362Y0072476D02*
X0310411Y0072476D01*
X0310411Y0070877D02*
X0307362Y0070877D01*
X0307362Y0069279D02*
X0310411Y0069279D01*
X0310411Y0067680D02*
X0307362Y0067680D01*
X0307362Y0066082D02*
X0310411Y0066082D01*
X0310411Y0064483D02*
X0307362Y0064483D01*
X0307362Y0062885D02*
X0310411Y0062885D01*
X0310411Y0061286D02*
X0307362Y0061286D01*
X0307362Y0059688D02*
X0310411Y0059688D01*
X0310411Y0058089D02*
X0307362Y0058089D01*
X0306960Y0056491D02*
X0310411Y0056491D01*
X0310411Y0054892D02*
X0305481Y0054892D01*
X0303882Y0053294D02*
X0310411Y0053294D01*
X0310411Y0051695D02*
X0302284Y0051695D01*
X0300685Y0050097D02*
X0309095Y0050097D01*
X0307602Y0048498D02*
X0299087Y0048498D01*
X0297488Y0046900D02*
X0306940Y0046900D01*
X0306611Y0045301D02*
X0298844Y0045301D01*
X0299758Y0043703D02*
X0306611Y0043703D01*
X0306568Y0042104D02*
X0299951Y0042104D01*
X0299553Y0040506D02*
X0305000Y0040506D01*
X0303431Y0038907D02*
X0298350Y0038907D01*
X0300295Y0035710D02*
X0266386Y0035710D01*
X0267630Y0034466D02*
X0264584Y0037512D01*
X0262430Y0037512D01*
X0262430Y0032312D01*
X0262430Y0032312D01*
X0267630Y0032312D01*
X0267630Y0034466D01*
X0267630Y0034111D02*
X0298726Y0034111D01*
X0297158Y0032513D02*
X0267630Y0032513D01*
X0267630Y0032312D02*
X0262430Y0032312D01*
X0262430Y0032312D01*
X0262430Y0037512D01*
X0260276Y0037512D01*
X0257230Y0034466D01*
X0257230Y0032312D01*
X0262430Y0032312D01*
X0262430Y0032312D01*
X0262430Y0027112D01*
X0264584Y0027112D01*
X0267630Y0030158D01*
X0267630Y0032312D01*
X0267630Y0030914D02*
X0295589Y0030914D01*
X0294021Y0029316D02*
X0266788Y0029316D01*
X0265189Y0027717D02*
X0292453Y0027717D01*
X0296714Y0022922D02*
X0386157Y0022922D01*
X0386157Y0024520D02*
X0298282Y0024520D01*
X0299850Y0026119D02*
X0386687Y0026119D01*
X0387349Y0027717D02*
X0372498Y0027717D01*
X0372292Y0027512D02*
X0375104Y0030324D01*
X0375104Y0034300D01*
X0372292Y0037112D01*
X0368316Y0037112D01*
X0365504Y0034300D01*
X0365504Y0030324D01*
X0368316Y0027512D01*
X0372292Y0027512D01*
X0374096Y0029316D02*
X0388706Y0029316D01*
X0390682Y0030914D02*
X0375104Y0030914D01*
X0375104Y0032513D02*
X0400937Y0032513D01*
X0400937Y0034111D02*
X0375104Y0034111D01*
X0373694Y0035710D02*
X0400937Y0035710D01*
X0400937Y0037309D02*
X0353370Y0037309D01*
X0353166Y0037512D02*
X0351013Y0037512D01*
X0351013Y0032312D01*
X0356213Y0032312D01*
X0356213Y0034466D01*
X0353166Y0037512D01*
X0351013Y0037512D02*
X0348859Y0037512D01*
X0345813Y0034466D01*
X0345813Y0032312D01*
X0351012Y0032312D01*
X0351012Y0032312D01*
X0345813Y0032312D01*
X0345813Y0030158D01*
X0348859Y0027112D01*
X0351013Y0027112D01*
X0353166Y0027112D01*
X0356213Y0030158D01*
X0356213Y0032312D01*
X0351013Y0032312D01*
X0351013Y0032312D01*
X0351013Y0032312D01*
X0351013Y0027112D01*
X0351013Y0032312D01*
X0351013Y0032312D01*
X0351013Y0037512D01*
X0351013Y0037309D02*
X0351013Y0037309D01*
X0351013Y0035710D02*
X0351013Y0035710D01*
X0351013Y0034111D02*
X0351013Y0034111D01*
X0351013Y0032513D02*
X0351013Y0032513D01*
X0351013Y0030914D02*
X0351013Y0030914D01*
X0351013Y0029316D02*
X0351013Y0029316D01*
X0351013Y0027717D02*
X0351013Y0027717D01*
X0353772Y0027717D02*
X0368110Y0027717D01*
X0366512Y0029316D02*
X0355371Y0029316D01*
X0356213Y0030914D02*
X0365504Y0030914D01*
X0365504Y0032513D02*
X0356213Y0032513D01*
X0356213Y0034111D02*
X0365504Y0034111D01*
X0366914Y0035710D02*
X0354968Y0035710D01*
X0348655Y0037309D02*
X0310829Y0037309D01*
X0309260Y0035710D02*
X0347057Y0035710D01*
X0345813Y0034111D02*
X0307692Y0034111D01*
X0306124Y0032513D02*
X0345813Y0032513D01*
X0345813Y0030914D02*
X0304555Y0030914D01*
X0302987Y0029316D02*
X0346655Y0029316D01*
X0348253Y0027717D02*
X0301419Y0027717D01*
X0295145Y0021323D02*
X0386157Y0021323D01*
X0399532Y0030914D02*
X0400937Y0030914D01*
X0400937Y0038907D02*
X0317704Y0038907D01*
X0319303Y0040506D02*
X0400937Y0040506D01*
X0400937Y0042104D02*
X0320107Y0042104D01*
X0320611Y0043703D02*
X0400937Y0043703D01*
X0400937Y0045301D02*
X0320611Y0045301D01*
X0320282Y0046900D02*
X0400937Y0046900D01*
X0400937Y0048498D02*
X0319620Y0048498D01*
X0318127Y0050097D02*
X0400937Y0050097D01*
X0400937Y0051695D02*
X0316811Y0051695D01*
X0316811Y0053294D02*
X0400937Y0053294D01*
X0400937Y0054892D02*
X0316811Y0054892D01*
X0316811Y0056491D02*
X0400937Y0056491D01*
X0400937Y0058089D02*
X0316811Y0058089D01*
X0328055Y0059688D02*
X0400937Y0059688D01*
X0400937Y0061286D02*
X0329146Y0061286D01*
X0329518Y0062885D02*
X0400937Y0062885D01*
X0400937Y0064483D02*
X0329357Y0064483D01*
X0328563Y0066082D02*
X0400937Y0066082D01*
X0400937Y0067680D02*
X0326297Y0067680D01*
X0327646Y0069279D02*
X0400937Y0069279D01*
X0400937Y0070877D02*
X0328977Y0070877D01*
X0329518Y0072476D02*
X0400937Y0072476D01*
X0400937Y0074074D02*
X0329518Y0074074D01*
X0328864Y0075673D02*
X0400937Y0075673D01*
X0400937Y0077271D02*
X0327284Y0077271D01*
X0326955Y0078870D02*
X0347666Y0078870D01*
X0354359Y0078870D02*
X0366958Y0078870D01*
X0373650Y0078870D02*
X0400937Y0078870D01*
X0400937Y0080468D02*
X0375104Y0080468D01*
X0375104Y0082067D02*
X0400937Y0082067D01*
X0400937Y0083665D02*
X0375104Y0083665D01*
X0374140Y0085264D02*
X0400937Y0085264D01*
X0400937Y0086862D02*
X0372542Y0086862D01*
X0372292Y0088142D02*
X0368316Y0088142D01*
X0365504Y0090954D01*
X0365504Y0094930D01*
X0368316Y0097742D01*
X0372292Y0097742D01*
X0373892Y0096142D01*
X0386007Y0096142D01*
X0387607Y0097742D01*
X0391583Y0097742D01*
X0394395Y0094930D01*
X0394395Y0090954D01*
X0391583Y0088142D01*
X0387607Y0088142D01*
X0386007Y0089742D01*
X0373892Y0089742D01*
X0372292Y0088142D01*
X0372611Y0088461D02*
X0387288Y0088461D01*
X0391903Y0088461D02*
X0400937Y0088461D01*
X0400937Y0090059D02*
X0393501Y0090059D01*
X0394395Y0091658D02*
X0400937Y0091658D01*
X0400937Y0093256D02*
X0394395Y0093256D01*
X0394395Y0094855D02*
X0400937Y0094855D01*
X0400937Y0096453D02*
X0392872Y0096453D01*
X0386319Y0096453D02*
X0373580Y0096453D01*
X0367027Y0096453D02*
X0354289Y0096453D01*
X0355813Y0094855D02*
X0365504Y0094855D01*
X0365504Y0093256D02*
X0355813Y0093256D01*
X0355813Y0091658D02*
X0365504Y0091658D01*
X0366398Y0090059D02*
X0354918Y0090059D01*
X0353320Y0088461D02*
X0367997Y0088461D01*
X0368066Y0086862D02*
X0353250Y0086862D01*
X0348775Y0086862D02*
X0327783Y0086862D01*
X0325968Y0088461D02*
X0348705Y0088461D01*
X0347736Y0096453D02*
X0337656Y0096453D01*
X0336058Y0098052D02*
X0400937Y0098052D01*
X0400937Y0099650D02*
X0334459Y0099650D01*
X0332861Y0101249D02*
X0400937Y0101249D01*
X0400937Y0102847D02*
X0331262Y0102847D01*
X0329664Y0104446D02*
X0400937Y0104446D01*
X0400937Y0106044D02*
X0328600Y0106044D01*
X0326386Y0107643D02*
X0400937Y0107643D01*
X0400937Y0109242D02*
X0327609Y0109242D01*
X0327374Y0117234D02*
X0360150Y0117234D01*
X0361748Y0118833D02*
X0326865Y0118833D01*
X0328792Y0120431D02*
X0363347Y0120431D01*
X0364945Y0122030D02*
X0329454Y0122030D01*
X0329518Y0123628D02*
X0366544Y0123628D01*
X0368142Y0125227D02*
X0329049Y0125227D01*
X0327820Y0126825D02*
X0369741Y0126825D01*
X0371339Y0128424D02*
X0316811Y0128424D01*
X0316811Y0130022D02*
X0372938Y0130022D01*
X0374536Y0131621D02*
X0316811Y0131621D01*
X0316811Y0133219D02*
X0376135Y0133219D01*
X0377733Y0134818D02*
X0318259Y0134818D01*
X0318411Y0136416D02*
X0379332Y0136416D01*
X0380930Y0138015D02*
X0353439Y0138015D01*
X0353166Y0137742D02*
X0356213Y0140788D01*
X0356213Y0142942D01*
X0356213Y0145096D01*
X0353166Y0148142D01*
X0351013Y0148142D01*
X0351013Y0142942D01*
X0356213Y0142942D01*
X0351013Y0142942D01*
X0351013Y0142942D01*
X0351013Y0142942D01*
X0351013Y0148142D01*
X0348859Y0148142D01*
X0345813Y0145096D01*
X0345813Y0142942D01*
X0351012Y0142942D01*
X0351012Y0142942D01*
X0345813Y0142942D01*
X0345813Y0140788D01*
X0348859Y0137742D01*
X0351013Y0137742D01*
X0353166Y0137742D01*
X0351013Y0137742D02*
X0351013Y0142942D01*
X0351013Y0142942D01*
X0351013Y0137742D01*
X0351013Y0138015D02*
X0351013Y0138015D01*
X0351013Y0139613D02*
X0351013Y0139613D01*
X0351013Y0141212D02*
X0351013Y0141212D01*
X0351013Y0142810D02*
X0351013Y0142810D01*
X0351013Y0144409D02*
X0351013Y0144409D01*
X0351013Y0146007D02*
X0351013Y0146007D01*
X0351013Y0147606D02*
X0351013Y0147606D01*
X0353702Y0147606D02*
X0368180Y0147606D01*
X0368316Y0147742D02*
X0365504Y0144930D01*
X0365504Y0140954D01*
X0368316Y0138142D01*
X0372292Y0138142D01*
X0375104Y0140954D01*
X0375104Y0144930D01*
X0372292Y0147742D01*
X0368316Y0147742D01*
X0366581Y0146007D02*
X0355301Y0146007D01*
X0356213Y0144409D02*
X0365504Y0144409D01*
X0365504Y0142810D02*
X0356213Y0142810D01*
X0356213Y0141212D02*
X0365504Y0141212D01*
X0366844Y0139613D02*
X0355038Y0139613D01*
X0348586Y0138015D02*
X0319312Y0138015D01*
X0320910Y0139613D02*
X0346987Y0139613D01*
X0345813Y0141212D02*
X0322509Y0141212D01*
X0323699Y0142810D02*
X0345813Y0142810D01*
X0345813Y0144409D02*
X0323898Y0144409D01*
X0323898Y0146007D02*
X0346724Y0146007D01*
X0348323Y0147606D02*
X0323898Y0147606D01*
X0323898Y0149204D02*
X0400937Y0149204D01*
X0400937Y0147606D02*
X0391719Y0147606D01*
X0393318Y0146007D02*
X0400937Y0146007D01*
X0400937Y0144409D02*
X0394395Y0144409D01*
X0394395Y0142810D02*
X0400937Y0142810D01*
X0400937Y0141212D02*
X0394395Y0141212D01*
X0393055Y0139613D02*
X0400937Y0139613D01*
X0400937Y0138015D02*
X0389981Y0138015D01*
X0388383Y0136416D02*
X0400937Y0136416D01*
X0400937Y0134818D02*
X0386784Y0134818D01*
X0385186Y0133219D02*
X0400937Y0133219D01*
X0400937Y0131621D02*
X0383587Y0131621D01*
X0381989Y0130022D02*
X0400937Y0130022D01*
X0400937Y0128424D02*
X0380390Y0128424D01*
X0378792Y0126825D02*
X0400937Y0126825D01*
X0400937Y0125227D02*
X0377193Y0125227D01*
X0375595Y0123628D02*
X0400937Y0123628D01*
X0400937Y0122030D02*
X0373996Y0122030D01*
X0372398Y0120431D02*
X0400937Y0120431D01*
X0400937Y0118833D02*
X0370799Y0118833D01*
X0369200Y0117234D02*
X0400937Y0117234D01*
X0400937Y0115636D02*
X0367602Y0115636D01*
X0366003Y0114037D02*
X0400937Y0114037D01*
X0400937Y0112439D02*
X0364405Y0112439D01*
X0362806Y0110840D02*
X0400937Y0110840D01*
X0382529Y0139613D02*
X0373764Y0139613D01*
X0375104Y0141212D02*
X0384127Y0141212D01*
X0384795Y0142810D02*
X0375104Y0142810D01*
X0375104Y0144409D02*
X0384795Y0144409D01*
X0385873Y0146007D02*
X0374027Y0146007D01*
X0372428Y0147606D02*
X0387471Y0147606D01*
X0387441Y0154671D02*
X0384395Y0157717D01*
X0384395Y0159871D01*
X0389595Y0159871D01*
X0389595Y0159871D01*
X0389595Y0165071D01*
X0387441Y0165071D01*
X0384395Y0162025D01*
X0384395Y0159871D01*
X0389595Y0159871D01*
X0389595Y0159871D01*
X0389595Y0165071D01*
X0391749Y0165071D01*
X0394795Y0162025D01*
X0394795Y0159871D01*
X0389595Y0159871D01*
X0389595Y0159871D01*
X0389595Y0154671D01*
X0387441Y0154671D01*
X0386514Y0155598D02*
X0372820Y0155598D01*
X0372292Y0155071D02*
X0375104Y0157883D01*
X0375104Y0161859D01*
X0372292Y0164671D01*
X0368316Y0164671D01*
X0365504Y0161859D01*
X0365504Y0157883D01*
X0368316Y0155071D01*
X0372292Y0155071D01*
X0374418Y0157197D02*
X0384915Y0157197D01*
X0384395Y0158795D02*
X0375104Y0158795D01*
X0375104Y0160394D02*
X0384395Y0160394D01*
X0384395Y0161992D02*
X0374971Y0161992D01*
X0373372Y0163591D02*
X0385961Y0163591D01*
X0389595Y0163591D02*
X0389595Y0163591D01*
X0389595Y0161992D02*
X0389595Y0161992D01*
X0389595Y0160394D02*
X0389595Y0160394D01*
X0389595Y0159871D02*
X0389595Y0159871D01*
X0389595Y0154671D01*
X0391749Y0154671D01*
X0394795Y0157717D01*
X0394795Y0159871D01*
X0389595Y0159871D01*
X0389595Y0158795D02*
X0389595Y0158795D01*
X0389595Y0157197D02*
X0389595Y0157197D01*
X0389595Y0155598D02*
X0389595Y0155598D01*
X0392677Y0155598D02*
X0400937Y0155598D01*
X0400937Y0154000D02*
X0322630Y0154000D01*
X0323749Y0152401D02*
X0400937Y0152401D01*
X0400937Y0150803D02*
X0323898Y0150803D01*
X0321031Y0155598D02*
X0347931Y0155598D01*
X0348859Y0154671D02*
X0345813Y0157717D01*
X0345813Y0159871D01*
X0351012Y0159871D01*
X0351012Y0159871D01*
X0345813Y0159871D01*
X0345813Y0162025D01*
X0348859Y0165071D01*
X0351013Y0165071D01*
X0351013Y0159871D01*
X0356213Y0159871D01*
X0356213Y0162025D01*
X0353166Y0165071D01*
X0351013Y0165071D01*
X0351013Y0159871D01*
X0351013Y0159871D01*
X0356213Y0159871D01*
X0356213Y0157717D01*
X0353166Y0154671D01*
X0351013Y0154671D01*
X0351013Y0159871D01*
X0351013Y0159871D01*
X0351013Y0159871D01*
X0351013Y0154671D01*
X0348859Y0154671D01*
X0351013Y0155598D02*
X0351013Y0155598D01*
X0351013Y0157197D02*
X0351013Y0157197D01*
X0351013Y0158795D02*
X0351013Y0158795D01*
X0351013Y0160394D02*
X0351013Y0160394D01*
X0351013Y0161992D02*
X0351013Y0161992D01*
X0351013Y0163591D02*
X0351013Y0163591D01*
X0354646Y0163591D02*
X0367236Y0163591D01*
X0365637Y0161992D02*
X0356213Y0161992D01*
X0356213Y0160394D02*
X0365504Y0160394D01*
X0365504Y0158795D02*
X0356213Y0158795D01*
X0355692Y0157197D02*
X0366190Y0157197D01*
X0367788Y0155598D02*
X0354094Y0155598D01*
X0346333Y0157197D02*
X0319433Y0157197D01*
X0317834Y0158795D02*
X0345813Y0158795D01*
X0345813Y0160394D02*
X0316811Y0160394D01*
X0316811Y0161992D02*
X0345813Y0161992D01*
X0347379Y0163591D02*
X0316811Y0163591D01*
X0316811Y0165189D02*
X0400937Y0165189D01*
X0400937Y0163591D02*
X0393229Y0163591D01*
X0394795Y0161992D02*
X0400937Y0161992D01*
X0400937Y0160394D02*
X0394795Y0160394D01*
X0394795Y0158795D02*
X0400937Y0158795D01*
X0400937Y0157197D02*
X0394275Y0157197D01*
X0400937Y0166788D02*
X0316811Y0166788D01*
X0316811Y0168386D02*
X0400937Y0168386D01*
X0400937Y0169985D02*
X0316811Y0169985D01*
X0316811Y0171583D02*
X0400937Y0171583D01*
X0400937Y0173182D02*
X0316811Y0173182D01*
X0316811Y0174780D02*
X0400937Y0174780D01*
X0400937Y0176379D02*
X0328211Y0176379D01*
X0329211Y0177977D02*
X0400937Y0177977D01*
X0400937Y0179576D02*
X0329518Y0179576D01*
X0329292Y0181175D02*
X0400937Y0181175D01*
X0400937Y0182773D02*
X0328407Y0182773D01*
X0325920Y0184372D02*
X0400937Y0184372D01*
X0400937Y0185970D02*
X0327802Y0185970D01*
X0329041Y0187569D02*
X0400937Y0187569D01*
X0400937Y0189167D02*
X0329518Y0189167D01*
X0329461Y0190766D02*
X0400937Y0190766D01*
X0400937Y0192364D02*
X0328799Y0192364D01*
X0326907Y0193963D02*
X0400937Y0193963D01*
X0400937Y0195561D02*
X0327332Y0195561D01*
X0327627Y0203554D02*
X0359461Y0203554D01*
X0361060Y0205152D02*
X0353082Y0205152D01*
X0354681Y0206751D02*
X0362658Y0206751D01*
X0364257Y0208349D02*
X0355813Y0208349D01*
X0355813Y0209948D02*
X0365504Y0209948D01*
X0365504Y0211546D02*
X0355813Y0211546D01*
X0354527Y0213145D02*
X0366790Y0213145D01*
X0368316Y0216094D02*
X0372292Y0216094D01*
X0375104Y0218906D01*
X0375104Y0222883D01*
X0372292Y0225694D01*
X0368316Y0225694D01*
X0366716Y0224094D01*
X0354601Y0224094D01*
X0353001Y0225694D01*
X0349024Y0225694D01*
X0346213Y0222883D01*
X0346213Y0218906D01*
X0349024Y0216094D01*
X0353001Y0216094D01*
X0354601Y0217694D01*
X0366716Y0217694D01*
X0368316Y0216094D01*
X0368068Y0216342D02*
X0353248Y0216342D01*
X0348777Y0216342D02*
X0336272Y0216342D01*
X0334673Y0217940D02*
X0347179Y0217940D01*
X0346213Y0219539D02*
X0333075Y0219539D01*
X0331476Y0221137D02*
X0346213Y0221137D01*
X0346213Y0222736D02*
X0328445Y0222736D01*
X0326010Y0224334D02*
X0347664Y0224334D01*
X0354361Y0224334D02*
X0366956Y0224334D01*
X0373652Y0224334D02*
X0400937Y0224334D01*
X0400937Y0222736D02*
X0375104Y0222736D01*
X0375104Y0221137D02*
X0400937Y0221137D01*
X0400937Y0219539D02*
X0375104Y0219539D01*
X0374138Y0217940D02*
X0400937Y0217940D01*
X0400937Y0216342D02*
X0372539Y0216342D01*
X0373818Y0213145D02*
X0386081Y0213145D01*
X0393110Y0213145D02*
X0400937Y0213145D01*
X0400937Y0214743D02*
X0337870Y0214743D01*
X0339469Y0213145D02*
X0347498Y0213145D01*
X0348943Y0205152D02*
X0326344Y0205152D01*
X0328583Y0206751D02*
X0337388Y0206751D01*
X0335213Y0208349D02*
X0329365Y0208349D01*
X0329518Y0209948D02*
X0333615Y0209948D01*
X0332016Y0211546D02*
X0329138Y0211546D01*
X0328036Y0213145D02*
X0330418Y0213145D01*
X0328819Y0214743D02*
X0316811Y0214743D01*
X0310411Y0214743D02*
X0303425Y0214743D01*
X0303425Y0213145D02*
X0310411Y0213145D01*
X0310411Y0211546D02*
X0303425Y0211546D01*
X0302987Y0209948D02*
X0310849Y0209948D01*
X0310577Y0208349D02*
X0303259Y0208349D01*
X0303425Y0206751D02*
X0310411Y0206751D01*
X0316811Y0205152D02*
X0317492Y0205152D01*
X0316929Y0193963D02*
X0316811Y0193963D01*
X0297025Y0184372D02*
X0295920Y0184372D01*
X0287916Y0184372D02*
X0197126Y0184372D01*
X0197126Y0185970D02*
X0286034Y0185970D01*
X0261112Y0187569D02*
X0197126Y0187569D01*
X0197126Y0189167D02*
X0259514Y0189167D01*
X0241069Y0205152D02*
X0225917Y0205152D01*
X0227362Y0213145D02*
X0239624Y0213145D01*
X0248626Y0219539D02*
X0257630Y0219539D01*
X0257630Y0221137D02*
X0247939Y0221137D01*
X0247692Y0222736D02*
X0257877Y0222736D01*
X0258202Y0217940D02*
X0250225Y0217940D01*
X0251823Y0216342D02*
X0259801Y0216342D01*
X0259624Y0230728D02*
X0121128Y0230728D01*
X0122952Y0229130D02*
X0127657Y0229130D01*
X0113968Y0230728D02*
X0060512Y0230728D01*
X0060512Y0229130D02*
X0112144Y0229130D01*
X0075932Y0249911D02*
X0259624Y0249911D01*
X0259624Y0248312D02*
X0074334Y0248312D01*
X0072735Y0246713D02*
X0259624Y0246713D01*
X0259624Y0245115D02*
X0071137Y0245115D01*
X0069538Y0243516D02*
X0259624Y0243516D01*
X0259624Y0241918D02*
X0067939Y0241918D01*
X0066341Y0240319D02*
X0259624Y0240319D01*
X0259624Y0238721D02*
X0064742Y0238721D01*
X0063144Y0237122D02*
X0259624Y0237122D01*
X0259624Y0235524D02*
X0061545Y0235524D01*
X0060512Y0233925D02*
X0259624Y0233925D01*
X0259624Y0232327D02*
X0060512Y0232327D01*
X0105437Y0264297D02*
X0111087Y0264297D01*
X0112498Y0262699D02*
X0107036Y0262699D01*
X0107783Y0261100D02*
X0115380Y0261100D01*
X0118929Y0261100D02*
X0225376Y0261100D01*
X0226975Y0259502D02*
X0107783Y0259502D01*
X0121811Y0262699D02*
X0223777Y0262699D01*
X0222179Y0264297D02*
X0182699Y0264297D01*
X0181544Y0263142D02*
X0184356Y0265954D01*
X0184356Y0269930D01*
X0181544Y0272742D01*
X0177568Y0272742D01*
X0174756Y0269930D01*
X0174756Y0265954D01*
X0177568Y0263142D01*
X0181544Y0263142D01*
X0184298Y0265896D02*
X0220905Y0265896D01*
X0220066Y0267494D02*
X0184356Y0267494D01*
X0184356Y0269093D02*
X0219047Y0269093D01*
X0219047Y0270691D02*
X0183595Y0270691D01*
X0181996Y0272290D02*
X0219047Y0272290D01*
X0220446Y0273888D02*
X0121090Y0273888D01*
X0122706Y0272290D02*
X0127116Y0272290D01*
X0131996Y0272290D02*
X0177116Y0272290D01*
X0175517Y0270691D02*
X0133595Y0270691D01*
X0134356Y0269093D02*
X0174756Y0269093D01*
X0174756Y0267494D02*
X0134356Y0267494D01*
X0134298Y0265896D02*
X0174814Y0265896D01*
X0176412Y0264297D02*
X0132699Y0264297D01*
X0126412Y0264297D02*
X0123221Y0264297D01*
X0111603Y0272290D02*
X0031616Y0272290D01*
X0031521Y0273888D02*
X0113218Y0273888D01*
X0030859Y0275487D02*
X0240771Y0275487D01*
X0240985Y0275701D02*
X0237939Y0272655D01*
X0237939Y0270501D01*
X0243138Y0270501D01*
X0243138Y0270501D01*
X0243139Y0270501D02*
X0243139Y0275701D01*
X0243139Y0270501D01*
X0248339Y0270501D01*
X0248339Y0272655D01*
X0245292Y0275701D01*
X0243139Y0275701D01*
X0240985Y0275701D01*
X0243139Y0275487D02*
X0243139Y0275487D01*
X0243139Y0273888D02*
X0243139Y0273888D01*
X0243139Y0272290D02*
X0243139Y0272290D01*
X0243139Y0270691D02*
X0243139Y0270691D01*
X0243139Y0270501D02*
X0243139Y0270501D01*
X0243139Y0270501D01*
X0248339Y0270501D01*
X0248339Y0268347D01*
X0245292Y0265301D01*
X0243139Y0265301D01*
X0243139Y0270501D01*
X0243139Y0270501D01*
X0243139Y0265301D01*
X0240985Y0265301D01*
X0237939Y0268347D01*
X0237939Y0270501D01*
X0243138Y0270501D01*
X0243139Y0269093D02*
X0243139Y0269093D01*
X0243139Y0267494D02*
X0243139Y0267494D01*
X0243139Y0265896D02*
X0243139Y0265896D01*
X0245887Y0265896D02*
X0253496Y0265896D01*
X0255095Y0267494D02*
X0247486Y0267494D01*
X0248339Y0269093D02*
X0256693Y0269093D01*
X0257630Y0270691D02*
X0248339Y0270691D01*
X0248339Y0272290D02*
X0257630Y0272290D01*
X0259029Y0273888D02*
X0247105Y0273888D01*
X0245507Y0275487D02*
X0348817Y0275487D01*
X0349024Y0275694D02*
X0346213Y0272883D01*
X0346213Y0268906D01*
X0349024Y0266094D01*
X0353001Y0266094D01*
X0355813Y0268906D01*
X0355813Y0272883D01*
X0353001Y0275694D01*
X0349024Y0275694D01*
X0347218Y0273888D02*
X0317420Y0273888D01*
X0319694Y0272290D02*
X0346213Y0272290D01*
X0346213Y0270691D02*
X0321293Y0270691D01*
X0322891Y0269093D02*
X0346213Y0269093D01*
X0347625Y0267494D02*
X0324490Y0267494D01*
X0325118Y0265896D02*
X0367104Y0265896D01*
X0367104Y0264297D02*
X0325118Y0264297D01*
X0325118Y0262699D02*
X0367104Y0262699D01*
X0367104Y0261100D02*
X0325118Y0261100D01*
X0325118Y0259502D02*
X0367104Y0259502D01*
X0367104Y0257903D02*
X0325118Y0257903D01*
X0325118Y0256305D02*
X0367104Y0256305D01*
X0367104Y0254706D02*
X0325118Y0254706D01*
X0325118Y0253108D02*
X0367104Y0253108D01*
X0367104Y0251509D02*
X0325118Y0251509D01*
X0325118Y0249911D02*
X0367104Y0249911D01*
X0367104Y0248312D02*
X0325118Y0248312D01*
X0325118Y0246713D02*
X0366991Y0246713D01*
X0365393Y0245115D02*
X0325118Y0245115D01*
X0327664Y0243516D02*
X0363794Y0243516D01*
X0362196Y0241918D02*
X0328984Y0241918D01*
X0329518Y0240319D02*
X0360597Y0240319D01*
X0358999Y0238721D02*
X0329518Y0238721D01*
X0328857Y0237122D02*
X0357400Y0237122D01*
X0355802Y0235524D02*
X0327242Y0235524D01*
X0326997Y0233925D02*
X0354203Y0233925D01*
X0358458Y0229130D02*
X0400937Y0229130D01*
X0400937Y0230728D02*
X0360057Y0230728D01*
X0361656Y0232327D02*
X0400937Y0232327D01*
X0400937Y0233925D02*
X0363254Y0233925D01*
X0364853Y0235524D02*
X0400937Y0235524D01*
X0400937Y0237122D02*
X0366451Y0237122D01*
X0368050Y0238721D02*
X0400937Y0238721D01*
X0400937Y0240319D02*
X0369648Y0240319D01*
X0371247Y0241918D02*
X0400937Y0241918D01*
X0400937Y0243516D02*
X0372845Y0243516D01*
X0373504Y0245115D02*
X0400937Y0245115D01*
X0400937Y0246713D02*
X0373504Y0246713D01*
X0373504Y0248312D02*
X0400937Y0248312D01*
X0400937Y0249911D02*
X0373504Y0249911D01*
X0373504Y0251509D02*
X0400937Y0251509D01*
X0400937Y0253108D02*
X0373504Y0253108D01*
X0373504Y0254706D02*
X0400937Y0254706D01*
X0400937Y0256305D02*
X0373504Y0256305D01*
X0373504Y0257903D02*
X0400937Y0257903D01*
X0400937Y0259502D02*
X0373504Y0259502D01*
X0373504Y0261100D02*
X0400937Y0261100D01*
X0400937Y0262699D02*
X0373504Y0262699D01*
X0373504Y0264297D02*
X0389638Y0264297D01*
X0388039Y0265896D02*
X0373504Y0265896D01*
X0373692Y0267494D02*
X0386842Y0267494D01*
X0386180Y0269093D02*
X0375104Y0269093D01*
X0375104Y0270691D02*
X0385763Y0270691D01*
X0385763Y0272290D02*
X0375104Y0272290D01*
X0374098Y0273888D02*
X0385858Y0273888D01*
X0386520Y0275487D02*
X0372500Y0275487D01*
X0368108Y0275487D02*
X0353209Y0275487D01*
X0354807Y0273888D02*
X0366509Y0273888D01*
X0365504Y0272290D02*
X0355813Y0272290D01*
X0355813Y0270691D02*
X0365504Y0270691D01*
X0365504Y0269093D02*
X0355813Y0269093D01*
X0354400Y0267494D02*
X0366916Y0267494D01*
X0387263Y0277085D02*
X0030117Y0277085D01*
X0048509Y0195561D02*
X0190726Y0195561D01*
X0190726Y0193963D02*
X0050108Y0193963D01*
X0051706Y0192364D02*
X0190726Y0192364D01*
X0190726Y0190766D02*
X0053305Y0190766D01*
X0057166Y0189167D02*
X0060829Y0189167D01*
X0059230Y0187569D02*
X0058765Y0187569D01*
X0059080Y0185970D02*
X0059080Y0185970D01*
X0064280Y0185970D02*
X0064280Y0185970D01*
X0064280Y0187569D02*
X0064280Y0187569D01*
X0064280Y0189167D02*
X0064280Y0189167D01*
X0067732Y0189167D02*
X0190726Y0189167D01*
X0190726Y0187569D02*
X0120773Y0187569D01*
X0122805Y0185970D02*
X0127804Y0185970D01*
X0126511Y0177977D02*
X0123737Y0177977D01*
X0115062Y0174780D02*
X0107783Y0174780D01*
X0106741Y0176379D02*
X0112597Y0176379D01*
X0111359Y0177977D02*
X0105143Y0177977D01*
X0100558Y0171583D02*
X0100208Y0171583D01*
X0100208Y0169985D02*
X0100558Y0169985D01*
X0100558Y0168386D02*
X0100208Y0168386D01*
X0100208Y0166788D02*
X0100558Y0166788D01*
X0100558Y0165189D02*
X0100208Y0165189D01*
X0097001Y0165189D02*
X0067701Y0165189D01*
X0069299Y0166788D02*
X0075968Y0166788D01*
X0074416Y0168386D02*
X0069480Y0168386D01*
X0069480Y0169985D02*
X0071609Y0169985D01*
X0070011Y0171583D02*
X0069174Y0171583D01*
X0068412Y0173182D02*
X0067575Y0173182D01*
X0066814Y0174780D02*
X0052754Y0174780D01*
X0064280Y0173182D02*
X0064280Y0173182D01*
X0064280Y0171583D02*
X0064280Y0171583D01*
X0071069Y0179576D02*
X0082925Y0179576D01*
X0084523Y0181175D02*
X0069471Y0181175D01*
X0069143Y0182773D02*
X0086122Y0182773D01*
X0087720Y0184372D02*
X0069480Y0184372D01*
X0069480Y0185970D02*
X0112291Y0185970D01*
X0114323Y0187569D02*
X0069330Y0187569D01*
X0072668Y0177977D02*
X0076188Y0177977D01*
X0074590Y0176379D02*
X0074266Y0176379D01*
X0087180Y0174780D02*
X0092983Y0174780D01*
X0092983Y0173182D02*
X0087383Y0173182D01*
X0087383Y0171583D02*
X0092983Y0171583D01*
X0092983Y0169985D02*
X0087012Y0169985D01*
X0086350Y0168386D02*
X0093804Y0168386D01*
X0095402Y0166788D02*
X0084798Y0166788D01*
X0088778Y0176379D02*
X0094024Y0176379D01*
X0095623Y0177977D02*
X0090377Y0177977D01*
X0067535Y0160394D02*
X0178444Y0160394D01*
X0176960Y0161992D02*
X0065936Y0161992D01*
X0068386Y0158795D02*
X0180043Y0158795D01*
X0181641Y0157197D02*
X0068386Y0157197D01*
X0068386Y0155598D02*
X0183240Y0155598D01*
X0184838Y0154000D02*
X0068386Y0154000D01*
X0068386Y0152401D02*
X0186437Y0152401D01*
X0188035Y0150803D02*
X0068386Y0150803D01*
X0048206Y0150803D02*
X0044653Y0150803D01*
X0046251Y0152401D02*
X0048206Y0152401D01*
X0048206Y0154000D02*
X0047551Y0154000D01*
X0047551Y0155598D02*
X0048082Y0155598D01*
X0042351Y0155598D02*
X0042351Y0155598D01*
X0042351Y0154000D02*
X0042351Y0154000D01*
X0042351Y0152401D02*
X0042351Y0152401D01*
X0042351Y0150803D02*
X0042351Y0150803D01*
X0040050Y0150803D02*
X0016443Y0150803D01*
X0016443Y0152401D02*
X0021117Y0152401D01*
X0021463Y0152258D02*
X0022400Y0152007D01*
X0023047Y0151922D01*
X0023047Y0158480D01*
X0024647Y0158480D01*
X0024647Y0151922D01*
X0025294Y0152007D01*
X0026231Y0152258D01*
X0027127Y0152629D01*
X0027967Y0153114D01*
X0028737Y0153705D01*
X0029423Y0154391D01*
X0030013Y0155160D01*
X0030498Y0156000D01*
X0030870Y0156897D01*
X0031121Y0157834D01*
X0031206Y0158480D01*
X0024647Y0158480D01*
X0024647Y0160080D01*
X0031206Y0160080D01*
X0031121Y0160727D01*
X0030870Y0161664D01*
X0030498Y0162560D01*
X0030013Y0163400D01*
X0029423Y0164170D01*
X0028737Y0164856D01*
X0027967Y0165446D01*
X0027127Y0165931D01*
X0026231Y0166303D01*
X0025294Y0166554D01*
X0024647Y0166639D01*
X0024647Y0160080D01*
X0023047Y0160080D01*
X0023047Y0158480D01*
X0016489Y0158480D01*
X0016574Y0157834D01*
X0016825Y0156897D01*
X0017196Y0156000D01*
X0017681Y0155160D01*
X0018272Y0154391D01*
X0018958Y0153705D01*
X0019727Y0153114D01*
X0020567Y0152629D01*
X0021463Y0152258D01*
X0023047Y0152401D02*
X0024647Y0152401D01*
X0024647Y0154000D02*
X0023047Y0154000D01*
X0023047Y0155598D02*
X0024647Y0155598D01*
X0024647Y0157197D02*
X0023047Y0157197D01*
X0023047Y0158795D02*
X0016443Y0158795D01*
X0016489Y0160080D02*
X0023047Y0160080D01*
X0023047Y0166639D01*
X0022400Y0166554D01*
X0021463Y0166303D01*
X0020567Y0165931D01*
X0019727Y0165446D01*
X0018958Y0164856D01*
X0018272Y0164170D01*
X0017681Y0163400D01*
X0017196Y0162560D01*
X0016825Y0161664D01*
X0016574Y0160727D01*
X0016489Y0160080D01*
X0016530Y0160394D02*
X0016443Y0160394D01*
X0016443Y0161992D02*
X0016961Y0161992D01*
X0016443Y0163591D02*
X0017827Y0163591D01*
X0016443Y0165189D02*
X0019392Y0165189D01*
X0016443Y0166788D02*
X0036893Y0166788D01*
X0037551Y0165189D02*
X0028302Y0165189D01*
X0029867Y0163591D02*
X0037827Y0163591D01*
X0039426Y0161992D02*
X0030734Y0161992D01*
X0031164Y0160394D02*
X0039536Y0160394D01*
X0037938Y0158795D02*
X0024647Y0158795D01*
X0024647Y0160394D02*
X0023047Y0160394D01*
X0023047Y0161992D02*
X0024647Y0161992D01*
X0024647Y0163591D02*
X0023047Y0163591D01*
X0023047Y0165189D02*
X0024647Y0165189D01*
X0016443Y0168386D02*
X0035294Y0168386D01*
X0033696Y0169985D02*
X0016443Y0169985D01*
X0016443Y0171583D02*
X0032097Y0171583D01*
X0030499Y0173182D02*
X0028812Y0173182D01*
X0016520Y0173182D02*
X0016443Y0173182D01*
X0016443Y0157197D02*
X0016744Y0157197D01*
X0016443Y0155598D02*
X0017428Y0155598D01*
X0016443Y0154000D02*
X0018663Y0154000D01*
X0016443Y0149204D02*
X0048206Y0149204D01*
X0048206Y0147606D02*
X0016443Y0147606D01*
X0016443Y0146007D02*
X0048206Y0146007D01*
X0047108Y0144409D02*
X0016443Y0144409D01*
X0016443Y0142810D02*
X0045509Y0142810D01*
X0044825Y0141212D02*
X0016443Y0141212D01*
X0016443Y0139613D02*
X0044406Y0139613D01*
X0043223Y0138015D02*
X0016443Y0138015D01*
X0016443Y0136416D02*
X0031910Y0136416D01*
X0030292Y0134818D02*
X0016443Y0134818D01*
X0016443Y0133219D02*
X0028694Y0133219D01*
X0027095Y0131621D02*
X0016443Y0131621D01*
X0016443Y0130022D02*
X0023684Y0130022D01*
X0022085Y0128424D02*
X0016443Y0128424D01*
X0016443Y0126825D02*
X0021178Y0126825D01*
X0021178Y0125227D02*
X0016443Y0125227D01*
X0016443Y0123628D02*
X0021178Y0123628D01*
X0022397Y0122030D02*
X0016443Y0122030D01*
X0016443Y0120431D02*
X0023128Y0120431D01*
X0022494Y0118833D02*
X0016443Y0118833D01*
X0016443Y0117234D02*
X0021178Y0117234D01*
X0021178Y0115636D02*
X0016443Y0115636D01*
X0016443Y0114037D02*
X0021178Y0114037D01*
X0021988Y0112439D02*
X0016443Y0112439D01*
X0016443Y0110840D02*
X0023587Y0110840D01*
X0022338Y0109242D02*
X0016443Y0109242D01*
X0016443Y0107643D02*
X0020778Y0107643D01*
X0020778Y0106044D02*
X0016443Y0106044D01*
X0016443Y0104446D02*
X0020778Y0104446D01*
X0021014Y0102847D02*
X0016443Y0102847D01*
X0016443Y0101249D02*
X0022612Y0101249D01*
X0022746Y0099650D02*
X0016443Y0099650D01*
X0016443Y0098052D02*
X0021148Y0098052D01*
X0020778Y0096453D02*
X0016443Y0096453D01*
X0016443Y0094855D02*
X0020778Y0094855D01*
X0020778Y0093256D02*
X0016443Y0093256D01*
X0016443Y0091658D02*
X0022203Y0091658D01*
X0023155Y0090059D02*
X0016443Y0090059D01*
X0016443Y0088461D02*
X0021557Y0088461D01*
X0020778Y0086862D02*
X0016443Y0086862D01*
X0016443Y0085264D02*
X0026152Y0085264D01*
X0026153Y0085208D02*
X0026503Y0085208D01*
X0026503Y0075558D01*
X0026153Y0075558D01*
X0026153Y0080933D01*
X0026153Y0085208D01*
X0026153Y0085558D02*
X0026153Y0090933D01*
X0026153Y0095208D01*
X0026503Y0095208D01*
X0026503Y0085558D01*
X0026153Y0085558D01*
X0026153Y0086862D02*
X0026503Y0086862D01*
X0026503Y0088461D02*
X0026153Y0088461D01*
X0026153Y0090059D02*
X0026503Y0090059D01*
X0026503Y0091658D02*
X0026153Y0091658D01*
X0026153Y0093256D02*
X0026503Y0093256D01*
X0026503Y0094855D02*
X0026153Y0094855D01*
X0026153Y0095558D02*
X0026153Y0100933D01*
X0026153Y0105208D01*
X0026503Y0105208D01*
X0026503Y0095558D01*
X0026153Y0095558D01*
X0026153Y0096453D02*
X0026503Y0096453D01*
X0026503Y0098052D02*
X0026153Y0098052D01*
X0026153Y0099650D02*
X0026503Y0099650D01*
X0026503Y0101249D02*
X0026153Y0101249D01*
X0026153Y0102847D02*
X0026503Y0102847D01*
X0026503Y0104446D02*
X0026153Y0104446D01*
X0026153Y0083665D02*
X0026503Y0083665D01*
X0026503Y0082067D02*
X0026153Y0082067D01*
X0026153Y0080468D02*
X0026503Y0080468D01*
X0026503Y0078870D02*
X0026153Y0078870D01*
X0026153Y0077271D02*
X0026503Y0077271D01*
X0026503Y0075673D02*
X0026153Y0075673D01*
X0026153Y0075208D02*
X0026503Y0075208D01*
X0026503Y0065558D01*
X0026153Y0065558D01*
X0026153Y0070933D01*
X0026153Y0075208D01*
X0026153Y0074074D02*
X0026503Y0074074D01*
X0026503Y0072476D02*
X0026153Y0072476D01*
X0026153Y0070877D02*
X0026503Y0070877D01*
X0026503Y0069279D02*
X0026153Y0069279D01*
X0026153Y0067680D02*
X0026503Y0067680D01*
X0026503Y0066082D02*
X0026153Y0066082D01*
X0026153Y0065208D02*
X0026503Y0065208D01*
X0026503Y0055558D01*
X0026153Y0055558D01*
X0026153Y0060933D01*
X0026153Y0065208D01*
X0026153Y0064483D02*
X0026503Y0064483D01*
X0026503Y0062885D02*
X0026153Y0062885D01*
X0026153Y0061286D02*
X0026503Y0061286D01*
X0026503Y0059688D02*
X0026153Y0059688D01*
X0026153Y0058089D02*
X0026503Y0058089D01*
X0026503Y0056491D02*
X0026153Y0056491D01*
X0026153Y0054892D02*
X0026503Y0054892D01*
X0026503Y0053294D02*
X0026153Y0053294D01*
X0026153Y0051695D02*
X0026503Y0051695D01*
X0026503Y0050097D02*
X0026153Y0050097D01*
X0023765Y0050097D02*
X0016443Y0050097D01*
X0016443Y0051695D02*
X0022166Y0051695D01*
X0020778Y0053294D02*
X0016443Y0053294D01*
X0016443Y0054892D02*
X0020778Y0054892D01*
X0020778Y0056491D02*
X0016443Y0056491D01*
X0016443Y0058089D02*
X0021185Y0058089D01*
X0022784Y0059688D02*
X0016443Y0059688D01*
X0016443Y0061286D02*
X0022575Y0061286D01*
X0020977Y0062885D02*
X0016443Y0062885D01*
X0016443Y0064483D02*
X0020778Y0064483D01*
X0020778Y0066082D02*
X0016443Y0066082D01*
X0016443Y0067680D02*
X0020778Y0067680D01*
X0022375Y0069279D02*
X0016443Y0069279D01*
X0016443Y0070877D02*
X0022984Y0070877D01*
X0021386Y0072476D02*
X0016443Y0072476D01*
X0016443Y0074074D02*
X0020778Y0074074D01*
X0020778Y0075673D02*
X0016443Y0075673D01*
X0016443Y0077271D02*
X0020778Y0077271D01*
X0021966Y0078870D02*
X0016443Y0078870D01*
X0016443Y0080468D02*
X0023393Y0080468D01*
X0021795Y0082067D02*
X0016443Y0082067D01*
X0016443Y0083665D02*
X0020778Y0083665D01*
X0030489Y0051695D02*
X0032201Y0051695D01*
X0033360Y0050097D02*
X0028890Y0050097D01*
X0034958Y0048498D02*
X0016443Y0048498D01*
X0016443Y0046900D02*
X0036557Y0046900D01*
X0130924Y0027717D02*
X0204428Y0027717D01*
X0210282Y0030914D02*
X0219047Y0030914D01*
X0219047Y0030324D02*
X0221859Y0027512D01*
X0225835Y0027512D01*
X0227435Y0029112D01*
X0239550Y0029112D01*
X0241150Y0027512D01*
X0245127Y0027512D01*
X0247939Y0030324D01*
X0247939Y0034300D01*
X0245127Y0037112D01*
X0241150Y0037112D01*
X0239550Y0035512D01*
X0227435Y0035512D01*
X0225835Y0037112D01*
X0221859Y0037112D01*
X0219047Y0034300D01*
X0219047Y0030324D01*
X0220055Y0029316D02*
X0211880Y0029316D01*
X0213479Y0027717D02*
X0221653Y0027717D01*
X0226041Y0027717D02*
X0240945Y0027717D01*
X0245332Y0027717D02*
X0259670Y0027717D01*
X0260276Y0027112D02*
X0257230Y0030158D01*
X0257230Y0032312D01*
X0262430Y0032312D01*
X0262430Y0032312D01*
X0262430Y0027112D01*
X0260276Y0027112D01*
X0262430Y0027717D02*
X0262430Y0027717D01*
X0262430Y0029316D02*
X0262430Y0029316D01*
X0262430Y0030914D02*
X0262430Y0030914D01*
X0262430Y0032513D02*
X0262430Y0032513D01*
X0262430Y0034111D02*
X0262430Y0034111D01*
X0262430Y0035710D02*
X0262430Y0035710D01*
X0262430Y0037309D02*
X0262430Y0037309D01*
X0264787Y0037309D02*
X0301863Y0037309D01*
X0292652Y0038907D02*
X0248350Y0038907D01*
X0246529Y0035710D02*
X0258474Y0035710D01*
X0257230Y0034111D02*
X0247939Y0034111D01*
X0247939Y0032513D02*
X0257230Y0032513D01*
X0257230Y0030914D02*
X0247939Y0030914D01*
X0246931Y0029316D02*
X0258072Y0029316D01*
X0260073Y0037309D02*
X0210118Y0037309D01*
X0210118Y0038907D02*
X0242652Y0038907D01*
X0241449Y0040506D02*
X0210118Y0040506D01*
X0210118Y0042104D02*
X0241051Y0042104D01*
X0241244Y0043703D02*
X0218893Y0043703D01*
X0220055Y0045301D02*
X0242157Y0045301D01*
X0239749Y0035710D02*
X0227237Y0035710D01*
X0220457Y0035710D02*
X0210118Y0035710D01*
X0210118Y0034111D02*
X0219047Y0034111D01*
X0219047Y0032513D02*
X0210118Y0032513D01*
X0203718Y0038907D02*
X0202905Y0038907D01*
X0210118Y0043703D02*
X0213053Y0043703D01*
X0211892Y0045301D02*
X0210118Y0045301D01*
X0220068Y0061286D02*
X0220452Y0061286D01*
X0218803Y0062885D02*
X0218469Y0062885D01*
X0218216Y0064483D02*
X0216871Y0064483D01*
X0217245Y0066082D02*
X0215272Y0066082D01*
X0215646Y0067680D02*
X0213674Y0067680D01*
X0214048Y0069279D02*
X0212075Y0069279D01*
X0212449Y0070877D02*
X0210477Y0070877D01*
X0210851Y0072476D02*
X0208878Y0072476D01*
X0209252Y0074074D02*
X0207280Y0074074D01*
X0207654Y0075673D02*
X0205266Y0075673D01*
X0217625Y0093256D02*
X0219047Y0093256D01*
X0219047Y0094855D02*
X0216026Y0094855D01*
X0264668Y0086862D02*
X0286054Y0086862D01*
X0295968Y0088461D02*
X0297025Y0088461D01*
X0316811Y0088461D02*
X0317868Y0088461D01*
X0316881Y0078870D02*
X0316811Y0078870D01*
X0328427Y0090059D02*
X0335239Y0090059D01*
X0333401Y0091658D02*
X0329300Y0091658D01*
X0329518Y0093256D02*
X0331802Y0093256D01*
X0330204Y0094855D02*
X0329203Y0094855D01*
X0328605Y0096453D02*
X0328191Y0096453D01*
X0327007Y0098052D02*
X0316811Y0098052D01*
X0316811Y0107643D02*
X0317450Y0107643D01*
X0316971Y0118833D02*
X0316811Y0118833D01*
X0297025Y0118833D02*
X0296865Y0118833D01*
X0269387Y0142810D02*
X0268455Y0142810D01*
X0268132Y0144409D02*
X0270986Y0144409D01*
X0272584Y0146007D02*
X0267036Y0146007D01*
X0274183Y0147606D02*
X0245263Y0147606D01*
X0246861Y0146007D02*
X0260974Y0146007D01*
X0255357Y0150803D02*
X0277380Y0150803D01*
X0278978Y0152401D02*
X0257044Y0152401D01*
X0258731Y0154000D02*
X0280577Y0154000D01*
X0282175Y0155598D02*
X0260418Y0155598D01*
X0262106Y0157197D02*
X0283774Y0157197D01*
X0285372Y0158795D02*
X0263793Y0158795D01*
X0265480Y0160394D02*
X0286971Y0160394D01*
X0287612Y0161992D02*
X0267168Y0161992D01*
X0241014Y0147606D02*
X0225971Y0147606D01*
X0227307Y0139613D02*
X0239679Y0139613D01*
X0291918Y0214743D02*
X0291918Y0214743D01*
X0291918Y0216342D02*
X0291918Y0216342D01*
X0291918Y0217940D02*
X0291918Y0217940D01*
X0291918Y0219539D02*
X0291918Y0219539D01*
X0291918Y0221137D02*
X0291918Y0221137D01*
X0291918Y0222736D02*
X0291918Y0222736D01*
X0291918Y0224334D02*
X0291918Y0224334D01*
X0296370Y0214743D02*
X0297025Y0214743D01*
X0303425Y0216342D02*
X0310411Y0216342D01*
X0310411Y0217940D02*
X0303425Y0217940D01*
X0303425Y0219539D02*
X0310411Y0219539D01*
X0310411Y0221137D02*
X0303425Y0221137D01*
X0303425Y0222736D02*
X0310411Y0222736D01*
X0310411Y0224334D02*
X0303425Y0224334D01*
X0303425Y0225933D02*
X0310411Y0225933D01*
X0310411Y0227531D02*
X0303425Y0227531D01*
X0303425Y0229130D02*
X0310411Y0229130D01*
X0310411Y0230728D02*
X0303425Y0230728D01*
X0303425Y0232327D02*
X0310411Y0232327D01*
X0310411Y0233925D02*
X0303425Y0233925D01*
X0303425Y0235524D02*
X0310411Y0235524D01*
X0310411Y0237122D02*
X0303425Y0237122D01*
X0303425Y0238721D02*
X0310411Y0238721D01*
X0310411Y0240319D02*
X0303425Y0240319D01*
X0303425Y0241918D02*
X0310411Y0241918D01*
X0310411Y0243516D02*
X0303425Y0243516D01*
X0303425Y0245115D02*
X0310411Y0245115D01*
X0310411Y0246713D02*
X0303425Y0246713D01*
X0303425Y0248312D02*
X0310411Y0248312D01*
X0310405Y0249911D02*
X0303431Y0249911D01*
X0305025Y0251509D02*
X0308811Y0251509D01*
X0308811Y0253108D02*
X0305025Y0253108D01*
X0305025Y0254706D02*
X0308811Y0254706D01*
X0309634Y0256305D02*
X0304202Y0256305D01*
X0302603Y0257903D02*
X0311233Y0257903D01*
X0310248Y0259502D02*
X0303588Y0259502D01*
X0302379Y0258293D02*
X0305425Y0261339D01*
X0305425Y0263493D01*
X0300225Y0263493D01*
X0300225Y0263493D01*
X0300225Y0258293D01*
X0302379Y0258293D01*
X0300225Y0259502D02*
X0300225Y0259502D01*
X0300225Y0261100D02*
X0300225Y0261100D01*
X0300225Y0262699D02*
X0300225Y0262699D01*
X0305425Y0262699D02*
X0308411Y0262699D01*
X0308411Y0264297D02*
X0305425Y0264297D01*
X0305176Y0265896D02*
X0308660Y0265896D01*
X0310258Y0267494D02*
X0303578Y0267494D01*
X0313611Y0263493D02*
X0313611Y0263493D01*
X0313611Y0262699D02*
X0313611Y0262699D01*
X0313611Y0261100D02*
X0313611Y0261100D01*
X0313611Y0259502D02*
X0313611Y0259502D01*
X0315989Y0257903D02*
X0318718Y0257903D01*
X0318718Y0256305D02*
X0317588Y0256305D01*
X0318411Y0254706D02*
X0318718Y0254706D01*
X0318718Y0253108D02*
X0318411Y0253108D01*
X0318411Y0251509D02*
X0318718Y0251509D01*
X0318718Y0249911D02*
X0316817Y0249911D01*
X0316811Y0248312D02*
X0318718Y0248312D01*
X0318718Y0246713D02*
X0316811Y0246713D01*
X0316811Y0245115D02*
X0318718Y0245115D01*
X0316839Y0233925D02*
X0316811Y0233925D01*
X0316811Y0224334D02*
X0317826Y0224334D01*
X0327765Y0225933D02*
X0400937Y0225933D01*
X0400937Y0227531D02*
X0356860Y0227531D01*
X0372373Y0205152D02*
X0387526Y0205152D01*
X0391665Y0205152D02*
X0400937Y0205152D01*
X0400937Y0203554D02*
X0368512Y0203554D01*
X0366914Y0201955D02*
X0400937Y0201955D01*
X0400937Y0200357D02*
X0365315Y0200357D01*
X0363717Y0198758D02*
X0400937Y0198758D01*
X0400937Y0197160D02*
X0362118Y0197160D01*
X0393263Y0206751D02*
X0400937Y0206751D01*
X0400937Y0208349D02*
X0394395Y0208349D01*
X0394395Y0209948D02*
X0400937Y0209948D01*
X0400937Y0211546D02*
X0394395Y0211546D01*
X0399789Y0264297D02*
X0400937Y0264297D01*
X0318718Y0261100D02*
X0318572Y0261100D01*
X0318718Y0259502D02*
X0316974Y0259502D01*
X0308650Y0261100D02*
X0305186Y0261100D01*
X0282511Y0257903D02*
X0273452Y0257903D01*
X0271854Y0256305D02*
X0280913Y0256305D01*
X0279366Y0254706D02*
X0270255Y0254706D01*
X0268657Y0253108D02*
X0278915Y0253108D01*
X0278915Y0251509D02*
X0267058Y0251509D01*
X0266024Y0249911D02*
X0278915Y0249911D01*
X0278915Y0248312D02*
X0266024Y0248312D01*
X0266024Y0246713D02*
X0278915Y0246713D01*
X0278915Y0245115D02*
X0266024Y0245115D01*
X0275051Y0259502D02*
X0281506Y0259502D01*
X0240390Y0265896D02*
X0229631Y0265896D01*
X0228033Y0267494D02*
X0238791Y0267494D01*
X0237939Y0269093D02*
X0228647Y0269093D01*
X0228647Y0270691D02*
X0237939Y0270691D01*
X0237939Y0272290D02*
X0228647Y0272290D01*
X0227248Y0273888D02*
X0239172Y0273888D01*
X0047451Y0187569D02*
X0039966Y0187569D01*
X0038368Y0189167D02*
X0045852Y0189167D01*
X0044254Y0190766D02*
X0029803Y0190766D01*
X0027457Y0192364D02*
X0042655Y0192364D01*
X0041057Y0193963D02*
X0029593Y0193963D01*
X0042351Y0160394D02*
X0042351Y0160394D01*
X0042351Y0158795D02*
X0042351Y0158795D01*
X0042351Y0157197D02*
X0042351Y0157197D01*
X0037151Y0157197D02*
X0030950Y0157197D01*
X0030266Y0155598D02*
X0037151Y0155598D01*
X0037151Y0154000D02*
X0029032Y0154000D01*
X0026577Y0152401D02*
X0038451Y0152401D01*
X0283636Y0058089D02*
X0294115Y0058089D01*
D21*
X0023454Y0143532D03*
M02*
