%
M48
M72
T01C0.02500
T02C0.03200
T03C0.03900
T04C0.08300
%
T01
X37627Y40776
X202981Y118729
X212036Y119517
X264005Y142745
X288020Y149831
X291957Y160855
X293926Y166761
X307312Y102981
X277391Y78178
X277391Y66761
X295501Y42351
X245501Y42351
X215973Y47076
X222666Y65186
X284477Y262824
X290776Y265580
T02
X300225Y263493
X300225Y253493
X313611Y253493
X313611Y263493
X321918Y239674
X321918Y229674
X321918Y219674
X321918Y209674
X321918Y199674
X321918Y189674
X321918Y179674
X291918Y179674
X291918Y189674
X291918Y199674
X291918Y209674
X291918Y219674
X291918Y229674
X291918Y239674
X262430Y220501
X243139Y220501
X243139Y209871
X223847Y209871
X223847Y220501
X179950Y224635
X129950Y224635
X129950Y181328
X179950Y181328
X223847Y159871
X243139Y159871
X243139Y142942
X223847Y142942
X180343Y138020
X130343Y138020
X114398Y95304
X99044Y95304
X151406Y57587
X167115Y52706
X167115Y62706
X167115Y72706
X177115Y86839
X187115Y86839
X197115Y72706
X197115Y62706
X197115Y52706
X197115Y42706
X223847Y32312
X243139Y32312
X262430Y32312
X291918Y63139
X291918Y73139
X291918Y83139
X291918Y93139
X291918Y103139
X291918Y113139
X291918Y123139
X300225Y136957
X300225Y146957
X313611Y146957
X313611Y136957
X321918Y123139
X321918Y113139
X321918Y103139
X321918Y93139
X321918Y83139
X321918Y73139
X321918Y63139
X351013Y82312
X351013Y92942
X370304Y92942
X370304Y82312
X389595Y92942
X389595Y142942
X370304Y142942
X351013Y142942
X351013Y159871
X370304Y159871
X389595Y159871
X389595Y209871
X370304Y209871
X370304Y220894
X351013Y220894
X351013Y209871
X351013Y270894
X370304Y270894
X262430Y270501
X243139Y270501
X223847Y270501
X179556Y267942
X129556Y267942
X64280Y217548
X54280Y217548
X54280Y201406
X64280Y201406
X64280Y185265
X54280Y185265
X54280Y169123
X64280Y169123
X42351Y165855
X42351Y155855
X99044Y45304
X114398Y45304
X151406Y47587
X167115Y42706
X223847Y82312
X223847Y92942
X243139Y92942
X243139Y82312
X262430Y82312
X351013Y32312
X370304Y32312
T03
X100383Y128965
X80383Y128965
X36328Y125383
X26328Y125383
X26328Y115383
X36328Y115383
X36328Y105383
X26328Y105383
X26328Y95383
X36328Y95383
X36328Y85383
X26328Y85383
X26328Y75383
X36328Y75383
X36328Y65383
X26328Y65383
X26328Y55383
X36328Y55383
X53847Y32115
X63847Y32115
X73847Y32115
X83847Y32115
X93847Y32115
X100383Y172272
X80383Y172272
X22666Y177469
X22666Y187469
X22666Y197469
X22666Y207469
X22666Y217469
X80383Y215580
X100383Y215580
X100383Y258887
X80383Y258887
T04
X23060Y23454
X23454Y143532
X22666Y271879
X394713Y271879
X395107Y23060
M30
