G75*
%MOIN*%
%OFA0B0*%
%FSLAX25Y25*%
%IPPOS*%
%LPD*%
%AMOC8*
5,1,8,0,0,1.08239X$1,22.5*
%
%ADD10C,0.10000*%
%ADD11OC8,0.10000*%
%ADD12OC8,0.05600*%
%ADD13C,0.05600*%
%ADD14OC8,0.06300*%
%ADD15C,0.06300*%
%ADD16C,0.02400*%
%ADD17C,0.04900*%
%ADD18C,0.01600*%
%ADD19C,0.12300*%
D10*
X0080383Y0128965D03*
X0080383Y0172272D03*
X0080383Y0215580D03*
X0080383Y0258887D03*
D11*
X0100383Y0258887D03*
X0100383Y0215580D03*
X0100383Y0172272D03*
X0100383Y0128965D03*
D12*
X0130343Y0138020D03*
X0180343Y0138020D03*
X0223847Y0142942D03*
X0243139Y0142942D03*
X0243139Y0159871D03*
X0223847Y0159871D03*
X0179950Y0181328D03*
X0129950Y0181328D03*
X0129950Y0224635D03*
X0179950Y0224635D03*
X0223847Y0220501D03*
X0223847Y0209871D03*
X0243139Y0209871D03*
X0243139Y0220501D03*
X0262430Y0220501D03*
X0300225Y0253493D03*
X0300225Y0263493D03*
X0313611Y0263493D03*
X0313611Y0253493D03*
X0351013Y0270894D03*
X0370304Y0270894D03*
X0370304Y0220894D03*
X0370304Y0209871D03*
X0389595Y0209871D03*
X0351013Y0209871D03*
X0351013Y0220894D03*
X0351013Y0159871D03*
X0370304Y0159871D03*
X0389595Y0159871D03*
X0389595Y0142942D03*
X0370304Y0142942D03*
X0351013Y0142942D03*
X0313611Y0146957D03*
X0313611Y0136957D03*
X0300225Y0136957D03*
X0300225Y0146957D03*
X0351013Y0092942D03*
X0351013Y0082312D03*
X0370304Y0082312D03*
X0370304Y0092942D03*
X0389595Y0092942D03*
X0370304Y0032312D03*
X0351013Y0032312D03*
X0262430Y0032312D03*
X0243139Y0032312D03*
X0223847Y0032312D03*
X0223847Y0082312D03*
X0223847Y0092942D03*
X0243139Y0092942D03*
X0243139Y0082312D03*
X0262430Y0082312D03*
X0187115Y0086839D03*
X0177115Y0086839D03*
X0151406Y0057587D03*
X0151406Y0047587D03*
X0114398Y0045304D03*
X0099044Y0045304D03*
X0099044Y0095304D03*
X0114398Y0095304D03*
X0042351Y0155855D03*
X0042351Y0165855D03*
X0054280Y0169123D03*
X0064280Y0169123D03*
X0064280Y0185265D03*
X0054280Y0185265D03*
X0054280Y0201406D03*
X0064280Y0201406D03*
X0064280Y0217548D03*
X0054280Y0217548D03*
X0129556Y0267942D03*
X0179556Y0267942D03*
X0223847Y0270501D03*
X0243139Y0270501D03*
X0262430Y0270501D03*
D13*
X0289118Y0239674D02*
X0294718Y0239674D01*
X0294718Y0229674D02*
X0289118Y0229674D01*
X0289118Y0219674D02*
X0294718Y0219674D01*
X0294718Y0209674D02*
X0289118Y0209674D01*
X0289118Y0199674D02*
X0294718Y0199674D01*
X0294718Y0189674D02*
X0289118Y0189674D01*
X0289118Y0179674D02*
X0294718Y0179674D01*
X0319118Y0179674D02*
X0324718Y0179674D01*
X0324718Y0189674D02*
X0319118Y0189674D01*
X0319118Y0199674D02*
X0324718Y0199674D01*
X0324718Y0209674D02*
X0319118Y0209674D01*
X0319118Y0219674D02*
X0324718Y0219674D01*
X0324718Y0229674D02*
X0319118Y0229674D01*
X0319118Y0239674D02*
X0324718Y0239674D01*
X0324718Y0123139D02*
X0319118Y0123139D01*
X0319118Y0113139D02*
X0324718Y0113139D01*
X0324718Y0103139D02*
X0319118Y0103139D01*
X0319118Y0093139D02*
X0324718Y0093139D01*
X0324718Y0083139D02*
X0319118Y0083139D01*
X0319118Y0073139D02*
X0324718Y0073139D01*
X0324718Y0063139D02*
X0319118Y0063139D01*
X0294718Y0063139D02*
X0289118Y0063139D01*
X0289118Y0073139D02*
X0294718Y0073139D01*
X0294718Y0083139D02*
X0289118Y0083139D01*
X0289118Y0093139D02*
X0294718Y0093139D01*
X0294718Y0103139D02*
X0289118Y0103139D01*
X0289118Y0113139D02*
X0294718Y0113139D01*
X0294718Y0123139D02*
X0289118Y0123139D01*
X0199915Y0072706D02*
X0194315Y0072706D01*
X0194315Y0062706D02*
X0199915Y0062706D01*
X0199915Y0052706D02*
X0194315Y0052706D01*
X0194315Y0042706D02*
X0199915Y0042706D01*
X0169915Y0042706D02*
X0164315Y0042706D01*
X0164315Y0052706D02*
X0169915Y0052706D01*
X0169915Y0062706D02*
X0164315Y0062706D01*
X0164315Y0072706D02*
X0169915Y0072706D01*
D14*
X0036328Y0075383D03*
X0026328Y0075383D03*
X0026328Y0085383D03*
X0036328Y0085383D03*
X0036328Y0095383D03*
X0026328Y0095383D03*
X0026328Y0105383D03*
X0036328Y0105383D03*
X0036328Y0115383D03*
X0026328Y0115383D03*
X0026328Y0125383D03*
X0036328Y0125383D03*
X0036328Y0065383D03*
X0026328Y0065383D03*
X0026328Y0055383D03*
X0036328Y0055383D03*
D15*
X0053847Y0035265D02*
X0053847Y0028965D01*
X0063847Y0028965D02*
X0063847Y0035265D01*
X0073847Y0035265D02*
X0073847Y0028965D01*
X0083847Y0028965D02*
X0083847Y0035265D01*
X0093847Y0035265D02*
X0093847Y0028965D01*
X0025816Y0177469D02*
X0019516Y0177469D01*
X0019516Y0187469D02*
X0025816Y0187469D01*
X0025816Y0197469D02*
X0019516Y0197469D01*
X0019516Y0207469D02*
X0025816Y0207469D01*
X0025816Y0217469D02*
X0019516Y0217469D01*
D16*
X0036328Y0125383D02*
X0042784Y0125383D01*
X0046288Y0121879D01*
X0046288Y0051013D01*
X0037627Y0042351D01*
X0037627Y0040776D01*
X0046288Y0051013D02*
X0046288Y0025422D01*
X0050619Y0021091D01*
X0358690Y0021091D01*
X0370304Y0032312D01*
X0360855Y0065580D02*
X0330934Y0035658D01*
X0282115Y0035658D01*
X0277391Y0040383D01*
X0277391Y0066761D01*
X0291839Y0073060D02*
X0291918Y0073139D01*
X0291839Y0073060D02*
X0259674Y0073060D01*
X0253769Y0067154D01*
X0253769Y0037627D01*
X0248454Y0032312D01*
X0243139Y0032312D01*
X0245501Y0042351D02*
X0222666Y0065186D01*
X0215973Y0047076D02*
X0199438Y0030540D01*
X0139595Y0030540D01*
X0122666Y0047469D01*
X0122666Y0087036D01*
X0114398Y0095304D01*
X0114005Y0109280D02*
X0100028Y0095304D01*
X0099044Y0095304D01*
X0114005Y0109280D02*
X0221091Y0109280D01*
X0283690Y0171879D01*
X0304556Y0171879D01*
X0308887Y0176209D01*
X0308887Y0214005D01*
X0314792Y0219910D01*
X0321682Y0219910D01*
X0321918Y0219674D01*
X0321918Y0229674D02*
X0319595Y0229674D01*
X0319517Y0229753D01*
X0312430Y0229753D01*
X0293532Y0248650D01*
X0293532Y0253769D01*
X0284477Y0262824D01*
X0285265Y0263611D01*
X0285658Y0263611D01*
X0284477Y0262824D01*
X0290776Y0265580D02*
X0290776Y0267154D01*
X0293926Y0270304D01*
X0324241Y0270304D01*
X0335658Y0258887D01*
X0335658Y0232902D01*
X0347666Y0220894D01*
X0351013Y0220894D01*
X0321918Y0179674D02*
X0321879Y0179635D01*
X0321879Y0174635D01*
X0314005Y0166761D01*
X0293926Y0166761D01*
X0291957Y0160855D02*
X0337627Y0160855D01*
X0343532Y0166761D01*
X0363414Y0166761D01*
X0370304Y0159871D01*
X0364005Y0151800D02*
X0345894Y0151800D01*
X0340776Y0156918D01*
X0295107Y0156918D01*
X0288020Y0149831D01*
X0288414Y0142745D02*
X0298650Y0152981D01*
X0315580Y0152981D01*
X0321918Y0146643D01*
X0321918Y0123139D01*
X0321839Y0113217D02*
X0306131Y0113217D01*
X0301800Y0117548D01*
X0301800Y0125422D01*
X0298650Y0128572D01*
X0284477Y0128572D01*
X0248454Y0092942D01*
X0243139Y0092942D01*
X0277391Y0105343D02*
X0277391Y0078178D01*
X0307312Y0102981D02*
X0307469Y0103139D01*
X0321918Y0103139D01*
X0321918Y0113139D02*
X0321839Y0113217D01*
X0291918Y0113139D02*
X0291839Y0113217D01*
X0285265Y0113217D01*
X0277391Y0105343D01*
X0288414Y0142745D02*
X0264005Y0142745D01*
X0243335Y0159871D02*
X0278965Y0195501D01*
X0278965Y0235658D01*
X0282902Y0239595D01*
X0282509Y0239595D01*
X0278965Y0243139D01*
X0278965Y0265973D01*
X0287233Y0274241D01*
X0347666Y0274241D01*
X0351013Y0270894D01*
X0291918Y0239674D02*
X0291839Y0239595D01*
X0282902Y0239595D01*
X0212036Y0240776D02*
X0212036Y0119517D01*
X0202981Y0119910D02*
X0184871Y0138020D01*
X0180343Y0138020D01*
X0202981Y0119910D02*
X0202981Y0118729D01*
X0187115Y0086839D02*
X0187233Y0086721D01*
X0187233Y0066367D01*
X0190894Y0062706D01*
X0197115Y0062706D01*
X0295501Y0042351D02*
X0301131Y0042351D01*
X0321918Y0063139D01*
X0360855Y0065580D02*
X0360855Y0088808D01*
X0364989Y0092942D01*
X0370304Y0092942D01*
X0370304Y0142942D02*
X0370304Y0145501D01*
X0364005Y0151800D01*
X0243335Y0159871D02*
X0243139Y0159871D01*
X0212036Y0240776D02*
X0184871Y0267942D01*
X0179556Y0267942D01*
D17*
X0284477Y0262824D03*
X0290776Y0265580D03*
X0293926Y0166761D03*
X0291957Y0160855D03*
X0288020Y0149831D03*
X0264005Y0142745D03*
X0212036Y0119517D03*
X0202981Y0118729D03*
X0277391Y0078178D03*
X0277391Y0066761D03*
X0295501Y0042351D03*
X0245501Y0042351D03*
X0215973Y0047076D03*
X0222666Y0065186D03*
X0307312Y0102981D03*
X0037627Y0040776D03*
D18*
X0029887Y0017624D02*
X0387886Y0017624D01*
X0387520Y0017990D01*
X0386157Y0021280D01*
X0386157Y0024840D01*
X0387520Y0028130D01*
X0390037Y0030647D01*
X0393327Y0032010D01*
X0396887Y0032010D01*
X0400177Y0030647D01*
X0400937Y0029887D01*
X0400937Y0265445D01*
X0399783Y0264291D01*
X0396494Y0262929D01*
X0392933Y0262929D01*
X0389644Y0264291D01*
X0387126Y0266809D01*
X0385763Y0270098D01*
X0385763Y0273659D01*
X0387126Y0276948D01*
X0388280Y0278102D01*
X0029100Y0278102D01*
X0030254Y0276948D01*
X0031616Y0273659D01*
X0031616Y0270098D01*
X0030254Y0266809D01*
X0027736Y0264291D01*
X0024446Y0262929D01*
X0020886Y0262929D01*
X0017596Y0264291D01*
X0016443Y0265445D01*
X0016443Y0221679D01*
X0016599Y0221835D01*
X0018492Y0222619D01*
X0026841Y0222619D01*
X0028733Y0221835D01*
X0030182Y0220387D01*
X0030966Y0218494D01*
X0030966Y0216445D01*
X0030182Y0214552D01*
X0028733Y0213103D01*
X0027203Y0212469D01*
X0028733Y0211835D01*
X0030182Y0210387D01*
X0030966Y0208494D01*
X0030966Y0206445D01*
X0030182Y0204552D01*
X0028733Y0203103D01*
X0027203Y0202469D01*
X0028733Y0201835D01*
X0030182Y0200387D01*
X0030966Y0198494D01*
X0030966Y0196445D01*
X0030182Y0194552D01*
X0028733Y0193103D01*
X0027203Y0192469D01*
X0028733Y0191835D01*
X0030182Y0190387D01*
X0030966Y0188494D01*
X0030966Y0186445D01*
X0030182Y0184552D01*
X0028733Y0183103D01*
X0027203Y0182469D01*
X0028733Y0181835D01*
X0030182Y0180387D01*
X0030966Y0178494D01*
X0030966Y0176445D01*
X0030182Y0174552D01*
X0028733Y0173103D01*
X0026841Y0172319D01*
X0018492Y0172319D01*
X0016599Y0173103D01*
X0016443Y0173260D01*
X0016443Y0029493D01*
X0017990Y0031041D01*
X0021280Y0032404D01*
X0024840Y0032404D01*
X0028130Y0031041D01*
X0030647Y0028523D01*
X0032010Y0025234D01*
X0032010Y0021673D01*
X0030647Y0018384D01*
X0029887Y0017624D01*
X0030390Y0018126D02*
X0049415Y0018126D01*
X0049982Y0017891D02*
X0048806Y0018379D01*
X0047906Y0019279D01*
X0043575Y0023609D01*
X0043088Y0024786D01*
X0043088Y0043287D01*
X0041897Y0042096D01*
X0042077Y0041662D01*
X0042077Y0039891D01*
X0041399Y0038256D01*
X0040147Y0037004D01*
X0038512Y0036326D01*
X0036742Y0036326D01*
X0035106Y0037004D01*
X0033854Y0038256D01*
X0033177Y0039891D01*
X0033177Y0041662D01*
X0033854Y0043297D01*
X0035106Y0044549D01*
X0035435Y0044685D01*
X0043088Y0052338D01*
X0043088Y0120553D01*
X0041459Y0122183D01*
X0040411Y0122183D01*
X0038611Y0120383D01*
X0041478Y0117516D01*
X0041478Y0113249D01*
X0038611Y0110383D01*
X0041478Y0107516D01*
X0041478Y0103249D01*
X0038611Y0100383D01*
X0041478Y0097516D01*
X0041478Y0093249D01*
X0038611Y0090383D01*
X0041478Y0087516D01*
X0041478Y0083249D01*
X0038611Y0080383D01*
X0041478Y0077516D01*
X0041478Y0073249D01*
X0038611Y0070383D01*
X0041478Y0067516D01*
X0041478Y0063249D01*
X0038611Y0060383D01*
X0041478Y0057516D01*
X0041478Y0053249D01*
X0038461Y0050233D01*
X0034194Y0050233D01*
X0031610Y0052817D01*
X0028626Y0049833D01*
X0026503Y0049833D01*
X0026503Y0055208D01*
X0026153Y0055208D01*
X0026153Y0049833D01*
X0024029Y0049833D01*
X0020778Y0053084D01*
X0020778Y0055208D01*
X0026152Y0055208D01*
X0026152Y0055558D01*
X0020778Y0055558D01*
X0020778Y0057682D01*
X0023479Y0060383D01*
X0020778Y0063084D01*
X0020778Y0065208D01*
X0026152Y0065208D01*
X0026152Y0065558D01*
X0020778Y0065558D01*
X0020778Y0067682D01*
X0023479Y0070383D01*
X0020778Y0073084D01*
X0020778Y0075208D01*
X0026152Y0075208D01*
X0026152Y0075558D01*
X0020778Y0075558D01*
X0020778Y0077682D01*
X0023479Y0080383D01*
X0020778Y0083084D01*
X0020778Y0085208D01*
X0026152Y0085208D01*
X0026152Y0085558D01*
X0020778Y0085558D01*
X0020778Y0087682D01*
X0023479Y0090383D01*
X0020778Y0093084D01*
X0020778Y0095208D01*
X0026152Y0095208D01*
X0026152Y0095558D01*
X0020778Y0095558D01*
X0020778Y0097682D01*
X0023479Y0100383D01*
X0020778Y0103084D01*
X0020778Y0105208D01*
X0026152Y0105208D01*
X0026152Y0105558D01*
X0020778Y0105558D01*
X0020778Y0107682D01*
X0023762Y0110666D01*
X0021178Y0113249D01*
X0021178Y0117516D01*
X0024044Y0120383D01*
X0021178Y0123249D01*
X0021178Y0127516D01*
X0024194Y0130533D01*
X0028461Y0130533D01*
X0031328Y0127666D01*
X0034194Y0130533D01*
X0038461Y0130533D01*
X0040411Y0128583D01*
X0043421Y0128583D01*
X0044597Y0128095D01*
X0048101Y0124592D01*
X0049001Y0123691D01*
X0049488Y0122515D01*
X0049488Y0038189D01*
X0050930Y0039631D01*
X0052823Y0040415D01*
X0054872Y0040415D01*
X0056764Y0039631D01*
X0058213Y0038182D01*
X0058847Y0036651D01*
X0059481Y0038182D01*
X0060930Y0039631D01*
X0062823Y0040415D01*
X0064872Y0040415D01*
X0066764Y0039631D01*
X0068213Y0038182D01*
X0068631Y0037172D01*
X0068704Y0037395D01*
X0069100Y0038174D01*
X0069614Y0038881D01*
X0070232Y0039498D01*
X0070938Y0040012D01*
X0071717Y0040408D01*
X0072548Y0040678D01*
X0073410Y0040815D01*
X0073672Y0040815D01*
X0073672Y0032290D01*
X0074022Y0032290D01*
X0074022Y0040815D01*
X0074284Y0040815D01*
X0075147Y0040678D01*
X0075978Y0040408D01*
X0076756Y0040012D01*
X0077463Y0039498D01*
X0078081Y0038881D01*
X0078594Y0038174D01*
X0078847Y0037677D01*
X0079100Y0038174D01*
X0079614Y0038881D01*
X0080232Y0039498D01*
X0080938Y0040012D01*
X0081717Y0040408D01*
X0082548Y0040678D01*
X0083410Y0040815D01*
X0083672Y0040815D01*
X0083672Y0032290D01*
X0083672Y0031940D01*
X0074022Y0031940D01*
X0074022Y0032290D01*
X0079397Y0032290D01*
X0083672Y0032290D01*
X0084022Y0032290D01*
X0084022Y0040815D01*
X0084284Y0040815D01*
X0085147Y0040678D01*
X0085978Y0040408D01*
X0086756Y0040012D01*
X0087463Y0039498D01*
X0088081Y0038881D01*
X0088594Y0038174D01*
X0088991Y0037395D01*
X0089063Y0037172D01*
X0089481Y0038182D01*
X0090930Y0039631D01*
X0092823Y0040415D01*
X0094872Y0040415D01*
X0096764Y0039631D01*
X0098213Y0038182D01*
X0098997Y0036289D01*
X0098997Y0027941D01*
X0098213Y0026048D01*
X0096764Y0024599D01*
X0096022Y0024291D01*
X0357396Y0024291D01*
X0365504Y0032124D01*
X0365504Y0034300D01*
X0368316Y0037112D01*
X0372292Y0037112D01*
X0375104Y0034300D01*
X0375104Y0030324D01*
X0372292Y0027512D01*
X0369941Y0027512D01*
X0360933Y0018809D01*
X0360502Y0018379D01*
X0360476Y0018368D01*
X0360455Y0018348D01*
X0359889Y0018124D01*
X0359326Y0017891D01*
X0359298Y0017891D01*
X0359271Y0017881D01*
X0358662Y0017891D01*
X0049982Y0017891D01*
X0047460Y0019725D02*
X0031203Y0019725D01*
X0031865Y0021323D02*
X0045861Y0021323D01*
X0044263Y0022922D02*
X0032010Y0022922D01*
X0032010Y0024520D02*
X0043198Y0024520D01*
X0043088Y0026119D02*
X0031643Y0026119D01*
X0030981Y0027717D02*
X0043088Y0027717D01*
X0043088Y0029316D02*
X0029855Y0029316D01*
X0028256Y0030914D02*
X0043088Y0030914D01*
X0043088Y0032513D02*
X0016443Y0032513D01*
X0016443Y0034111D02*
X0043088Y0034111D01*
X0043088Y0035710D02*
X0016443Y0035710D01*
X0016443Y0037309D02*
X0034801Y0037309D01*
X0033584Y0038907D02*
X0016443Y0038907D01*
X0016443Y0040506D02*
X0033177Y0040506D01*
X0033360Y0042104D02*
X0016443Y0042104D01*
X0016443Y0043703D02*
X0034260Y0043703D01*
X0036051Y0045301D02*
X0016443Y0045301D01*
X0016443Y0046900D02*
X0037650Y0046900D01*
X0039248Y0048498D02*
X0016443Y0048498D01*
X0016443Y0050097D02*
X0023765Y0050097D01*
X0022166Y0051695D02*
X0016443Y0051695D01*
X0016443Y0053294D02*
X0020778Y0053294D01*
X0020778Y0054892D02*
X0016443Y0054892D01*
X0016443Y0056491D02*
X0020778Y0056491D01*
X0021185Y0058089D02*
X0016443Y0058089D01*
X0016443Y0059688D02*
X0022784Y0059688D01*
X0022575Y0061286D02*
X0016443Y0061286D01*
X0016443Y0062885D02*
X0020977Y0062885D01*
X0020778Y0064483D02*
X0016443Y0064483D01*
X0016443Y0066082D02*
X0020778Y0066082D01*
X0020778Y0067680D02*
X0016443Y0067680D01*
X0016443Y0069279D02*
X0022375Y0069279D01*
X0022984Y0070877D02*
X0016443Y0070877D01*
X0016443Y0072476D02*
X0021386Y0072476D01*
X0020778Y0074074D02*
X0016443Y0074074D01*
X0016443Y0075673D02*
X0020778Y0075673D01*
X0020778Y0077271D02*
X0016443Y0077271D01*
X0016443Y0078870D02*
X0021966Y0078870D01*
X0023393Y0080468D02*
X0016443Y0080468D01*
X0016443Y0082067D02*
X0021795Y0082067D01*
X0020778Y0083665D02*
X0016443Y0083665D01*
X0016443Y0085264D02*
X0026152Y0085264D01*
X0026153Y0085208D02*
X0026503Y0085208D01*
X0026503Y0075558D01*
X0026153Y0075558D01*
X0026153Y0080933D01*
X0026153Y0085208D01*
X0026153Y0085558D02*
X0026153Y0090933D01*
X0026153Y0095208D01*
X0026503Y0095208D01*
X0026503Y0085558D01*
X0026153Y0085558D01*
X0026153Y0086862D02*
X0026503Y0086862D01*
X0026503Y0088461D02*
X0026153Y0088461D01*
X0026153Y0090059D02*
X0026503Y0090059D01*
X0026503Y0091658D02*
X0026153Y0091658D01*
X0026153Y0093256D02*
X0026503Y0093256D01*
X0026503Y0094855D02*
X0026153Y0094855D01*
X0026153Y0095558D02*
X0026153Y0100933D01*
X0026153Y0105208D01*
X0026503Y0105208D01*
X0026503Y0095558D01*
X0026153Y0095558D01*
X0026153Y0096453D02*
X0026503Y0096453D01*
X0026503Y0098052D02*
X0026153Y0098052D01*
X0026153Y0099650D02*
X0026503Y0099650D01*
X0026503Y0101249D02*
X0026153Y0101249D01*
X0026153Y0102847D02*
X0026503Y0102847D01*
X0026503Y0104446D02*
X0026153Y0104446D01*
X0022612Y0101249D02*
X0016443Y0101249D01*
X0016443Y0102847D02*
X0021014Y0102847D01*
X0020778Y0104446D02*
X0016443Y0104446D01*
X0016443Y0106044D02*
X0020778Y0106044D01*
X0020778Y0107643D02*
X0016443Y0107643D01*
X0016443Y0109242D02*
X0022338Y0109242D01*
X0023587Y0110840D02*
X0016443Y0110840D01*
X0016443Y0112439D02*
X0021988Y0112439D01*
X0021178Y0114037D02*
X0016443Y0114037D01*
X0016443Y0115636D02*
X0021178Y0115636D01*
X0021178Y0117234D02*
X0016443Y0117234D01*
X0016443Y0118833D02*
X0022494Y0118833D01*
X0023996Y0120431D02*
X0016443Y0120431D01*
X0016443Y0122030D02*
X0022397Y0122030D01*
X0021178Y0123628D02*
X0016443Y0123628D01*
X0016443Y0125227D02*
X0021178Y0125227D01*
X0021178Y0126825D02*
X0016443Y0126825D01*
X0016443Y0128424D02*
X0022085Y0128424D01*
X0023684Y0130022D02*
X0016443Y0130022D01*
X0016443Y0131621D02*
X0073906Y0131621D01*
X0073383Y0130358D02*
X0073383Y0127573D01*
X0074448Y0125000D01*
X0076417Y0123031D01*
X0078990Y0121965D01*
X0081775Y0121965D01*
X0084348Y0123031D01*
X0086317Y0125000D01*
X0087383Y0127573D01*
X0087383Y0130358D01*
X0086317Y0132931D01*
X0084348Y0134900D01*
X0081775Y0135965D01*
X0078990Y0135965D01*
X0076417Y0134900D01*
X0074448Y0132931D01*
X0073383Y0130358D01*
X0073383Y0130022D02*
X0038971Y0130022D01*
X0043805Y0128424D02*
X0073383Y0128424D01*
X0073692Y0126825D02*
X0045867Y0126825D01*
X0047466Y0125227D02*
X0074355Y0125227D01*
X0075820Y0123628D02*
X0049027Y0123628D01*
X0049488Y0122030D02*
X0078835Y0122030D01*
X0081930Y0122030D02*
X0096853Y0122030D01*
X0097317Y0121565D02*
X0100208Y0121565D01*
X0100208Y0128790D01*
X0100558Y0128790D01*
X0100558Y0129140D01*
X0107783Y0129140D01*
X0107783Y0132031D01*
X0103448Y0136365D01*
X0100558Y0136365D01*
X0100558Y0129140D01*
X0100208Y0129140D01*
X0100208Y0128790D01*
X0092983Y0128790D01*
X0092983Y0125900D01*
X0097317Y0121565D01*
X0095255Y0123628D02*
X0084945Y0123628D01*
X0086411Y0125227D02*
X0093656Y0125227D01*
X0092983Y0126825D02*
X0087073Y0126825D01*
X0087383Y0128424D02*
X0092983Y0128424D01*
X0092983Y0129140D02*
X0100208Y0129140D01*
X0100208Y0136365D01*
X0097317Y0136365D01*
X0092983Y0132031D01*
X0092983Y0129140D01*
X0092983Y0130022D02*
X0087383Y0130022D01*
X0086860Y0131621D02*
X0092983Y0131621D01*
X0094171Y0133219D02*
X0086028Y0133219D01*
X0084430Y0134818D02*
X0095770Y0134818D01*
X0100208Y0134818D02*
X0100558Y0134818D01*
X0100558Y0133219D02*
X0100208Y0133219D01*
X0100208Y0131621D02*
X0100558Y0131621D01*
X0100558Y0130022D02*
X0100208Y0130022D01*
X0100558Y0128790D02*
X0107783Y0128790D01*
X0107783Y0125900D01*
X0103448Y0121565D01*
X0100558Y0121565D01*
X0100558Y0128790D01*
X0100558Y0128424D02*
X0100208Y0128424D01*
X0100208Y0126825D02*
X0100558Y0126825D01*
X0100558Y0125227D02*
X0100208Y0125227D01*
X0100208Y0123628D02*
X0100558Y0123628D01*
X0100558Y0122030D02*
X0100208Y0122030D01*
X0103912Y0122030D02*
X0196336Y0122030D01*
X0194738Y0123628D02*
X0105511Y0123628D01*
X0107109Y0125227D02*
X0193139Y0125227D01*
X0191541Y0126825D02*
X0107783Y0126825D01*
X0107783Y0128424D02*
X0189942Y0128424D01*
X0188344Y0130022D02*
X0107783Y0130022D01*
X0107783Y0131621D02*
X0186745Y0131621D01*
X0185147Y0133219D02*
X0106594Y0133219D01*
X0104995Y0134818D02*
X0126758Y0134818D01*
X0125543Y0136032D02*
X0128355Y0133220D01*
X0132332Y0133220D01*
X0135143Y0136032D01*
X0135143Y0140009D01*
X0132332Y0142820D01*
X0128355Y0142820D01*
X0125543Y0140009D01*
X0125543Y0136032D01*
X0125543Y0136416D02*
X0016443Y0136416D01*
X0016443Y0134818D02*
X0076336Y0134818D01*
X0074737Y0133219D02*
X0016443Y0133219D01*
X0016443Y0138015D02*
X0125543Y0138015D01*
X0125543Y0139613D02*
X0016443Y0139613D01*
X0016443Y0141212D02*
X0126746Y0141212D01*
X0128345Y0142810D02*
X0016443Y0142810D01*
X0016443Y0144409D02*
X0208836Y0144409D01*
X0208836Y0146007D02*
X0016443Y0146007D01*
X0016443Y0147606D02*
X0208836Y0147606D01*
X0208836Y0149204D02*
X0016443Y0149204D01*
X0016443Y0150803D02*
X0040050Y0150803D01*
X0040197Y0150655D02*
X0037151Y0153701D01*
X0037151Y0155855D01*
X0042351Y0155855D01*
X0042351Y0155855D01*
X0042351Y0155855D01*
X0042351Y0150655D01*
X0040197Y0150655D01*
X0042351Y0150655D02*
X0044505Y0150655D01*
X0047551Y0153701D01*
X0047551Y0155855D01*
X0042351Y0155855D01*
X0037151Y0155855D01*
X0037151Y0158009D01*
X0040197Y0161055D01*
X0042351Y0161055D01*
X0042351Y0155855D01*
X0042351Y0150655D01*
X0042351Y0150803D02*
X0042351Y0150803D01*
X0042351Y0152401D02*
X0042351Y0152401D01*
X0042351Y0154000D02*
X0042351Y0154000D01*
X0042351Y0155598D02*
X0042351Y0155598D01*
X0042351Y0155855D02*
X0042351Y0155855D01*
X0042351Y0155855D01*
X0042351Y0161055D01*
X0044505Y0161055D01*
X0047551Y0158009D01*
X0047551Y0155855D01*
X0042351Y0155855D01*
X0042351Y0157197D02*
X0042351Y0157197D01*
X0042351Y0158795D02*
X0042351Y0158795D01*
X0042351Y0160394D02*
X0042351Y0160394D01*
X0040363Y0161055D02*
X0044339Y0161055D01*
X0047151Y0163867D01*
X0047151Y0167843D01*
X0044339Y0170655D01*
X0040363Y0170655D01*
X0037551Y0167843D01*
X0037551Y0163867D01*
X0040363Y0161055D01*
X0039536Y0160394D02*
X0016443Y0160394D01*
X0016443Y0161992D02*
X0039426Y0161992D01*
X0037827Y0163591D02*
X0016443Y0163591D01*
X0016443Y0165189D02*
X0037551Y0165189D01*
X0037551Y0166788D02*
X0016443Y0166788D01*
X0016443Y0168386D02*
X0038094Y0168386D01*
X0039693Y0169985D02*
X0016443Y0169985D01*
X0016443Y0171583D02*
X0049953Y0171583D01*
X0049480Y0171111D02*
X0049480Y0167135D01*
X0052292Y0164323D01*
X0056269Y0164323D01*
X0059080Y0167135D01*
X0059080Y0171111D01*
X0056269Y0173923D01*
X0052292Y0173923D01*
X0049480Y0171111D01*
X0049480Y0169985D02*
X0045010Y0169985D01*
X0046608Y0168386D02*
X0049480Y0168386D01*
X0049827Y0166788D02*
X0047151Y0166788D01*
X0047151Y0165189D02*
X0051426Y0165189D01*
X0046875Y0163591D02*
X0208836Y0163591D01*
X0208836Y0165189D02*
X0103765Y0165189D01*
X0103448Y0164872D02*
X0107783Y0169207D01*
X0107783Y0172097D01*
X0100558Y0172097D01*
X0100558Y0164872D01*
X0103448Y0164872D01*
X0105363Y0166788D02*
X0208836Y0166788D01*
X0208836Y0168386D02*
X0106962Y0168386D01*
X0107783Y0169985D02*
X0208836Y0169985D01*
X0208836Y0171583D02*
X0107783Y0171583D01*
X0107783Y0172447D02*
X0107783Y0175338D01*
X0103448Y0179672D01*
X0100558Y0179672D01*
X0100558Y0172448D01*
X0100208Y0172448D01*
X0100208Y0179672D01*
X0097317Y0179672D01*
X0092983Y0175338D01*
X0092983Y0172447D01*
X0100208Y0172447D01*
X0100208Y0172097D01*
X0100558Y0172097D01*
X0100558Y0172447D01*
X0107783Y0172447D01*
X0107783Y0173182D02*
X0208836Y0173182D01*
X0208836Y0174780D02*
X0107783Y0174780D01*
X0106741Y0176379D02*
X0208836Y0176379D01*
X0208836Y0177977D02*
X0183388Y0177977D01*
X0184750Y0179339D02*
X0181938Y0176528D01*
X0177961Y0176528D01*
X0175150Y0179339D01*
X0175150Y0183316D01*
X0177961Y0186128D01*
X0181938Y0186128D01*
X0184750Y0183316D01*
X0184750Y0179339D01*
X0184750Y0179576D02*
X0208836Y0179576D01*
X0208836Y0181175D02*
X0184750Y0181175D01*
X0184750Y0182773D02*
X0208836Y0182773D01*
X0208836Y0184372D02*
X0183694Y0184372D01*
X0182095Y0185970D02*
X0208836Y0185970D01*
X0208836Y0187569D02*
X0069330Y0187569D01*
X0069480Y0187418D02*
X0066434Y0190465D01*
X0064280Y0190465D01*
X0062126Y0190465D01*
X0059080Y0187418D01*
X0059080Y0185265D01*
X0064280Y0185265D01*
X0064280Y0190465D01*
X0064280Y0185265D01*
X0064280Y0185265D01*
X0064280Y0185264D01*
X0064280Y0185264D01*
X0064280Y0180065D01*
X0062126Y0180065D01*
X0059080Y0183111D01*
X0059080Y0185264D01*
X0064280Y0185264D01*
X0064280Y0180065D01*
X0066434Y0180065D01*
X0069480Y0183111D01*
X0069480Y0185264D01*
X0064280Y0185264D01*
X0064280Y0185265D01*
X0069480Y0185265D01*
X0069480Y0187418D01*
X0069480Y0185970D02*
X0127804Y0185970D01*
X0127961Y0186128D02*
X0125150Y0183316D01*
X0125150Y0179339D01*
X0127961Y0176528D01*
X0131938Y0176528D01*
X0134750Y0179339D01*
X0134750Y0183316D01*
X0131938Y0186128D01*
X0127961Y0186128D01*
X0126205Y0184372D02*
X0069480Y0184372D01*
X0069143Y0182773D02*
X0125150Y0182773D01*
X0125150Y0181175D02*
X0067544Y0181175D01*
X0064280Y0181175D02*
X0064280Y0181175D01*
X0064280Y0182773D02*
X0064280Y0182773D01*
X0064280Y0184372D02*
X0064280Y0184372D01*
X0064280Y0185970D02*
X0064280Y0185970D01*
X0064280Y0187569D02*
X0064280Y0187569D01*
X0064280Y0189167D02*
X0064280Y0189167D01*
X0060829Y0189167D02*
X0057166Y0189167D01*
X0056269Y0190065D02*
X0059080Y0187253D01*
X0059080Y0183276D01*
X0056269Y0180465D01*
X0052292Y0180465D01*
X0049480Y0183276D01*
X0049480Y0187253D01*
X0052292Y0190065D01*
X0056269Y0190065D01*
X0058765Y0187569D02*
X0059230Y0187569D01*
X0059080Y0185970D02*
X0059080Y0185970D01*
X0059080Y0184372D02*
X0059080Y0184372D01*
X0059418Y0182773D02*
X0058577Y0182773D01*
X0056978Y0181175D02*
X0061016Y0181175D01*
X0062126Y0174323D02*
X0059080Y0171277D01*
X0059080Y0169123D01*
X0064280Y0169123D01*
X0064280Y0169123D01*
X0064280Y0174323D01*
X0062126Y0174323D01*
X0060986Y0173182D02*
X0057009Y0173182D01*
X0058608Y0171583D02*
X0059387Y0171583D01*
X0059080Y0169985D02*
X0059080Y0169985D01*
X0059080Y0169123D02*
X0059080Y0166969D01*
X0062126Y0163923D01*
X0064280Y0163923D01*
X0064280Y0169123D01*
X0064280Y0169123D01*
X0059080Y0169123D01*
X0059080Y0168386D02*
X0059080Y0168386D01*
X0059261Y0166788D02*
X0058734Y0166788D01*
X0057135Y0165189D02*
X0060860Y0165189D01*
X0064280Y0165189D02*
X0064280Y0165189D01*
X0064280Y0163923D02*
X0066434Y0163923D01*
X0069480Y0166969D01*
X0069480Y0169123D01*
X0069480Y0171277D01*
X0066434Y0174323D01*
X0064280Y0174323D01*
X0064280Y0169123D01*
X0064280Y0169123D01*
X0069480Y0169123D01*
X0064280Y0169123D01*
X0064280Y0169123D01*
X0064280Y0163923D01*
X0064280Y0166788D02*
X0064280Y0166788D01*
X0064280Y0168386D02*
X0064280Y0168386D01*
X0064280Y0169985D02*
X0064280Y0169985D01*
X0064280Y0171583D02*
X0064280Y0171583D01*
X0064280Y0173182D02*
X0064280Y0173182D01*
X0067575Y0173182D02*
X0073383Y0173182D01*
X0073383Y0173665D02*
X0073383Y0170880D01*
X0074448Y0168307D01*
X0076417Y0166338D01*
X0078990Y0165272D01*
X0081775Y0165272D01*
X0084348Y0166338D01*
X0086317Y0168307D01*
X0087383Y0170880D01*
X0087383Y0173665D01*
X0086317Y0176238D01*
X0084348Y0178207D01*
X0081775Y0179272D01*
X0078990Y0179272D01*
X0076417Y0178207D01*
X0074448Y0176238D01*
X0073383Y0173665D01*
X0073845Y0174780D02*
X0030277Y0174780D01*
X0030939Y0176379D02*
X0074590Y0176379D01*
X0076188Y0177977D02*
X0030966Y0177977D01*
X0030518Y0179576D02*
X0097221Y0179576D01*
X0095623Y0177977D02*
X0084577Y0177977D01*
X0086176Y0176379D02*
X0094024Y0176379D01*
X0092983Y0174780D02*
X0086921Y0174780D01*
X0087383Y0173182D02*
X0092983Y0173182D01*
X0092983Y0172097D02*
X0092983Y0169207D01*
X0097317Y0164872D01*
X0100208Y0164872D01*
X0100208Y0172097D01*
X0092983Y0172097D01*
X0092983Y0171583D02*
X0087383Y0171583D01*
X0087012Y0169985D02*
X0092983Y0169985D01*
X0093804Y0168386D02*
X0086350Y0168386D01*
X0084798Y0166788D02*
X0095402Y0166788D01*
X0097001Y0165189D02*
X0067701Y0165189D01*
X0069299Y0166788D02*
X0075968Y0166788D01*
X0074416Y0168386D02*
X0069480Y0168386D01*
X0069480Y0169985D02*
X0073753Y0169985D01*
X0073383Y0171583D02*
X0069174Y0171583D01*
X0067732Y0189167D02*
X0208836Y0189167D01*
X0208836Y0190766D02*
X0029803Y0190766D01*
X0030687Y0189167D02*
X0051395Y0189167D01*
X0049796Y0187569D02*
X0030966Y0187569D01*
X0030769Y0185970D02*
X0049480Y0185970D01*
X0049480Y0184372D02*
X0030002Y0184372D01*
X0027936Y0182773D02*
X0049984Y0182773D01*
X0051582Y0181175D02*
X0029394Y0181175D01*
X0028812Y0173182D02*
X0051551Y0173182D01*
X0045277Y0161992D02*
X0208836Y0161992D01*
X0208836Y0160394D02*
X0045166Y0160394D01*
X0046765Y0158795D02*
X0208836Y0158795D01*
X0208836Y0157197D02*
X0047551Y0157197D01*
X0047551Y0155598D02*
X0208836Y0155598D01*
X0208836Y0154000D02*
X0047551Y0154000D01*
X0046251Y0152401D02*
X0208836Y0152401D01*
X0208836Y0150803D02*
X0044653Y0150803D01*
X0038451Y0152401D02*
X0016443Y0152401D01*
X0016443Y0154000D02*
X0037151Y0154000D01*
X0037151Y0155598D02*
X0016443Y0155598D01*
X0016443Y0157197D02*
X0037151Y0157197D01*
X0037938Y0158795D02*
X0016443Y0158795D01*
X0016443Y0173182D02*
X0016520Y0173182D01*
X0027457Y0192364D02*
X0208836Y0192364D01*
X0208836Y0193963D02*
X0029593Y0193963D01*
X0030600Y0195561D02*
X0208836Y0195561D01*
X0208836Y0197160D02*
X0067388Y0197160D01*
X0066434Y0196206D02*
X0069480Y0199252D01*
X0069480Y0201406D01*
X0064280Y0201406D01*
X0064280Y0201406D01*
X0064280Y0196206D01*
X0062126Y0196206D01*
X0059080Y0199252D01*
X0059080Y0201406D01*
X0064280Y0201406D01*
X0064280Y0201406D01*
X0059080Y0201406D01*
X0059080Y0203560D01*
X0062126Y0206606D01*
X0064280Y0206606D01*
X0064280Y0201406D01*
X0064280Y0196206D01*
X0066434Y0196206D01*
X0064280Y0197160D02*
X0064280Y0197160D01*
X0064280Y0198758D02*
X0064280Y0198758D01*
X0064280Y0200357D02*
X0064280Y0200357D01*
X0064280Y0201406D02*
X0064280Y0201406D01*
X0064280Y0201406D01*
X0069480Y0201406D01*
X0069480Y0203560D01*
X0066434Y0206606D01*
X0064280Y0206606D01*
X0064280Y0201406D01*
X0064280Y0201955D02*
X0064280Y0201955D01*
X0064280Y0203554D02*
X0064280Y0203554D01*
X0064280Y0205152D02*
X0064280Y0205152D01*
X0060672Y0205152D02*
X0057323Y0205152D01*
X0056269Y0206206D02*
X0052292Y0206206D01*
X0049480Y0203395D01*
X0049480Y0199418D01*
X0052292Y0196606D01*
X0056269Y0196606D01*
X0059080Y0199418D01*
X0059080Y0203395D01*
X0056269Y0206206D01*
X0058921Y0203554D02*
X0059080Y0203554D01*
X0059080Y0201955D02*
X0059080Y0201955D01*
X0059080Y0200357D02*
X0059080Y0200357D01*
X0059575Y0198758D02*
X0058420Y0198758D01*
X0056822Y0197160D02*
X0061173Y0197160D01*
X0068986Y0198758D02*
X0208836Y0198758D01*
X0208836Y0200357D02*
X0069480Y0200357D01*
X0069480Y0201955D02*
X0208836Y0201955D01*
X0208836Y0203554D02*
X0069480Y0203554D01*
X0067888Y0205152D02*
X0208836Y0205152D01*
X0208836Y0206751D02*
X0030966Y0206751D01*
X0030966Y0208349D02*
X0097148Y0208349D01*
X0097317Y0208180D02*
X0100208Y0208180D01*
X0100208Y0215404D01*
X0100558Y0215404D01*
X0100558Y0208180D01*
X0103448Y0208180D01*
X0107783Y0212514D01*
X0107783Y0215405D01*
X0100558Y0215405D01*
X0100558Y0215755D01*
X0100208Y0215755D01*
X0100208Y0222980D01*
X0097317Y0222980D01*
X0092983Y0218645D01*
X0092983Y0215755D01*
X0100208Y0215755D01*
X0100208Y0215405D01*
X0092983Y0215405D01*
X0092983Y0212514D01*
X0097317Y0208180D01*
X0095549Y0209948D02*
X0084650Y0209948D01*
X0084348Y0209645D02*
X0086317Y0211614D01*
X0087383Y0214187D01*
X0087383Y0216972D01*
X0086317Y0219545D01*
X0084348Y0221514D01*
X0081775Y0222580D01*
X0078990Y0222580D01*
X0076417Y0221514D01*
X0074448Y0219545D01*
X0073383Y0216972D01*
X0073383Y0214187D01*
X0074448Y0211614D01*
X0076417Y0209645D01*
X0078990Y0208580D01*
X0081775Y0208580D01*
X0084348Y0209645D01*
X0086249Y0211546D02*
X0093951Y0211546D01*
X0092983Y0213145D02*
X0086951Y0213145D01*
X0087383Y0214743D02*
X0092983Y0214743D01*
X0092983Y0216342D02*
X0087383Y0216342D01*
X0086982Y0217940D02*
X0092983Y0217940D01*
X0093877Y0219539D02*
X0086319Y0219539D01*
X0084724Y0221137D02*
X0095475Y0221137D01*
X0097074Y0222736D02*
X0066446Y0222736D01*
X0066434Y0222748D02*
X0064280Y0222748D01*
X0062126Y0222748D01*
X0059080Y0219702D01*
X0059080Y0217548D01*
X0059080Y0215394D01*
X0062126Y0212348D01*
X0064280Y0212348D01*
X0064280Y0217548D01*
X0059080Y0217548D01*
X0064280Y0217548D01*
X0064280Y0217548D01*
X0064280Y0217548D01*
X0064280Y0222748D01*
X0064280Y0217548D01*
X0064280Y0217548D01*
X0064280Y0212348D01*
X0066434Y0212348D01*
X0069480Y0215394D01*
X0069480Y0217548D01*
X0064280Y0217548D01*
X0069480Y0217548D01*
X0069480Y0219702D01*
X0066434Y0222748D01*
X0064280Y0222736D02*
X0064280Y0222736D01*
X0064280Y0221137D02*
X0064280Y0221137D01*
X0064280Y0219539D02*
X0064280Y0219539D01*
X0064280Y0217940D02*
X0064280Y0217940D01*
X0064280Y0217548D02*
X0064280Y0217548D01*
X0064280Y0216342D02*
X0064280Y0216342D01*
X0064280Y0214743D02*
X0064280Y0214743D01*
X0064280Y0213145D02*
X0064280Y0213145D01*
X0061330Y0213145D02*
X0056665Y0213145D01*
X0056269Y0212748D02*
X0059080Y0215560D01*
X0059080Y0219536D01*
X0056269Y0222348D01*
X0052292Y0222348D01*
X0049480Y0219536D01*
X0049480Y0215560D01*
X0052292Y0212748D01*
X0056269Y0212748D01*
X0058264Y0214743D02*
X0059731Y0214743D01*
X0059080Y0216342D02*
X0059080Y0216342D01*
X0059080Y0217940D02*
X0059080Y0217940D01*
X0059078Y0219539D02*
X0059080Y0219539D01*
X0060516Y0221137D02*
X0057479Y0221137D01*
X0062114Y0222736D02*
X0016443Y0222736D01*
X0016443Y0224334D02*
X0125150Y0224334D01*
X0125150Y0222736D02*
X0103692Y0222736D01*
X0103448Y0222980D02*
X0100558Y0222980D01*
X0100558Y0215755D01*
X0107783Y0215755D01*
X0107783Y0218645D01*
X0103448Y0222980D01*
X0105290Y0221137D02*
X0126659Y0221137D01*
X0127961Y0219835D02*
X0131938Y0219835D01*
X0134750Y0222646D01*
X0134750Y0226623D01*
X0131938Y0229435D01*
X0127961Y0229435D01*
X0125150Y0226623D01*
X0125150Y0222646D01*
X0127961Y0219835D01*
X0133240Y0221137D02*
X0176659Y0221137D01*
X0177961Y0219835D02*
X0181938Y0219835D01*
X0184750Y0222646D01*
X0184750Y0226623D01*
X0181938Y0229435D01*
X0177961Y0229435D01*
X0175150Y0226623D01*
X0175150Y0222646D01*
X0177961Y0219835D01*
X0175150Y0222736D02*
X0134750Y0222736D01*
X0134750Y0224334D02*
X0175150Y0224334D01*
X0175150Y0225933D02*
X0134750Y0225933D01*
X0133841Y0227531D02*
X0176058Y0227531D01*
X0177657Y0229130D02*
X0132243Y0229130D01*
X0127657Y0229130D02*
X0016443Y0229130D01*
X0016443Y0230728D02*
X0208836Y0230728D01*
X0208836Y0229130D02*
X0182243Y0229130D01*
X0183841Y0227531D02*
X0208836Y0227531D01*
X0208836Y0225933D02*
X0184750Y0225933D01*
X0184750Y0224334D02*
X0208836Y0224334D01*
X0208836Y0222736D02*
X0184750Y0222736D01*
X0183240Y0221137D02*
X0208836Y0221137D01*
X0208836Y0219539D02*
X0106889Y0219539D01*
X0107783Y0217940D02*
X0208836Y0217940D01*
X0208836Y0216342D02*
X0107783Y0216342D01*
X0107783Y0214743D02*
X0208836Y0214743D01*
X0208836Y0213145D02*
X0107783Y0213145D01*
X0106815Y0211546D02*
X0208836Y0211546D01*
X0208836Y0209948D02*
X0105216Y0209948D01*
X0103618Y0208349D02*
X0208836Y0208349D01*
X0215236Y0208349D02*
X0219047Y0208349D01*
X0219047Y0207883D02*
X0221859Y0205071D01*
X0225835Y0205071D01*
X0228647Y0207883D01*
X0228647Y0211859D01*
X0225835Y0214671D01*
X0221859Y0214671D01*
X0219047Y0211859D01*
X0219047Y0207883D01*
X0220179Y0206751D02*
X0215236Y0206751D01*
X0215236Y0205152D02*
X0221778Y0205152D01*
X0225917Y0205152D02*
X0241069Y0205152D01*
X0241150Y0205071D02*
X0245127Y0205071D01*
X0247939Y0207883D01*
X0247939Y0211859D01*
X0245127Y0214671D01*
X0241150Y0214671D01*
X0238339Y0211859D01*
X0238339Y0207883D01*
X0241150Y0205071D01*
X0239471Y0206751D02*
X0227515Y0206751D01*
X0228647Y0208349D02*
X0238339Y0208349D01*
X0238339Y0209948D02*
X0228647Y0209948D01*
X0228647Y0211546D02*
X0238339Y0211546D01*
X0239624Y0213145D02*
X0227362Y0213145D01*
X0225835Y0215701D02*
X0221859Y0215701D01*
X0219047Y0218513D01*
X0219047Y0222489D01*
X0221859Y0225301D01*
X0225835Y0225301D01*
X0228647Y0222489D01*
X0228647Y0218513D01*
X0225835Y0215701D01*
X0226476Y0216342D02*
X0240509Y0216342D01*
X0241150Y0215701D02*
X0238339Y0218513D01*
X0238339Y0222489D01*
X0241150Y0225301D01*
X0245127Y0225301D01*
X0247939Y0222489D01*
X0247939Y0218513D01*
X0245127Y0215701D01*
X0241150Y0215701D01*
X0238911Y0217940D02*
X0228075Y0217940D01*
X0228647Y0219539D02*
X0238339Y0219539D01*
X0238339Y0221137D02*
X0228647Y0221137D01*
X0228400Y0222736D02*
X0238585Y0222736D01*
X0240184Y0224334D02*
X0226802Y0224334D01*
X0220893Y0224334D02*
X0215236Y0224334D01*
X0215236Y0222736D02*
X0219294Y0222736D01*
X0219047Y0221137D02*
X0215236Y0221137D01*
X0215236Y0219539D02*
X0219047Y0219539D01*
X0219620Y0217940D02*
X0215236Y0217940D01*
X0215236Y0216342D02*
X0221218Y0216342D01*
X0215236Y0214743D02*
X0275765Y0214743D01*
X0275765Y0213145D02*
X0246653Y0213145D01*
X0247939Y0211546D02*
X0275765Y0211546D01*
X0275765Y0209948D02*
X0247939Y0209948D01*
X0247939Y0208349D02*
X0275765Y0208349D01*
X0275765Y0206751D02*
X0246807Y0206751D01*
X0245208Y0205152D02*
X0275765Y0205152D01*
X0275765Y0203554D02*
X0215236Y0203554D01*
X0215236Y0201955D02*
X0275765Y0201955D01*
X0275765Y0200357D02*
X0215236Y0200357D01*
X0215236Y0198758D02*
X0275765Y0198758D01*
X0275765Y0197160D02*
X0215236Y0197160D01*
X0215236Y0195561D02*
X0274500Y0195561D01*
X0275765Y0196826D02*
X0243610Y0164671D01*
X0241150Y0164671D01*
X0238339Y0161859D01*
X0238339Y0157883D01*
X0241150Y0155071D01*
X0245127Y0155071D01*
X0247939Y0157883D01*
X0247939Y0159949D01*
X0280778Y0192788D01*
X0281678Y0193688D01*
X0282165Y0194864D01*
X0282165Y0234333D01*
X0284228Y0236395D01*
X0285609Y0236395D01*
X0286399Y0235605D01*
X0288163Y0234874D01*
X0295673Y0234874D01*
X0297437Y0235605D01*
X0298787Y0236955D01*
X0299348Y0238309D01*
X0309717Y0227940D01*
X0310617Y0227040D01*
X0311793Y0226553D01*
X0315451Y0226553D01*
X0316399Y0225605D01*
X0318163Y0224874D01*
X0325673Y0224874D01*
X0327437Y0225605D01*
X0328787Y0226955D01*
X0329518Y0228719D01*
X0329518Y0230629D01*
X0328787Y0232393D01*
X0327437Y0233743D01*
X0325673Y0234474D01*
X0318163Y0234474D01*
X0316399Y0233743D01*
X0315609Y0232953D01*
X0313755Y0232953D01*
X0296732Y0249976D01*
X0296732Y0250198D01*
X0298237Y0248693D01*
X0302213Y0248693D01*
X0305025Y0251505D01*
X0305025Y0255481D01*
X0302213Y0258293D01*
X0298237Y0258293D01*
X0295885Y0255941D01*
X0295345Y0256481D01*
X0290697Y0261130D01*
X0291662Y0261130D01*
X0293297Y0261807D01*
X0294549Y0263059D01*
X0295025Y0264209D01*
X0295025Y0263493D01*
X0300225Y0263493D01*
X0300225Y0263493D01*
X0295025Y0263493D01*
X0295025Y0261339D01*
X0298071Y0258293D01*
X0300225Y0258293D01*
X0300225Y0263493D01*
X0300225Y0263493D01*
X0305425Y0263493D01*
X0305425Y0265647D01*
X0303968Y0267104D01*
X0309868Y0267104D01*
X0308411Y0265647D01*
X0308411Y0263493D01*
X0313611Y0263493D01*
X0313611Y0263493D01*
X0318811Y0263493D01*
X0318811Y0265647D01*
X0317354Y0267104D01*
X0322915Y0267104D01*
X0332458Y0257561D01*
X0332458Y0232266D01*
X0332945Y0231090D01*
X0333846Y0230190D01*
X0345853Y0218182D01*
X0347030Y0217694D01*
X0347424Y0217694D01*
X0349024Y0216094D01*
X0353001Y0216094D01*
X0355813Y0218906D01*
X0355813Y0222883D01*
X0353001Y0225694D01*
X0349024Y0225694D01*
X0348208Y0224878D01*
X0338858Y0234228D01*
X0338858Y0259523D01*
X0338371Y0260699D01*
X0328029Y0271041D01*
X0346213Y0271041D01*
X0346213Y0268906D01*
X0349024Y0266094D01*
X0353001Y0266094D01*
X0355813Y0268906D01*
X0355813Y0272883D01*
X0353001Y0275694D01*
X0350738Y0275694D01*
X0350379Y0276054D01*
X0349479Y0276954D01*
X0348303Y0277441D01*
X0286597Y0277441D01*
X0285420Y0276954D01*
X0284520Y0276054D01*
X0276253Y0267786D01*
X0275765Y0266610D01*
X0275765Y0242502D01*
X0276253Y0241326D01*
X0277153Y0240426D01*
X0278180Y0239398D01*
X0276253Y0237471D01*
X0275765Y0236295D01*
X0275765Y0196826D01*
X0272902Y0193963D02*
X0215236Y0193963D01*
X0215236Y0192364D02*
X0271303Y0192364D01*
X0269705Y0190766D02*
X0215236Y0190766D01*
X0215236Y0189167D02*
X0268106Y0189167D01*
X0266508Y0187569D02*
X0215236Y0187569D01*
X0215236Y0185970D02*
X0264909Y0185970D01*
X0263311Y0184372D02*
X0215236Y0184372D01*
X0215236Y0182773D02*
X0261712Y0182773D01*
X0260114Y0181175D02*
X0215236Y0181175D01*
X0215236Y0179576D02*
X0258515Y0179576D01*
X0256917Y0177977D02*
X0215236Y0177977D01*
X0215236Y0176379D02*
X0255318Y0176379D01*
X0253720Y0174780D02*
X0215236Y0174780D01*
X0215236Y0173182D02*
X0252121Y0173182D01*
X0250523Y0171583D02*
X0215236Y0171583D01*
X0215236Y0169985D02*
X0248924Y0169985D01*
X0247326Y0168386D02*
X0215236Y0168386D01*
X0215236Y0166788D02*
X0245727Y0166788D01*
X0244128Y0165189D02*
X0215236Y0165189D01*
X0215236Y0163591D02*
X0220779Y0163591D01*
X0221859Y0164671D02*
X0219047Y0161859D01*
X0219047Y0157883D01*
X0221859Y0155071D01*
X0225835Y0155071D01*
X0228647Y0157883D01*
X0228647Y0161859D01*
X0225835Y0164671D01*
X0221859Y0164671D01*
X0219181Y0161992D02*
X0215236Y0161992D01*
X0215236Y0160394D02*
X0219047Y0160394D01*
X0219047Y0158795D02*
X0215236Y0158795D01*
X0215236Y0157197D02*
X0219733Y0157197D01*
X0221332Y0155598D02*
X0215236Y0155598D01*
X0215236Y0154000D02*
X0261285Y0154000D01*
X0259687Y0152401D02*
X0215236Y0152401D01*
X0215236Y0150803D02*
X0258088Y0150803D01*
X0256490Y0149204D02*
X0215236Y0149204D01*
X0215236Y0147606D02*
X0221723Y0147606D01*
X0221859Y0147742D02*
X0219047Y0144930D01*
X0219047Y0140954D01*
X0221859Y0138142D01*
X0225835Y0138142D01*
X0228647Y0140954D01*
X0228647Y0144930D01*
X0225835Y0147742D01*
X0221859Y0147742D01*
X0220125Y0146007D02*
X0215236Y0146007D01*
X0215236Y0144409D02*
X0219047Y0144409D01*
X0219047Y0142810D02*
X0215236Y0142810D01*
X0215236Y0141212D02*
X0219047Y0141212D01*
X0220388Y0139613D02*
X0215236Y0139613D01*
X0215236Y0138015D02*
X0245300Y0138015D01*
X0245127Y0138142D02*
X0247939Y0140954D01*
X0247939Y0144930D01*
X0245127Y0147742D01*
X0241150Y0147742D01*
X0238339Y0144930D01*
X0238339Y0140954D01*
X0241150Y0138142D01*
X0245127Y0138142D01*
X0246598Y0139613D02*
X0246899Y0139613D01*
X0247939Y0141212D02*
X0248497Y0141212D01*
X0247939Y0142810D02*
X0250096Y0142810D01*
X0251694Y0144409D02*
X0247939Y0144409D01*
X0246861Y0146007D02*
X0253293Y0146007D01*
X0254891Y0147606D02*
X0245263Y0147606D01*
X0241014Y0147606D02*
X0225971Y0147606D01*
X0227570Y0146007D02*
X0239416Y0146007D01*
X0238339Y0144409D02*
X0228647Y0144409D01*
X0228647Y0142810D02*
X0238339Y0142810D01*
X0238339Y0141212D02*
X0228647Y0141212D01*
X0227307Y0139613D02*
X0239679Y0139613D01*
X0243702Y0136416D02*
X0215236Y0136416D01*
X0215236Y0134818D02*
X0242103Y0134818D01*
X0240505Y0133219D02*
X0215236Y0133219D01*
X0215236Y0131621D02*
X0238906Y0131621D01*
X0237308Y0130022D02*
X0215236Y0130022D01*
X0215236Y0128424D02*
X0235709Y0128424D01*
X0234111Y0126825D02*
X0215236Y0126825D01*
X0215236Y0125227D02*
X0232512Y0125227D01*
X0230914Y0123628D02*
X0215236Y0123628D01*
X0215236Y0122610D02*
X0215236Y0241413D01*
X0214749Y0242589D01*
X0186684Y0270655D01*
X0185507Y0271142D01*
X0183144Y0271142D01*
X0181544Y0272742D01*
X0177568Y0272742D01*
X0174756Y0269930D01*
X0174756Y0265954D01*
X0177568Y0263142D01*
X0181544Y0263142D01*
X0183144Y0264742D01*
X0183545Y0264742D01*
X0208836Y0239451D01*
X0208836Y0122610D01*
X0208264Y0122037D01*
X0207586Y0120402D01*
X0207586Y0118631D01*
X0208264Y0116996D01*
X0209515Y0115744D01*
X0211151Y0115067D01*
X0212921Y0115067D01*
X0214557Y0115744D01*
X0215809Y0116996D01*
X0216486Y0118631D01*
X0216486Y0120402D01*
X0215809Y0122037D01*
X0215236Y0122610D01*
X0215812Y0122030D02*
X0229315Y0122030D01*
X0227717Y0120431D02*
X0216474Y0120431D01*
X0216486Y0118833D02*
X0226118Y0118833D01*
X0224520Y0117234D02*
X0215907Y0117234D01*
X0214295Y0115636D02*
X0222921Y0115636D01*
X0221323Y0114037D02*
X0049488Y0114037D01*
X0049488Y0112439D02*
X0113267Y0112439D01*
X0113368Y0112480D02*
X0112192Y0111993D01*
X0111292Y0111093D01*
X0100303Y0100104D01*
X0097056Y0100104D01*
X0094244Y0097292D01*
X0094244Y0093316D01*
X0097056Y0090504D01*
X0101032Y0090504D01*
X0103844Y0093316D01*
X0103844Y0094594D01*
X0115330Y0106080D01*
X0221728Y0106080D01*
X0222904Y0106567D01*
X0259555Y0143218D01*
X0259555Y0141860D01*
X0260232Y0140224D01*
X0261484Y0138972D01*
X0263120Y0138295D01*
X0264890Y0138295D01*
X0266525Y0138972D01*
X0267098Y0139545D01*
X0289051Y0139545D01*
X0290227Y0140032D01*
X0295025Y0144830D01*
X0295025Y0144804D01*
X0298071Y0141757D01*
X0300225Y0141757D01*
X0300225Y0146957D01*
X0300225Y0146957D01*
X0300225Y0141757D01*
X0302379Y0141757D01*
X0305425Y0144804D01*
X0305425Y0146957D01*
X0300225Y0146957D01*
X0300225Y0146958D01*
X0305425Y0146958D01*
X0305425Y0149111D01*
X0304755Y0149781D01*
X0309081Y0149781D01*
X0308411Y0149111D01*
X0308411Y0146958D01*
X0313611Y0146958D01*
X0313611Y0146957D01*
X0313611Y0141757D01*
X0315765Y0141757D01*
X0318718Y0144711D01*
X0318718Y0127939D01*
X0318163Y0127939D01*
X0316399Y0127208D01*
X0315049Y0125858D01*
X0314318Y0124093D01*
X0314318Y0122184D01*
X0315049Y0120420D01*
X0316399Y0119069D01*
X0318163Y0118339D01*
X0325673Y0118339D01*
X0327437Y0119069D01*
X0328787Y0120420D01*
X0329518Y0122184D01*
X0329518Y0124093D01*
X0328787Y0125858D01*
X0327437Y0127208D01*
X0325673Y0127939D01*
X0325118Y0127939D01*
X0325118Y0147279D01*
X0324631Y0148455D01*
X0323731Y0149355D01*
X0319368Y0153718D01*
X0339451Y0153718D01*
X0343182Y0149987D01*
X0344082Y0149087D01*
X0345258Y0148600D01*
X0362679Y0148600D01*
X0365927Y0145353D01*
X0365504Y0144930D01*
X0365504Y0140954D01*
X0368316Y0138142D01*
X0372292Y0138142D01*
X0375104Y0140954D01*
X0375104Y0144930D01*
X0373226Y0146808D01*
X0373017Y0147313D01*
X0372117Y0148214D01*
X0366718Y0153613D01*
X0365817Y0154513D01*
X0364641Y0155000D01*
X0353496Y0155000D01*
X0356213Y0157717D01*
X0356213Y0159871D01*
X0356213Y0162025D01*
X0354677Y0163561D01*
X0362089Y0163561D01*
X0365504Y0160145D01*
X0365504Y0157883D01*
X0368316Y0155071D01*
X0372292Y0155071D01*
X0375104Y0157883D01*
X0375104Y0161859D01*
X0372292Y0164671D01*
X0370029Y0164671D01*
X0365227Y0169473D01*
X0364051Y0169961D01*
X0342896Y0169961D01*
X0341720Y0169473D01*
X0340819Y0168573D01*
X0336301Y0164055D01*
X0315825Y0164055D01*
X0323691Y0171922D01*
X0323691Y0171922D01*
X0324592Y0172822D01*
X0325079Y0173998D01*
X0325079Y0174874D01*
X0325673Y0174874D01*
X0327437Y0175605D01*
X0328787Y0176955D01*
X0329518Y0178719D01*
X0329518Y0180629D01*
X0328787Y0182393D01*
X0327437Y0183743D01*
X0325673Y0184474D01*
X0318163Y0184474D01*
X0316399Y0183743D01*
X0315049Y0182393D01*
X0314318Y0180629D01*
X0314318Y0178719D01*
X0315049Y0176955D01*
X0316399Y0175605D01*
X0317760Y0175041D01*
X0312679Y0169961D01*
X0307163Y0169961D01*
X0310699Y0173497D01*
X0311599Y0174397D01*
X0312087Y0175573D01*
X0312087Y0212679D01*
X0315706Y0216298D01*
X0316399Y0215605D01*
X0318163Y0214874D01*
X0325673Y0214874D01*
X0327437Y0215605D01*
X0328787Y0216955D01*
X0329518Y0218719D01*
X0329518Y0220629D01*
X0328787Y0222393D01*
X0327437Y0223743D01*
X0325673Y0224474D01*
X0318163Y0224474D01*
X0316399Y0223743D01*
X0315766Y0223110D01*
X0314156Y0223110D01*
X0312979Y0222623D01*
X0312079Y0221723D01*
X0306174Y0215817D01*
X0305687Y0214641D01*
X0305687Y0177535D01*
X0303230Y0175079D01*
X0296167Y0175079D01*
X0297437Y0175605D01*
X0298787Y0176955D01*
X0299518Y0178719D01*
X0299518Y0180629D01*
X0298787Y0182393D01*
X0297437Y0183743D01*
X0295673Y0184474D01*
X0288163Y0184474D01*
X0286399Y0183743D01*
X0285049Y0182393D01*
X0284318Y0180629D01*
X0284318Y0178719D01*
X0285049Y0176955D01*
X0286399Y0175605D01*
X0287669Y0175079D01*
X0283053Y0175079D01*
X0281877Y0174592D01*
X0280977Y0173691D01*
X0219766Y0112480D01*
X0113368Y0112480D01*
X0111039Y0110840D02*
X0049488Y0110840D01*
X0049488Y0109242D02*
X0109440Y0109242D01*
X0107842Y0107643D02*
X0049488Y0107643D01*
X0049488Y0106044D02*
X0106243Y0106044D01*
X0104645Y0104446D02*
X0049488Y0104446D01*
X0049488Y0102847D02*
X0103046Y0102847D01*
X0101448Y0101249D02*
X0049488Y0101249D01*
X0049488Y0099650D02*
X0096602Y0099650D01*
X0095004Y0098052D02*
X0049488Y0098052D01*
X0049488Y0096453D02*
X0094244Y0096453D01*
X0094244Y0094855D02*
X0049488Y0094855D01*
X0049488Y0093256D02*
X0094303Y0093256D01*
X0095902Y0091658D02*
X0049488Y0091658D01*
X0049488Y0090059D02*
X0115117Y0090059D01*
X0114673Y0090504D02*
X0119466Y0085711D01*
X0119466Y0046833D01*
X0119953Y0045657D01*
X0120853Y0044756D01*
X0137783Y0027827D01*
X0138959Y0027340D01*
X0200074Y0027340D01*
X0201250Y0027827D01*
X0202151Y0028727D01*
X0216049Y0042626D01*
X0216858Y0042626D01*
X0218494Y0043303D01*
X0219746Y0044555D01*
X0220423Y0046190D01*
X0220423Y0047961D01*
X0219746Y0049596D01*
X0218494Y0050848D01*
X0216858Y0051526D01*
X0215088Y0051526D01*
X0213452Y0050848D01*
X0212201Y0049596D01*
X0211523Y0047961D01*
X0211523Y0047151D01*
X0198112Y0033740D01*
X0140921Y0033740D01*
X0125866Y0048795D01*
X0125866Y0087673D01*
X0125379Y0088849D01*
X0119198Y0095029D01*
X0119198Y0097292D01*
X0116387Y0100104D01*
X0112410Y0100104D01*
X0109598Y0097292D01*
X0109598Y0093316D01*
X0112410Y0090504D01*
X0114673Y0090504D01*
X0116716Y0088461D02*
X0049488Y0088461D01*
X0049488Y0086862D02*
X0118315Y0086862D01*
X0119466Y0085264D02*
X0049488Y0085264D01*
X0049488Y0083665D02*
X0119466Y0083665D01*
X0119466Y0082067D02*
X0049488Y0082067D01*
X0049488Y0080468D02*
X0119466Y0080468D01*
X0119466Y0078870D02*
X0049488Y0078870D01*
X0049488Y0077271D02*
X0119466Y0077271D01*
X0119466Y0075673D02*
X0049488Y0075673D01*
X0049488Y0074074D02*
X0119466Y0074074D01*
X0119466Y0072476D02*
X0049488Y0072476D01*
X0049488Y0070877D02*
X0119466Y0070877D01*
X0119466Y0069279D02*
X0049488Y0069279D01*
X0049488Y0067680D02*
X0119466Y0067680D01*
X0119466Y0066082D02*
X0049488Y0066082D01*
X0049488Y0064483D02*
X0119466Y0064483D01*
X0119466Y0062885D02*
X0049488Y0062885D01*
X0049488Y0061286D02*
X0119466Y0061286D01*
X0119466Y0059688D02*
X0049488Y0059688D01*
X0049488Y0058089D02*
X0119466Y0058089D01*
X0119466Y0056491D02*
X0049488Y0056491D01*
X0049488Y0054892D02*
X0119466Y0054892D01*
X0119466Y0053294D02*
X0049488Y0053294D01*
X0049488Y0051695D02*
X0119466Y0051695D01*
X0119466Y0050097D02*
X0116394Y0050097D01*
X0116387Y0050104D02*
X0112410Y0050104D01*
X0109598Y0047292D01*
X0109598Y0043316D01*
X0112410Y0040504D01*
X0116387Y0040504D01*
X0119198Y0043316D01*
X0119198Y0047292D01*
X0116387Y0050104D01*
X0117992Y0048498D02*
X0119466Y0048498D01*
X0119466Y0046900D02*
X0119198Y0046900D01*
X0119198Y0045301D02*
X0120309Y0045301D01*
X0119198Y0043703D02*
X0121907Y0043703D01*
X0123506Y0042104D02*
X0117987Y0042104D01*
X0116388Y0040506D02*
X0125104Y0040506D01*
X0126703Y0038907D02*
X0097488Y0038907D01*
X0097056Y0040504D02*
X0101032Y0040504D01*
X0103844Y0043316D01*
X0103844Y0047292D01*
X0101032Y0050104D01*
X0097056Y0050104D01*
X0094244Y0047292D01*
X0094244Y0043316D01*
X0097056Y0040504D01*
X0097054Y0040506D02*
X0085679Y0040506D01*
X0084022Y0040506D02*
X0083672Y0040506D01*
X0083672Y0038907D02*
X0084022Y0038907D01*
X0084022Y0037309D02*
X0083672Y0037309D01*
X0083672Y0035710D02*
X0084022Y0035710D01*
X0084022Y0034111D02*
X0083672Y0034111D01*
X0083672Y0032513D02*
X0084022Y0032513D01*
X0089019Y0037309D02*
X0089119Y0037309D01*
X0088054Y0038907D02*
X0090206Y0038907D01*
X0082016Y0040506D02*
X0075679Y0040506D01*
X0074022Y0040506D02*
X0073672Y0040506D01*
X0073672Y0038907D02*
X0074022Y0038907D01*
X0074022Y0037309D02*
X0073672Y0037309D01*
X0073672Y0035710D02*
X0074022Y0035710D01*
X0074022Y0034111D02*
X0073672Y0034111D01*
X0073672Y0032513D02*
X0074022Y0032513D01*
X0068676Y0037309D02*
X0068575Y0037309D01*
X0069640Y0038907D02*
X0067488Y0038907D01*
X0072016Y0040506D02*
X0049488Y0040506D01*
X0049488Y0042104D02*
X0095456Y0042104D01*
X0094244Y0043703D02*
X0049488Y0043703D01*
X0049488Y0045301D02*
X0094244Y0045301D01*
X0094244Y0046900D02*
X0049488Y0046900D01*
X0049488Y0048498D02*
X0095450Y0048498D01*
X0097049Y0050097D02*
X0049488Y0050097D01*
X0043088Y0053294D02*
X0041478Y0053294D01*
X0041478Y0054892D02*
X0043088Y0054892D01*
X0043088Y0056491D02*
X0041478Y0056491D01*
X0040904Y0058089D02*
X0043088Y0058089D01*
X0043088Y0059688D02*
X0039306Y0059688D01*
X0039514Y0061286D02*
X0043088Y0061286D01*
X0043088Y0062885D02*
X0041113Y0062885D01*
X0041478Y0064483D02*
X0043088Y0064483D01*
X0043088Y0066082D02*
X0041478Y0066082D01*
X0041313Y0067680D02*
X0043088Y0067680D01*
X0043088Y0069279D02*
X0039715Y0069279D01*
X0039105Y0070877D02*
X0043088Y0070877D01*
X0043088Y0072476D02*
X0040704Y0072476D01*
X0041478Y0074074D02*
X0043088Y0074074D01*
X0043088Y0075673D02*
X0041478Y0075673D01*
X0041478Y0077271D02*
X0043088Y0077271D01*
X0043088Y0078870D02*
X0040124Y0078870D01*
X0038696Y0080468D02*
X0043088Y0080468D01*
X0043088Y0082067D02*
X0040295Y0082067D01*
X0041478Y0083665D02*
X0043088Y0083665D01*
X0043088Y0085264D02*
X0041478Y0085264D01*
X0041478Y0086862D02*
X0043088Y0086862D01*
X0043088Y0088461D02*
X0040533Y0088461D01*
X0038934Y0090059D02*
X0043088Y0090059D01*
X0043088Y0091658D02*
X0039886Y0091658D01*
X0041478Y0093256D02*
X0043088Y0093256D01*
X0043088Y0094855D02*
X0041478Y0094855D01*
X0041478Y0096453D02*
X0043088Y0096453D01*
X0043088Y0098052D02*
X0040941Y0098052D01*
X0039343Y0099650D02*
X0043088Y0099650D01*
X0043088Y0101249D02*
X0039477Y0101249D01*
X0041076Y0102847D02*
X0043088Y0102847D01*
X0043088Y0104446D02*
X0041478Y0104446D01*
X0041478Y0106044D02*
X0043088Y0106044D01*
X0043088Y0107643D02*
X0041350Y0107643D01*
X0039752Y0109242D02*
X0043088Y0109242D01*
X0043088Y0110840D02*
X0039068Y0110840D01*
X0040667Y0112439D02*
X0043088Y0112439D01*
X0043088Y0114037D02*
X0041478Y0114037D01*
X0041478Y0115636D02*
X0043088Y0115636D01*
X0043088Y0117234D02*
X0041478Y0117234D01*
X0040161Y0118833D02*
X0043088Y0118833D01*
X0043088Y0120431D02*
X0038659Y0120431D01*
X0040258Y0122030D02*
X0041612Y0122030D01*
X0049488Y0120431D02*
X0197935Y0120431D01*
X0198596Y0119770D02*
X0198531Y0119614D01*
X0198531Y0117844D01*
X0199209Y0116208D01*
X0200460Y0114957D01*
X0202096Y0114279D01*
X0203866Y0114279D01*
X0205502Y0114957D01*
X0206754Y0116208D01*
X0207431Y0117844D01*
X0207431Y0119614D01*
X0206754Y0121250D01*
X0205502Y0122502D01*
X0204500Y0122916D01*
X0187584Y0139833D01*
X0186684Y0140733D01*
X0185507Y0141220D01*
X0183932Y0141220D01*
X0182332Y0142820D01*
X0178355Y0142820D01*
X0175543Y0140009D01*
X0175543Y0136032D01*
X0178355Y0133220D01*
X0182332Y0133220D01*
X0183738Y0134627D01*
X0198596Y0119770D01*
X0198531Y0118833D02*
X0049488Y0118833D01*
X0049488Y0117234D02*
X0198784Y0117234D01*
X0199781Y0115636D02*
X0049488Y0115636D01*
X0032085Y0128424D02*
X0030570Y0128424D01*
X0028971Y0130022D02*
X0033684Y0130022D01*
X0022746Y0099650D02*
X0016443Y0099650D01*
X0016443Y0098052D02*
X0021148Y0098052D01*
X0020778Y0096453D02*
X0016443Y0096453D01*
X0016443Y0094855D02*
X0020778Y0094855D01*
X0020778Y0093256D02*
X0016443Y0093256D01*
X0016443Y0091658D02*
X0022203Y0091658D01*
X0023155Y0090059D02*
X0016443Y0090059D01*
X0016443Y0088461D02*
X0021557Y0088461D01*
X0020778Y0086862D02*
X0016443Y0086862D01*
X0026153Y0083665D02*
X0026503Y0083665D01*
X0026503Y0082067D02*
X0026153Y0082067D01*
X0026153Y0080468D02*
X0026503Y0080468D01*
X0026503Y0078870D02*
X0026153Y0078870D01*
X0026153Y0077271D02*
X0026503Y0077271D01*
X0026503Y0075673D02*
X0026153Y0075673D01*
X0026153Y0075208D02*
X0026503Y0075208D01*
X0026503Y0065558D01*
X0026153Y0065558D01*
X0026153Y0070933D01*
X0026153Y0075208D01*
X0026153Y0074074D02*
X0026503Y0074074D01*
X0026503Y0072476D02*
X0026153Y0072476D01*
X0026153Y0070877D02*
X0026503Y0070877D01*
X0026503Y0069279D02*
X0026153Y0069279D01*
X0026153Y0067680D02*
X0026503Y0067680D01*
X0026503Y0066082D02*
X0026153Y0066082D01*
X0026153Y0065208D02*
X0026503Y0065208D01*
X0026503Y0055558D01*
X0026153Y0055558D01*
X0026153Y0060933D01*
X0026153Y0065208D01*
X0026153Y0064483D02*
X0026503Y0064483D01*
X0026503Y0062885D02*
X0026153Y0062885D01*
X0026153Y0061286D02*
X0026503Y0061286D01*
X0026503Y0059688D02*
X0026153Y0059688D01*
X0026153Y0058089D02*
X0026503Y0058089D01*
X0026503Y0056491D02*
X0026153Y0056491D01*
X0026153Y0054892D02*
X0026503Y0054892D01*
X0026503Y0053294D02*
X0026153Y0053294D01*
X0026153Y0051695D02*
X0026503Y0051695D01*
X0026503Y0050097D02*
X0026153Y0050097D01*
X0028890Y0050097D02*
X0040847Y0050097D01*
X0039923Y0051695D02*
X0042445Y0051695D01*
X0032732Y0051695D02*
X0030489Y0051695D01*
X0041905Y0042104D02*
X0043088Y0042104D01*
X0043088Y0040506D02*
X0042077Y0040506D01*
X0041669Y0038907D02*
X0043088Y0038907D01*
X0043088Y0037309D02*
X0040452Y0037309D01*
X0049488Y0038907D02*
X0050206Y0038907D01*
X0057488Y0038907D02*
X0060206Y0038907D01*
X0059119Y0037309D02*
X0058575Y0037309D01*
X0078054Y0038907D02*
X0079640Y0038907D01*
X0098575Y0037309D02*
X0128301Y0037309D01*
X0129900Y0035710D02*
X0098997Y0035710D01*
X0098997Y0034111D02*
X0131498Y0034111D01*
X0133097Y0032513D02*
X0098997Y0032513D01*
X0098997Y0030914D02*
X0134695Y0030914D01*
X0136294Y0029316D02*
X0098997Y0029316D01*
X0098905Y0027717D02*
X0138048Y0027717D01*
X0140549Y0034111D02*
X0198484Y0034111D01*
X0200082Y0035710D02*
X0138951Y0035710D01*
X0137352Y0037309D02*
X0201681Y0037309D01*
X0200870Y0037906D02*
X0202634Y0038636D01*
X0203984Y0039987D01*
X0204715Y0041751D01*
X0204715Y0043660D01*
X0203984Y0045424D01*
X0202634Y0046775D01*
X0200870Y0047505D01*
X0193360Y0047505D01*
X0191596Y0046775D01*
X0190246Y0045424D01*
X0189515Y0043660D01*
X0189515Y0041751D01*
X0190246Y0039987D01*
X0191596Y0038636D01*
X0193360Y0037906D01*
X0200870Y0037906D01*
X0202905Y0038907D02*
X0203279Y0038907D01*
X0204199Y0040506D02*
X0204878Y0040506D01*
X0204715Y0042104D02*
X0206476Y0042104D01*
X0208075Y0043703D02*
X0204697Y0043703D01*
X0204035Y0045301D02*
X0209673Y0045301D01*
X0211272Y0046900D02*
X0202333Y0046900D01*
X0201911Y0047886D02*
X0202640Y0048258D01*
X0203303Y0048739D01*
X0203881Y0049318D01*
X0204362Y0049980D01*
X0204734Y0050709D01*
X0204987Y0051488D01*
X0205115Y0052296D01*
X0205115Y0052705D01*
X0197115Y0052705D01*
X0197115Y0047506D01*
X0200324Y0047506D01*
X0201133Y0047634D01*
X0201911Y0047886D01*
X0202971Y0048498D02*
X0211746Y0048498D01*
X0212701Y0050097D02*
X0204422Y0050097D01*
X0205020Y0051695D02*
X0231631Y0051695D01*
X0230033Y0053294D02*
X0205087Y0053294D01*
X0205115Y0053115D02*
X0204987Y0053923D01*
X0204734Y0054702D01*
X0204362Y0055431D01*
X0203881Y0056093D01*
X0203303Y0056672D01*
X0202640Y0057153D01*
X0201911Y0057525D01*
X0201133Y0057777D01*
X0200324Y0057905D01*
X0197115Y0057905D01*
X0193906Y0057905D01*
X0193097Y0057777D01*
X0192319Y0057525D01*
X0191590Y0057153D01*
X0190927Y0056672D01*
X0190349Y0056093D01*
X0189868Y0055431D01*
X0189496Y0054702D01*
X0189243Y0053923D01*
X0189115Y0053115D01*
X0189115Y0052706D01*
X0197115Y0052706D01*
X0197115Y0052706D01*
X0197115Y0057905D01*
X0197115Y0052706D01*
X0205115Y0052706D01*
X0205115Y0053115D01*
X0204637Y0054892D02*
X0228434Y0054892D01*
X0226836Y0056491D02*
X0203484Y0056491D01*
X0202634Y0058636D02*
X0200870Y0057906D01*
X0193360Y0057906D01*
X0191596Y0058636D01*
X0190727Y0059506D01*
X0190258Y0059506D01*
X0189082Y0059993D01*
X0185420Y0063654D01*
X0184520Y0064554D01*
X0184033Y0065730D01*
X0184033Y0083133D01*
X0182315Y0084851D01*
X0182315Y0088828D01*
X0185127Y0091639D01*
X0189103Y0091639D01*
X0191915Y0088828D01*
X0191915Y0084851D01*
X0190433Y0083369D01*
X0190433Y0075612D01*
X0191596Y0076775D01*
X0193360Y0077505D01*
X0200870Y0077505D01*
X0202634Y0076775D01*
X0203984Y0075424D01*
X0204715Y0073660D01*
X0204715Y0071751D01*
X0203984Y0069987D01*
X0202634Y0068636D01*
X0200870Y0067906D01*
X0193360Y0067906D01*
X0191596Y0068636D01*
X0190433Y0069799D01*
X0190433Y0067692D01*
X0191473Y0066652D01*
X0191596Y0066775D01*
X0193360Y0067505D01*
X0200870Y0067505D01*
X0202634Y0066775D01*
X0203984Y0065424D01*
X0204715Y0063660D01*
X0204715Y0061751D01*
X0203984Y0059987D01*
X0202634Y0058636D01*
X0201313Y0058089D02*
X0225237Y0058089D01*
X0223639Y0059688D02*
X0203685Y0059688D01*
X0204523Y0061286D02*
X0220452Y0061286D01*
X0220145Y0061413D02*
X0221781Y0060736D01*
X0222591Y0060736D01*
X0241051Y0042276D01*
X0241051Y0041466D01*
X0241728Y0039830D01*
X0242980Y0038579D01*
X0244616Y0037901D01*
X0246386Y0037901D01*
X0248022Y0038579D01*
X0249273Y0039830D01*
X0249951Y0041466D01*
X0249951Y0043236D01*
X0249273Y0044872D01*
X0248022Y0046124D01*
X0246386Y0046801D01*
X0245576Y0046801D01*
X0227116Y0065261D01*
X0227116Y0066071D01*
X0226439Y0067707D01*
X0225187Y0068958D01*
X0223551Y0069636D01*
X0221781Y0069636D01*
X0220145Y0068958D01*
X0218894Y0067707D01*
X0218216Y0066071D01*
X0218216Y0064301D01*
X0218894Y0062665D01*
X0220145Y0061413D01*
X0218803Y0062885D02*
X0204715Y0062885D01*
X0204374Y0064483D02*
X0218216Y0064483D01*
X0218221Y0066082D02*
X0203327Y0066082D01*
X0203276Y0069279D02*
X0220919Y0069279D01*
X0218883Y0067680D02*
X0190445Y0067680D01*
X0190433Y0069279D02*
X0190954Y0069279D01*
X0190494Y0075673D02*
X0190433Y0075673D01*
X0190433Y0077271D02*
X0192795Y0077271D01*
X0190433Y0078870D02*
X0220501Y0078870D01*
X0221859Y0077512D02*
X0225835Y0077512D01*
X0228647Y0080324D01*
X0228647Y0084300D01*
X0225835Y0087112D01*
X0221859Y0087112D01*
X0219047Y0084300D01*
X0219047Y0080324D01*
X0221859Y0077512D01*
X0219047Y0080468D02*
X0190433Y0080468D01*
X0190433Y0082067D02*
X0219047Y0082067D01*
X0219047Y0083665D02*
X0190729Y0083665D01*
X0191915Y0085264D02*
X0220011Y0085264D01*
X0221610Y0086862D02*
X0191915Y0086862D01*
X0191915Y0088461D02*
X0221540Y0088461D01*
X0221859Y0088142D02*
X0225835Y0088142D01*
X0228647Y0090954D01*
X0228647Y0094930D01*
X0225835Y0097742D01*
X0221859Y0097742D01*
X0219047Y0094930D01*
X0219047Y0090954D01*
X0221859Y0088142D01*
X0219941Y0090059D02*
X0190683Y0090059D01*
X0183547Y0090059D02*
X0181249Y0090059D01*
X0182315Y0088993D02*
X0179269Y0092039D01*
X0177115Y0092039D01*
X0177115Y0086839D01*
X0177115Y0081639D01*
X0179269Y0081639D01*
X0182315Y0084685D01*
X0182315Y0086839D01*
X0177115Y0086839D01*
X0177115Y0086839D01*
X0177115Y0081639D01*
X0174961Y0081639D01*
X0171915Y0084685D01*
X0171915Y0086839D01*
X0177115Y0086839D01*
X0177115Y0086839D01*
X0177115Y0086839D01*
X0182315Y0086839D01*
X0182315Y0088993D01*
X0182315Y0088461D02*
X0182315Y0088461D01*
X0182315Y0086862D02*
X0182315Y0086862D01*
X0182315Y0085264D02*
X0182315Y0085264D01*
X0181295Y0083665D02*
X0183501Y0083665D01*
X0184033Y0082067D02*
X0179696Y0082067D01*
X0177115Y0082067D02*
X0177115Y0082067D01*
X0177115Y0083665D02*
X0177115Y0083665D01*
X0177115Y0085264D02*
X0177115Y0085264D01*
X0177115Y0086839D02*
X0171915Y0086839D01*
X0171915Y0088993D01*
X0174961Y0092039D01*
X0177115Y0092039D01*
X0177115Y0086839D01*
X0177115Y0086839D01*
X0177115Y0086862D02*
X0177115Y0086862D01*
X0177115Y0088461D02*
X0177115Y0088461D01*
X0177115Y0090059D02*
X0177115Y0090059D01*
X0177115Y0091658D02*
X0177115Y0091658D01*
X0179650Y0091658D02*
X0219047Y0091658D01*
X0219047Y0093256D02*
X0120971Y0093256D01*
X0119373Y0094855D02*
X0219047Y0094855D01*
X0220571Y0096453D02*
X0119198Y0096453D01*
X0118439Y0098052D02*
X0249070Y0098052D01*
X0250686Y0099650D02*
X0116840Y0099650D01*
X0111957Y0099650D02*
X0108900Y0099650D01*
X0110358Y0098052D02*
X0107302Y0098052D01*
X0105703Y0096453D02*
X0109598Y0096453D01*
X0109598Y0094855D02*
X0104105Y0094855D01*
X0103785Y0093256D02*
X0109658Y0093256D01*
X0111256Y0091658D02*
X0102186Y0091658D01*
X0110499Y0101249D02*
X0252302Y0101249D01*
X0253918Y0102847D02*
X0112097Y0102847D01*
X0113696Y0104446D02*
X0255534Y0104446D01*
X0257151Y0106044D02*
X0115294Y0106044D01*
X0122570Y0091658D02*
X0174580Y0091658D01*
X0172981Y0090059D02*
X0124168Y0090059D01*
X0125540Y0088461D02*
X0171915Y0088461D01*
X0171915Y0086862D02*
X0125866Y0086862D01*
X0125866Y0085264D02*
X0171915Y0085264D01*
X0172935Y0083665D02*
X0125866Y0083665D01*
X0125866Y0082067D02*
X0174534Y0082067D01*
X0171911Y0077525D02*
X0171133Y0077777D01*
X0170324Y0077905D01*
X0167115Y0077905D01*
X0163906Y0077905D01*
X0163097Y0077777D01*
X0162319Y0077525D01*
X0161590Y0077153D01*
X0160927Y0076672D01*
X0160349Y0076093D01*
X0159868Y0075431D01*
X0159496Y0074702D01*
X0159243Y0073923D01*
X0159115Y0073115D01*
X0159115Y0072706D01*
X0167115Y0072706D01*
X0167115Y0072706D01*
X0167115Y0077905D01*
X0167115Y0072706D01*
X0175115Y0072706D01*
X0175115Y0073115D01*
X0174987Y0073923D01*
X0174734Y0074702D01*
X0174362Y0075431D01*
X0173881Y0076093D01*
X0173303Y0076672D01*
X0172640Y0077153D01*
X0171911Y0077525D01*
X0172408Y0077271D02*
X0184033Y0077271D01*
X0184033Y0075673D02*
X0174187Y0075673D01*
X0174938Y0074074D02*
X0184033Y0074074D01*
X0184033Y0072476D02*
X0175115Y0072476D01*
X0175115Y0072296D02*
X0174987Y0071488D01*
X0174734Y0070709D01*
X0174362Y0069980D01*
X0173881Y0069318D01*
X0173303Y0068739D01*
X0172640Y0068258D01*
X0171911Y0067886D01*
X0171133Y0067634D01*
X0170324Y0067506D01*
X0167115Y0067506D01*
X0167115Y0072705D01*
X0167115Y0072705D01*
X0167115Y0067506D01*
X0163906Y0067506D01*
X0163097Y0067634D01*
X0162319Y0067886D01*
X0161590Y0068258D01*
X0160927Y0068739D01*
X0160349Y0069318D01*
X0159868Y0069980D01*
X0159496Y0070709D01*
X0159243Y0071488D01*
X0159115Y0072296D01*
X0159115Y0072705D01*
X0167115Y0072705D01*
X0167115Y0072706D01*
X0167115Y0072705D01*
X0175115Y0072705D01*
X0175115Y0072296D01*
X0174789Y0070877D02*
X0184033Y0070877D01*
X0184033Y0069279D02*
X0173842Y0069279D01*
X0172634Y0066775D02*
X0170870Y0067505D01*
X0163360Y0067505D01*
X0161596Y0066775D01*
X0160246Y0065424D01*
X0159515Y0063660D01*
X0159515Y0061751D01*
X0160246Y0059987D01*
X0161596Y0058636D01*
X0163360Y0057906D01*
X0170870Y0057906D01*
X0172634Y0058636D01*
X0173984Y0059987D01*
X0174715Y0061751D01*
X0174715Y0063660D01*
X0173984Y0065424D01*
X0172634Y0066775D01*
X0173327Y0066082D02*
X0184033Y0066082D01*
X0184033Y0067680D02*
X0171276Y0067680D01*
X0167115Y0067680D02*
X0167115Y0067680D01*
X0167115Y0069279D02*
X0167115Y0069279D01*
X0167115Y0070877D02*
X0167115Y0070877D01*
X0167115Y0072476D02*
X0167115Y0072476D01*
X0167115Y0074074D02*
X0167115Y0074074D01*
X0167115Y0075673D02*
X0167115Y0075673D01*
X0167115Y0077271D02*
X0167115Y0077271D01*
X0161822Y0077271D02*
X0125866Y0077271D01*
X0125866Y0075673D02*
X0160043Y0075673D01*
X0159292Y0074074D02*
X0125866Y0074074D01*
X0125866Y0072476D02*
X0159115Y0072476D01*
X0159441Y0070877D02*
X0125866Y0070877D01*
X0125866Y0069279D02*
X0160388Y0069279D01*
X0162954Y0067680D02*
X0125866Y0067680D01*
X0125866Y0066082D02*
X0160903Y0066082D01*
X0159856Y0064483D02*
X0125866Y0064483D01*
X0125866Y0062885D02*
X0159515Y0062885D01*
X0159707Y0061286D02*
X0154496Y0061286D01*
X0153395Y0062387D02*
X0149418Y0062387D01*
X0146606Y0059576D01*
X0146606Y0055599D01*
X0149418Y0052787D01*
X0153395Y0052787D01*
X0156206Y0055599D01*
X0156206Y0059576D01*
X0153395Y0062387D01*
X0156094Y0059688D02*
X0160545Y0059688D01*
X0161590Y0057153D02*
X0160927Y0056672D01*
X0160349Y0056093D01*
X0159868Y0055431D01*
X0159496Y0054702D01*
X0159243Y0053923D01*
X0159115Y0053115D01*
X0159115Y0052706D01*
X0167115Y0052706D01*
X0167115Y0052706D01*
X0167115Y0057905D01*
X0163906Y0057905D01*
X0163097Y0057777D01*
X0162319Y0057525D01*
X0161590Y0057153D01*
X0160746Y0056491D02*
X0156206Y0056491D01*
X0156206Y0058089D02*
X0162917Y0058089D01*
X0167115Y0057905D02*
X0167115Y0052706D01*
X0175115Y0052706D01*
X0175115Y0053115D01*
X0174987Y0053923D01*
X0174734Y0054702D01*
X0174362Y0055431D01*
X0173881Y0056093D01*
X0173303Y0056672D01*
X0172640Y0057153D01*
X0171911Y0057525D01*
X0171133Y0057777D01*
X0170324Y0057905D01*
X0167115Y0057905D01*
X0167115Y0056491D02*
X0167115Y0056491D01*
X0167115Y0054892D02*
X0167115Y0054892D01*
X0167115Y0053294D02*
X0167115Y0053294D01*
X0167115Y0052706D02*
X0167115Y0052705D01*
X0167115Y0047506D01*
X0170324Y0047506D01*
X0171133Y0047634D01*
X0171911Y0047886D01*
X0172640Y0048258D01*
X0173303Y0048739D01*
X0173881Y0049318D01*
X0174362Y0049980D01*
X0174734Y0050709D01*
X0174987Y0051488D01*
X0175115Y0052296D01*
X0175115Y0052705D01*
X0167115Y0052705D01*
X0167115Y0052705D01*
X0167115Y0047506D01*
X0163906Y0047506D01*
X0163097Y0047634D01*
X0162319Y0047886D01*
X0161590Y0048258D01*
X0160927Y0048739D01*
X0160349Y0049318D01*
X0159868Y0049980D01*
X0159496Y0050709D01*
X0159243Y0051488D01*
X0159115Y0052296D01*
X0159115Y0052705D01*
X0167115Y0052705D01*
X0167115Y0052706D01*
X0167115Y0051695D02*
X0167115Y0051695D01*
X0167115Y0050097D02*
X0167115Y0050097D01*
X0167115Y0048498D02*
X0167115Y0048498D01*
X0170870Y0047505D02*
X0163360Y0047505D01*
X0161596Y0046775D01*
X0160246Y0045424D01*
X0159515Y0043660D01*
X0159515Y0041751D01*
X0160246Y0039987D01*
X0161596Y0038636D01*
X0163360Y0037906D01*
X0170870Y0037906D01*
X0172634Y0038636D01*
X0173984Y0039987D01*
X0174715Y0041751D01*
X0174715Y0043660D01*
X0173984Y0045424D01*
X0172634Y0046775D01*
X0170870Y0047505D01*
X0172333Y0046900D02*
X0191897Y0046900D01*
X0192319Y0047886D02*
X0193097Y0047634D01*
X0193906Y0047506D01*
X0197115Y0047506D01*
X0197115Y0052705D01*
X0197115Y0052705D01*
X0197115Y0052706D01*
X0197115Y0052705D01*
X0189115Y0052705D01*
X0189115Y0052296D01*
X0189243Y0051488D01*
X0189496Y0050709D01*
X0189868Y0049980D01*
X0190349Y0049318D01*
X0190927Y0048739D01*
X0191590Y0048258D01*
X0192319Y0047886D01*
X0191259Y0048498D02*
X0172971Y0048498D01*
X0174422Y0050097D02*
X0189808Y0050097D01*
X0189210Y0051695D02*
X0175020Y0051695D01*
X0175087Y0053294D02*
X0189143Y0053294D01*
X0189593Y0054892D02*
X0174637Y0054892D01*
X0173484Y0056491D02*
X0190746Y0056491D01*
X0192917Y0058089D02*
X0171313Y0058089D01*
X0173685Y0059688D02*
X0189818Y0059688D01*
X0187788Y0061286D02*
X0174523Y0061286D01*
X0174715Y0062885D02*
X0186190Y0062885D01*
X0184591Y0064483D02*
X0174374Y0064483D01*
X0159593Y0054892D02*
X0155499Y0054892D01*
X0153901Y0053294D02*
X0159143Y0053294D01*
X0159210Y0051695D02*
X0154087Y0051695D01*
X0153395Y0052387D02*
X0149418Y0052387D01*
X0146606Y0049576D01*
X0146606Y0045599D01*
X0149418Y0042787D01*
X0153395Y0042787D01*
X0156206Y0045599D01*
X0156206Y0049576D01*
X0153395Y0052387D01*
X0155685Y0050097D02*
X0159808Y0050097D01*
X0161259Y0048498D02*
X0156206Y0048498D01*
X0156206Y0046900D02*
X0161897Y0046900D01*
X0160195Y0045301D02*
X0155908Y0045301D01*
X0154310Y0043703D02*
X0159532Y0043703D01*
X0159515Y0042104D02*
X0132557Y0042104D01*
X0134155Y0040506D02*
X0160031Y0040506D01*
X0161325Y0038907D02*
X0135754Y0038907D01*
X0130958Y0043703D02*
X0148503Y0043703D01*
X0146904Y0045301D02*
X0129360Y0045301D01*
X0127761Y0046900D02*
X0146606Y0046900D01*
X0146606Y0048498D02*
X0126163Y0048498D01*
X0125866Y0050097D02*
X0147127Y0050097D01*
X0148726Y0051695D02*
X0125866Y0051695D01*
X0125866Y0053294D02*
X0148912Y0053294D01*
X0147313Y0054892D02*
X0125866Y0054892D01*
X0125866Y0056491D02*
X0146606Y0056491D01*
X0146606Y0058089D02*
X0125866Y0058089D01*
X0125866Y0059688D02*
X0146718Y0059688D01*
X0148317Y0061286D02*
X0125866Y0061286D01*
X0112403Y0050097D02*
X0101040Y0050097D01*
X0102638Y0048498D02*
X0110804Y0048498D01*
X0109598Y0046900D02*
X0103844Y0046900D01*
X0103844Y0045301D02*
X0109598Y0045301D01*
X0109598Y0043703D02*
X0103844Y0043703D01*
X0102632Y0042104D02*
X0110810Y0042104D01*
X0112409Y0040506D02*
X0101034Y0040506D01*
X0098243Y0026119D02*
X0359288Y0026119D01*
X0357634Y0024520D02*
X0096575Y0024520D01*
X0125866Y0078870D02*
X0184033Y0078870D01*
X0184033Y0080468D02*
X0125866Y0080468D01*
X0174035Y0045301D02*
X0190195Y0045301D01*
X0189532Y0043703D02*
X0174697Y0043703D01*
X0174715Y0042104D02*
X0189515Y0042104D01*
X0190031Y0040506D02*
X0174199Y0040506D01*
X0172905Y0038907D02*
X0191325Y0038907D01*
X0200985Y0027717D02*
X0221653Y0027717D01*
X0221859Y0027512D02*
X0225835Y0027512D01*
X0228647Y0030324D01*
X0228647Y0034300D01*
X0225835Y0037112D01*
X0221859Y0037112D01*
X0219047Y0034300D01*
X0219047Y0030324D01*
X0221859Y0027512D01*
X0220055Y0029316D02*
X0202739Y0029316D01*
X0204338Y0030914D02*
X0219047Y0030914D01*
X0219047Y0032513D02*
X0205936Y0032513D01*
X0207535Y0034111D02*
X0219047Y0034111D01*
X0220457Y0035710D02*
X0209133Y0035710D01*
X0210732Y0037309D02*
X0248925Y0037309D01*
X0248350Y0038907D02*
X0250523Y0038907D01*
X0250569Y0038952D02*
X0247128Y0035512D01*
X0246727Y0035512D01*
X0245127Y0037112D01*
X0241150Y0037112D01*
X0238339Y0034300D01*
X0238339Y0030324D01*
X0241150Y0027512D01*
X0245127Y0027512D01*
X0246727Y0029112D01*
X0249090Y0029112D01*
X0250266Y0029599D01*
X0255581Y0034914D01*
X0256481Y0035814D01*
X0256968Y0036990D01*
X0256968Y0065829D01*
X0260999Y0069860D01*
X0274197Y0069860D01*
X0273618Y0069281D01*
X0272941Y0067646D01*
X0272941Y0065875D01*
X0273618Y0064240D01*
X0274191Y0063667D01*
X0274191Y0039746D01*
X0274678Y0038570D01*
X0275578Y0037670D01*
X0280302Y0032945D01*
X0281478Y0032458D01*
X0331570Y0032458D01*
X0332747Y0032945D01*
X0333647Y0033846D01*
X0363568Y0063767D01*
X0364055Y0064943D01*
X0364055Y0087482D01*
X0366314Y0089742D01*
X0366716Y0089742D01*
X0368316Y0088142D01*
X0372292Y0088142D01*
X0375104Y0090954D01*
X0375104Y0094930D01*
X0372292Y0097742D01*
X0368316Y0097742D01*
X0366716Y0096142D01*
X0364352Y0096142D01*
X0363176Y0095655D01*
X0359042Y0091521D01*
X0358142Y0090621D01*
X0357655Y0089444D01*
X0357655Y0066905D01*
X0329608Y0038858D01*
X0298301Y0038858D01*
X0298594Y0039151D01*
X0301767Y0039151D01*
X0302943Y0039638D01*
X0321644Y0058339D01*
X0325673Y0058339D01*
X0327437Y0059069D01*
X0328787Y0060420D01*
X0329518Y0062184D01*
X0329518Y0064093D01*
X0328787Y0065858D01*
X0327437Y0067208D01*
X0325673Y0067939D01*
X0318163Y0067939D01*
X0316399Y0067208D01*
X0315049Y0065858D01*
X0314318Y0064093D01*
X0314318Y0062184D01*
X0314939Y0060685D01*
X0299805Y0045551D01*
X0298594Y0045551D01*
X0298022Y0046124D01*
X0296386Y0046801D01*
X0294616Y0046801D01*
X0292980Y0046124D01*
X0291728Y0044872D01*
X0291051Y0043236D01*
X0291051Y0041466D01*
X0291728Y0039830D01*
X0292700Y0038858D01*
X0283440Y0038858D01*
X0280591Y0041708D01*
X0280591Y0063667D01*
X0281163Y0064240D01*
X0281841Y0065875D01*
X0281841Y0067646D01*
X0281163Y0069281D01*
X0280585Y0069860D01*
X0285609Y0069860D01*
X0286399Y0069069D01*
X0288163Y0068339D01*
X0295673Y0068339D01*
X0297437Y0069069D01*
X0298787Y0070420D01*
X0299518Y0072184D01*
X0299518Y0074093D01*
X0298787Y0075858D01*
X0297437Y0077208D01*
X0295673Y0077939D01*
X0288163Y0077939D01*
X0286399Y0077208D01*
X0285451Y0076260D01*
X0281413Y0076260D01*
X0281841Y0077293D01*
X0281841Y0079063D01*
X0281163Y0080699D01*
X0280591Y0081271D01*
X0280591Y0104018D01*
X0286021Y0109448D01*
X0286399Y0109069D01*
X0288163Y0108339D01*
X0295673Y0108339D01*
X0297437Y0109069D01*
X0298787Y0110420D01*
X0299518Y0112184D01*
X0299518Y0114093D01*
X0298787Y0115858D01*
X0297437Y0117208D01*
X0295673Y0117939D01*
X0288163Y0117939D01*
X0286399Y0117208D01*
X0285609Y0116417D01*
X0284628Y0116417D01*
X0283452Y0115930D01*
X0282552Y0115030D01*
X0274678Y0107156D01*
X0274191Y0105980D01*
X0274191Y0081271D01*
X0273618Y0080699D01*
X0272941Y0079063D01*
X0272941Y0077293D01*
X0273368Y0076260D01*
X0259037Y0076260D01*
X0257861Y0075773D01*
X0256961Y0074872D01*
X0251056Y0068967D01*
X0250569Y0067791D01*
X0250569Y0038952D01*
X0250569Y0040506D02*
X0249553Y0040506D01*
X0249951Y0042104D02*
X0250569Y0042104D01*
X0250569Y0043703D02*
X0249758Y0043703D01*
X0250569Y0045301D02*
X0248844Y0045301D01*
X0250569Y0046900D02*
X0245478Y0046900D01*
X0243879Y0048498D02*
X0250569Y0048498D01*
X0250569Y0050097D02*
X0242281Y0050097D01*
X0240682Y0051695D02*
X0250569Y0051695D01*
X0250569Y0053294D02*
X0239084Y0053294D01*
X0237485Y0054892D02*
X0250569Y0054892D01*
X0250569Y0056491D02*
X0235887Y0056491D01*
X0234288Y0058089D02*
X0250569Y0058089D01*
X0250569Y0059688D02*
X0232690Y0059688D01*
X0231091Y0061286D02*
X0250569Y0061286D01*
X0250569Y0062885D02*
X0229493Y0062885D01*
X0227894Y0064483D02*
X0250569Y0064483D01*
X0250569Y0066082D02*
X0227112Y0066082D01*
X0226450Y0067680D02*
X0250569Y0067680D01*
X0251367Y0069279D02*
X0224413Y0069279D01*
X0227193Y0078870D02*
X0239792Y0078870D01*
X0241150Y0077512D02*
X0238339Y0080324D01*
X0238339Y0084300D01*
X0241150Y0087112D01*
X0245127Y0087112D01*
X0247939Y0084300D01*
X0247939Y0080324D01*
X0245127Y0077512D01*
X0241150Y0077512D01*
X0238339Y0080468D02*
X0228647Y0080468D01*
X0228647Y0082067D02*
X0238339Y0082067D01*
X0238339Y0083665D02*
X0228647Y0083665D01*
X0227683Y0085264D02*
X0239302Y0085264D01*
X0240901Y0086862D02*
X0226085Y0086862D01*
X0226155Y0088461D02*
X0240831Y0088461D01*
X0241150Y0088142D02*
X0238339Y0090954D01*
X0238339Y0094930D01*
X0241150Y0097742D01*
X0245127Y0097742D01*
X0246727Y0096142D01*
X0247138Y0096142D01*
X0282220Y0130840D01*
X0282665Y0131284D01*
X0282673Y0131288D01*
X0282679Y0131294D01*
X0283260Y0131531D01*
X0283841Y0131772D01*
X0283850Y0131772D01*
X0283858Y0131775D01*
X0284486Y0131772D01*
X0299287Y0131772D01*
X0300463Y0131284D01*
X0303613Y0128135D01*
X0304513Y0127235D01*
X0305000Y0126059D01*
X0305000Y0118873D01*
X0307456Y0116417D01*
X0315609Y0116417D01*
X0316399Y0117208D01*
X0318163Y0117939D01*
X0325673Y0117939D01*
X0327437Y0117208D01*
X0328787Y0115858D01*
X0329518Y0114093D01*
X0329518Y0112184D01*
X0328787Y0110420D01*
X0327437Y0109069D01*
X0325673Y0108339D01*
X0318163Y0108339D01*
X0316399Y0109069D01*
X0315451Y0110017D01*
X0305494Y0110017D01*
X0304318Y0110504D01*
X0303418Y0111405D01*
X0303418Y0111405D01*
X0299987Y0114835D01*
X0299987Y0114835D01*
X0299087Y0115735D01*
X0298600Y0116912D01*
X0298600Y0120232D01*
X0297437Y0119069D01*
X0295673Y0118339D01*
X0288163Y0118339D01*
X0286399Y0119069D01*
X0285049Y0120420D01*
X0284318Y0122184D01*
X0284318Y0123914D01*
X0250711Y0090673D01*
X0250266Y0090229D01*
X0250258Y0090225D01*
X0250251Y0090219D01*
X0249671Y0089982D01*
X0249090Y0089742D01*
X0249081Y0089742D01*
X0249072Y0089738D01*
X0248445Y0089742D01*
X0246727Y0089742D01*
X0245127Y0088142D01*
X0241150Y0088142D01*
X0239233Y0090059D02*
X0227753Y0090059D01*
X0228647Y0091658D02*
X0238339Y0091658D01*
X0238339Y0093256D02*
X0228647Y0093256D01*
X0228647Y0094855D02*
X0238339Y0094855D01*
X0239862Y0096453D02*
X0227124Y0096453D01*
X0223979Y0107643D02*
X0258767Y0107643D01*
X0260383Y0109242D02*
X0225578Y0109242D01*
X0227177Y0110840D02*
X0261999Y0110840D01*
X0263615Y0112439D02*
X0228775Y0112439D01*
X0230374Y0114037D02*
X0265231Y0114037D01*
X0266848Y0115636D02*
X0231972Y0115636D01*
X0233571Y0117234D02*
X0268464Y0117234D01*
X0270080Y0118833D02*
X0235169Y0118833D01*
X0236768Y0120431D02*
X0271696Y0120431D01*
X0273312Y0122030D02*
X0238366Y0122030D01*
X0239965Y0123628D02*
X0274928Y0123628D01*
X0276545Y0125227D02*
X0241563Y0125227D01*
X0243162Y0126825D02*
X0278161Y0126825D01*
X0279777Y0128424D02*
X0244760Y0128424D01*
X0246359Y0130022D02*
X0281393Y0130022D01*
X0283476Y0131621D02*
X0247957Y0131621D01*
X0249556Y0133219D02*
X0297175Y0133219D01*
X0298237Y0132157D02*
X0302213Y0132157D01*
X0305025Y0134969D01*
X0305025Y0138946D01*
X0302213Y0141757D01*
X0298237Y0141757D01*
X0295425Y0138946D01*
X0295425Y0134969D01*
X0298237Y0132157D01*
X0299651Y0131621D02*
X0318718Y0131621D01*
X0318718Y0133219D02*
X0316661Y0133219D01*
X0315599Y0132157D02*
X0318411Y0134969D01*
X0318411Y0138946D01*
X0315599Y0141757D01*
X0311623Y0141757D01*
X0308811Y0138946D01*
X0308811Y0134969D01*
X0311623Y0132157D01*
X0315599Y0132157D01*
X0318259Y0134818D02*
X0318718Y0134818D01*
X0318718Y0136416D02*
X0318411Y0136416D01*
X0318411Y0138015D02*
X0318718Y0138015D01*
X0318718Y0139613D02*
X0317743Y0139613D01*
X0318718Y0141212D02*
X0316145Y0141212D01*
X0316818Y0142810D02*
X0318718Y0142810D01*
X0318718Y0144409D02*
X0318416Y0144409D01*
X0313611Y0144409D02*
X0313611Y0144409D01*
X0313611Y0146007D02*
X0313611Y0146007D01*
X0313611Y0146957D02*
X0313611Y0146957D01*
X0313611Y0141757D01*
X0311457Y0141757D01*
X0308411Y0144804D01*
X0308411Y0146957D01*
X0313611Y0146957D01*
X0313611Y0142810D02*
X0313611Y0142810D01*
X0311077Y0141212D02*
X0302759Y0141212D01*
X0303432Y0142810D02*
X0310404Y0142810D01*
X0308806Y0144409D02*
X0305030Y0144409D01*
X0305425Y0146007D02*
X0308411Y0146007D01*
X0308411Y0147606D02*
X0305425Y0147606D01*
X0305332Y0149204D02*
X0308504Y0149204D01*
X0300225Y0146007D02*
X0300225Y0146007D01*
X0300225Y0144409D02*
X0300225Y0144409D01*
X0300225Y0142810D02*
X0300225Y0142810D01*
X0297691Y0141212D02*
X0291406Y0141212D01*
X0293005Y0142810D02*
X0297019Y0142810D01*
X0295420Y0144409D02*
X0294604Y0144409D01*
X0296093Y0139613D02*
X0289216Y0139613D01*
X0295425Y0138015D02*
X0254351Y0138015D01*
X0255950Y0139613D02*
X0260843Y0139613D01*
X0259823Y0141212D02*
X0257548Y0141212D01*
X0259147Y0142810D02*
X0259555Y0142810D01*
X0252753Y0136416D02*
X0295425Y0136416D01*
X0295577Y0134818D02*
X0251154Y0134818D01*
X0275949Y0115636D02*
X0283157Y0115636D01*
X0281559Y0114037D02*
X0274332Y0114037D01*
X0272716Y0112439D02*
X0279960Y0112439D01*
X0278362Y0110840D02*
X0271100Y0110840D01*
X0269484Y0109242D02*
X0276763Y0109242D01*
X0275165Y0107643D02*
X0267868Y0107643D01*
X0266252Y0106044D02*
X0274217Y0106044D01*
X0274191Y0104446D02*
X0264635Y0104446D01*
X0263019Y0102847D02*
X0274191Y0102847D01*
X0274191Y0101249D02*
X0261403Y0101249D01*
X0259787Y0099650D02*
X0274191Y0099650D01*
X0274191Y0098052D02*
X0258171Y0098052D01*
X0256555Y0096453D02*
X0274191Y0096453D01*
X0274191Y0094855D02*
X0254938Y0094855D01*
X0253322Y0093256D02*
X0274191Y0093256D01*
X0274191Y0091658D02*
X0251706Y0091658D01*
X0249860Y0090059D02*
X0274191Y0090059D01*
X0274191Y0088461D02*
X0245446Y0088461D01*
X0245376Y0086862D02*
X0260192Y0086862D01*
X0260442Y0087112D02*
X0257630Y0084300D01*
X0257630Y0080324D01*
X0260442Y0077512D01*
X0264418Y0077512D01*
X0267230Y0080324D01*
X0267230Y0084300D01*
X0264418Y0087112D01*
X0260442Y0087112D01*
X0258594Y0085264D02*
X0246975Y0085264D01*
X0247939Y0083665D02*
X0257630Y0083665D01*
X0257630Y0082067D02*
X0247939Y0082067D01*
X0247939Y0080468D02*
X0257630Y0080468D01*
X0259084Y0078870D02*
X0246485Y0078870D01*
X0254564Y0072476D02*
X0204715Y0072476D01*
X0204543Y0074074D02*
X0256163Y0074074D01*
X0257761Y0075673D02*
X0203736Y0075673D01*
X0201435Y0077271D02*
X0272949Y0077271D01*
X0272941Y0078870D02*
X0265776Y0078870D01*
X0267230Y0080468D02*
X0273523Y0080468D01*
X0274191Y0082067D02*
X0267230Y0082067D01*
X0267230Y0083665D02*
X0274191Y0083665D01*
X0274191Y0085264D02*
X0266266Y0085264D01*
X0264668Y0086862D02*
X0274191Y0086862D01*
X0280591Y0086862D02*
X0286054Y0086862D01*
X0286399Y0087208D02*
X0285049Y0085858D01*
X0284318Y0084093D01*
X0284318Y0082184D01*
X0285049Y0080420D01*
X0286399Y0079069D01*
X0288163Y0078339D01*
X0295673Y0078339D01*
X0297437Y0079069D01*
X0298787Y0080420D01*
X0299518Y0082184D01*
X0299518Y0084093D01*
X0298787Y0085858D01*
X0297437Y0087208D01*
X0295673Y0087939D01*
X0288163Y0087939D01*
X0286399Y0087208D01*
X0286399Y0089069D02*
X0288163Y0088339D01*
X0295673Y0088339D01*
X0297437Y0089069D01*
X0298787Y0090420D01*
X0299518Y0092184D01*
X0299518Y0094093D01*
X0298787Y0095858D01*
X0297437Y0097208D01*
X0295673Y0097939D01*
X0288163Y0097939D01*
X0286399Y0097208D01*
X0285049Y0095858D01*
X0284318Y0094093D01*
X0284318Y0092184D01*
X0285049Y0090420D01*
X0286399Y0089069D01*
X0285409Y0090059D02*
X0280591Y0090059D01*
X0280591Y0088461D02*
X0287868Y0088461D01*
X0284803Y0085264D02*
X0280591Y0085264D01*
X0280591Y0083665D02*
X0284318Y0083665D01*
X0284367Y0082067D02*
X0280591Y0082067D01*
X0281258Y0080468D02*
X0285029Y0080468D01*
X0286881Y0078870D02*
X0281841Y0078870D01*
X0281832Y0077271D02*
X0286552Y0077271D01*
X0286190Y0069279D02*
X0281164Y0069279D01*
X0281826Y0067680D02*
X0287540Y0067680D01*
X0288163Y0067939D02*
X0286399Y0067208D01*
X0285049Y0065858D01*
X0284318Y0064093D01*
X0284318Y0062184D01*
X0285049Y0060420D01*
X0286399Y0059069D01*
X0288163Y0058339D01*
X0295673Y0058339D01*
X0297437Y0059069D01*
X0298787Y0060420D01*
X0299518Y0062184D01*
X0299518Y0064093D01*
X0298787Y0065858D01*
X0297437Y0067208D01*
X0295673Y0067939D01*
X0288163Y0067939D01*
X0285273Y0066082D02*
X0281841Y0066082D01*
X0281264Y0064483D02*
X0284480Y0064483D01*
X0284318Y0062885D02*
X0280591Y0062885D01*
X0280591Y0061286D02*
X0284690Y0061286D01*
X0285781Y0059688D02*
X0280591Y0059688D01*
X0280591Y0058089D02*
X0312343Y0058089D01*
X0310745Y0056491D02*
X0280591Y0056491D01*
X0280591Y0054892D02*
X0309146Y0054892D01*
X0307548Y0053294D02*
X0280591Y0053294D01*
X0280591Y0051695D02*
X0305949Y0051695D01*
X0304351Y0050097D02*
X0280591Y0050097D01*
X0280591Y0048498D02*
X0302752Y0048498D01*
X0301154Y0046900D02*
X0280591Y0046900D01*
X0280591Y0045301D02*
X0292157Y0045301D01*
X0291244Y0043703D02*
X0280591Y0043703D01*
X0280591Y0042104D02*
X0291051Y0042104D01*
X0291449Y0040506D02*
X0281793Y0040506D01*
X0283392Y0038907D02*
X0292652Y0038907D01*
X0298350Y0038907D02*
X0329657Y0038907D01*
X0331256Y0040506D02*
X0303811Y0040506D01*
X0305409Y0042104D02*
X0332854Y0042104D01*
X0334453Y0043703D02*
X0307008Y0043703D01*
X0308606Y0045301D02*
X0336051Y0045301D01*
X0337650Y0046900D02*
X0310205Y0046900D01*
X0311803Y0048498D02*
X0339248Y0048498D01*
X0340847Y0050097D02*
X0313402Y0050097D01*
X0315000Y0051695D02*
X0342445Y0051695D01*
X0344044Y0053294D02*
X0316599Y0053294D01*
X0318197Y0054892D02*
X0345642Y0054892D01*
X0347241Y0056491D02*
X0319796Y0056491D01*
X0321394Y0058089D02*
X0348839Y0058089D01*
X0350438Y0059688D02*
X0328055Y0059688D01*
X0329146Y0061286D02*
X0352036Y0061286D01*
X0353635Y0062885D02*
X0329518Y0062885D01*
X0329357Y0064483D02*
X0355233Y0064483D01*
X0356832Y0066082D02*
X0328563Y0066082D01*
X0326297Y0067680D02*
X0357655Y0067680D01*
X0357655Y0069279D02*
X0327646Y0069279D01*
X0327437Y0069069D02*
X0328787Y0070420D01*
X0329518Y0072184D01*
X0329518Y0074093D01*
X0328787Y0075858D01*
X0327437Y0077208D01*
X0325673Y0077939D01*
X0318163Y0077939D01*
X0316399Y0077208D01*
X0315049Y0075858D01*
X0314318Y0074093D01*
X0314318Y0072184D01*
X0315049Y0070420D01*
X0316399Y0069069D01*
X0318163Y0068339D01*
X0325673Y0068339D01*
X0327437Y0069069D01*
X0328977Y0070877D02*
X0357655Y0070877D01*
X0357655Y0072476D02*
X0329518Y0072476D01*
X0329518Y0074074D02*
X0357655Y0074074D01*
X0357655Y0075673D02*
X0328864Y0075673D01*
X0327284Y0077271D02*
X0357655Y0077271D01*
X0357655Y0078870D02*
X0354359Y0078870D01*
X0353001Y0077512D02*
X0355813Y0080324D01*
X0355813Y0084300D01*
X0353001Y0087112D01*
X0349024Y0087112D01*
X0346213Y0084300D01*
X0346213Y0080324D01*
X0349024Y0077512D01*
X0353001Y0077512D01*
X0355813Y0080468D02*
X0357655Y0080468D01*
X0357655Y0082067D02*
X0355813Y0082067D01*
X0355813Y0083665D02*
X0357655Y0083665D01*
X0357655Y0085264D02*
X0354849Y0085264D01*
X0353250Y0086862D02*
X0357655Y0086862D01*
X0357655Y0088461D02*
X0353320Y0088461D01*
X0353001Y0088142D02*
X0355813Y0090954D01*
X0355813Y0094930D01*
X0353001Y0097742D01*
X0349024Y0097742D01*
X0346213Y0094930D01*
X0346213Y0090954D01*
X0349024Y0088142D01*
X0353001Y0088142D01*
X0354918Y0090059D02*
X0357910Y0090059D01*
X0359180Y0091658D02*
X0355813Y0091658D01*
X0355813Y0093256D02*
X0360778Y0093256D01*
X0362377Y0094855D02*
X0355813Y0094855D01*
X0354289Y0096453D02*
X0367027Y0096453D01*
X0373580Y0096453D02*
X0386319Y0096453D01*
X0387607Y0097742D02*
X0384795Y0094930D01*
X0384795Y0090954D01*
X0387607Y0088142D01*
X0391583Y0088142D01*
X0394395Y0090954D01*
X0394395Y0094930D01*
X0391583Y0097742D01*
X0387607Y0097742D01*
X0384795Y0094855D02*
X0375104Y0094855D01*
X0375104Y0093256D02*
X0384795Y0093256D01*
X0384795Y0091658D02*
X0375104Y0091658D01*
X0374210Y0090059D02*
X0385689Y0090059D01*
X0387288Y0088461D02*
X0372611Y0088461D01*
X0372292Y0087112D02*
X0368316Y0087112D01*
X0365504Y0084300D01*
X0365504Y0080324D01*
X0368316Y0077512D01*
X0372292Y0077512D01*
X0375104Y0080324D01*
X0375104Y0084300D01*
X0372292Y0087112D01*
X0372542Y0086862D02*
X0400937Y0086862D01*
X0400937Y0085264D02*
X0374140Y0085264D01*
X0375104Y0083665D02*
X0400937Y0083665D01*
X0400937Y0082067D02*
X0375104Y0082067D01*
X0375104Y0080468D02*
X0400937Y0080468D01*
X0400937Y0078870D02*
X0373650Y0078870D01*
X0366958Y0078870D02*
X0364055Y0078870D01*
X0364055Y0080468D02*
X0365504Y0080468D01*
X0365504Y0082067D02*
X0364055Y0082067D01*
X0364055Y0083665D02*
X0365504Y0083665D01*
X0366468Y0085264D02*
X0364055Y0085264D01*
X0364055Y0086862D02*
X0368066Y0086862D01*
X0367997Y0088461D02*
X0365034Y0088461D01*
X0348705Y0088461D02*
X0325968Y0088461D01*
X0325673Y0088339D02*
X0327437Y0089069D01*
X0328787Y0090420D01*
X0329518Y0092184D01*
X0329518Y0094093D01*
X0328787Y0095858D01*
X0327437Y0097208D01*
X0325673Y0097939D01*
X0318163Y0097939D01*
X0316399Y0097208D01*
X0315049Y0095858D01*
X0314318Y0094093D01*
X0314318Y0092184D01*
X0315049Y0090420D01*
X0316399Y0089069D01*
X0318163Y0088339D01*
X0325673Y0088339D01*
X0325673Y0087939D02*
X0327437Y0087208D01*
X0328787Y0085858D01*
X0329518Y0084093D01*
X0329518Y0082184D01*
X0328787Y0080420D01*
X0327437Y0079069D01*
X0325673Y0078339D01*
X0318163Y0078339D01*
X0316399Y0079069D01*
X0315049Y0080420D01*
X0314318Y0082184D01*
X0314318Y0084093D01*
X0315049Y0085858D01*
X0316399Y0087208D01*
X0318163Y0087939D01*
X0325673Y0087939D01*
X0327783Y0086862D02*
X0348775Y0086862D01*
X0347176Y0085264D02*
X0329033Y0085264D01*
X0329518Y0083665D02*
X0346213Y0083665D01*
X0346213Y0082067D02*
X0329470Y0082067D01*
X0328808Y0080468D02*
X0346213Y0080468D01*
X0347666Y0078870D02*
X0326955Y0078870D01*
X0316881Y0078870D02*
X0296955Y0078870D01*
X0297284Y0077271D02*
X0316552Y0077271D01*
X0314972Y0075673D02*
X0298864Y0075673D01*
X0299518Y0074074D02*
X0314318Y0074074D01*
X0314318Y0072476D02*
X0299518Y0072476D01*
X0298977Y0070877D02*
X0314859Y0070877D01*
X0316190Y0069279D02*
X0297646Y0069279D01*
X0296297Y0067680D02*
X0317540Y0067680D01*
X0315273Y0066082D02*
X0298563Y0066082D01*
X0299357Y0064483D02*
X0314480Y0064483D01*
X0314318Y0062885D02*
X0299518Y0062885D01*
X0299146Y0061286D02*
X0314690Y0061286D01*
X0313942Y0059688D02*
X0298055Y0059688D01*
X0274191Y0059688D02*
X0256968Y0059688D01*
X0256968Y0061286D02*
X0274191Y0061286D01*
X0274191Y0062885D02*
X0256968Y0062885D01*
X0256968Y0064483D02*
X0273517Y0064483D01*
X0272941Y0066082D02*
X0257221Y0066082D01*
X0258820Y0067680D02*
X0272955Y0067680D01*
X0273617Y0069279D02*
X0260418Y0069279D01*
X0252966Y0070877D02*
X0204353Y0070877D01*
X0197115Y0056491D02*
X0197115Y0056491D01*
X0197115Y0054892D02*
X0197115Y0054892D01*
X0197115Y0053294D02*
X0197115Y0053294D01*
X0197115Y0051695D02*
X0197115Y0051695D01*
X0197115Y0050097D02*
X0197115Y0050097D01*
X0197115Y0048498D02*
X0197115Y0048498D01*
X0212330Y0038907D02*
X0242652Y0038907D01*
X0241449Y0040506D02*
X0213929Y0040506D01*
X0215527Y0042104D02*
X0241051Y0042104D01*
X0239624Y0043703D02*
X0218893Y0043703D01*
X0220055Y0045301D02*
X0238025Y0045301D01*
X0236427Y0046900D02*
X0220423Y0046900D01*
X0220201Y0048498D02*
X0234828Y0048498D01*
X0233230Y0050097D02*
X0219245Y0050097D01*
X0227237Y0035710D02*
X0239749Y0035710D01*
X0238339Y0034111D02*
X0228647Y0034111D01*
X0228647Y0032513D02*
X0238339Y0032513D01*
X0238339Y0030914D02*
X0228647Y0030914D01*
X0227640Y0029316D02*
X0239346Y0029316D01*
X0240945Y0027717D02*
X0226041Y0027717D01*
X0245332Y0027717D02*
X0259670Y0027717D01*
X0260276Y0027112D02*
X0257230Y0030158D01*
X0257230Y0032312D01*
X0262430Y0032312D01*
X0262430Y0032312D01*
X0262430Y0037512D01*
X0264584Y0037512D01*
X0267630Y0034466D01*
X0267630Y0032312D01*
X0262430Y0032312D01*
X0262430Y0032312D01*
X0262430Y0037512D01*
X0260276Y0037512D01*
X0257230Y0034466D01*
X0257230Y0032312D01*
X0262430Y0032312D01*
X0262430Y0032312D01*
X0267630Y0032312D01*
X0267630Y0030158D01*
X0264584Y0027112D01*
X0262430Y0027112D01*
X0262430Y0032312D01*
X0262430Y0032312D01*
X0262430Y0027112D01*
X0260276Y0027112D01*
X0262430Y0027717D02*
X0262430Y0027717D01*
X0262430Y0029316D02*
X0262430Y0029316D01*
X0262430Y0030914D02*
X0262430Y0030914D01*
X0262430Y0032513D02*
X0262430Y0032513D01*
X0262430Y0034111D02*
X0262430Y0034111D01*
X0262430Y0035710D02*
X0262430Y0035710D01*
X0262430Y0037309D02*
X0262430Y0037309D01*
X0264787Y0037309D02*
X0275939Y0037309D01*
X0274538Y0038907D02*
X0256968Y0038907D01*
X0256968Y0037309D02*
X0260073Y0037309D01*
X0258474Y0035710D02*
X0256377Y0035710D01*
X0257230Y0034111D02*
X0254779Y0034111D01*
X0253180Y0032513D02*
X0257230Y0032513D01*
X0257230Y0030914D02*
X0251582Y0030914D01*
X0249583Y0029316D02*
X0258072Y0029316D01*
X0265189Y0027717D02*
X0348253Y0027717D01*
X0348859Y0027112D02*
X0345813Y0030158D01*
X0345813Y0032312D01*
X0351012Y0032312D01*
X0351012Y0032312D01*
X0345813Y0032312D01*
X0345813Y0034466D01*
X0348859Y0037512D01*
X0351013Y0037512D01*
X0351013Y0032312D01*
X0356213Y0032312D01*
X0356213Y0034466D01*
X0353166Y0037512D01*
X0351013Y0037512D01*
X0351013Y0032312D01*
X0351013Y0032312D01*
X0351013Y0032312D01*
X0356213Y0032312D01*
X0356213Y0030158D01*
X0353166Y0027112D01*
X0351013Y0027112D01*
X0351013Y0032312D01*
X0351013Y0032312D01*
X0351013Y0027112D01*
X0348859Y0027112D01*
X0351013Y0027717D02*
X0351013Y0027717D01*
X0351013Y0029316D02*
X0351013Y0029316D01*
X0351013Y0030914D02*
X0351013Y0030914D01*
X0351013Y0032513D02*
X0351013Y0032513D01*
X0351013Y0034111D02*
X0351013Y0034111D01*
X0351013Y0035710D02*
X0351013Y0035710D01*
X0351013Y0037309D02*
X0351013Y0037309D01*
X0353370Y0037309D02*
X0400937Y0037309D01*
X0400937Y0038907D02*
X0338708Y0038907D01*
X0337110Y0037309D02*
X0348655Y0037309D01*
X0347057Y0035710D02*
X0335511Y0035710D01*
X0333913Y0034111D02*
X0345813Y0034111D01*
X0345813Y0032513D02*
X0331702Y0032513D01*
X0340307Y0040506D02*
X0400937Y0040506D01*
X0400937Y0042104D02*
X0341905Y0042104D01*
X0343504Y0043703D02*
X0400937Y0043703D01*
X0400937Y0045301D02*
X0345102Y0045301D01*
X0346701Y0046900D02*
X0400937Y0046900D01*
X0400937Y0048498D02*
X0348299Y0048498D01*
X0349898Y0050097D02*
X0400937Y0050097D01*
X0400937Y0051695D02*
X0351496Y0051695D01*
X0353095Y0053294D02*
X0400937Y0053294D01*
X0400937Y0054892D02*
X0354693Y0054892D01*
X0356292Y0056491D02*
X0400937Y0056491D01*
X0400937Y0058089D02*
X0357890Y0058089D01*
X0359489Y0059688D02*
X0400937Y0059688D01*
X0400937Y0061286D02*
X0361087Y0061286D01*
X0362686Y0062885D02*
X0400937Y0062885D01*
X0400937Y0064483D02*
X0363865Y0064483D01*
X0364055Y0066082D02*
X0400937Y0066082D01*
X0400937Y0067680D02*
X0364055Y0067680D01*
X0364055Y0069279D02*
X0400937Y0069279D01*
X0400937Y0070877D02*
X0364055Y0070877D01*
X0364055Y0072476D02*
X0400937Y0072476D01*
X0400937Y0074074D02*
X0364055Y0074074D01*
X0364055Y0075673D02*
X0400937Y0075673D01*
X0400937Y0077271D02*
X0364055Y0077271D01*
X0347107Y0090059D02*
X0328427Y0090059D01*
X0329300Y0091658D02*
X0346213Y0091658D01*
X0346213Y0093256D02*
X0329518Y0093256D01*
X0329203Y0094855D02*
X0346213Y0094855D01*
X0347736Y0096453D02*
X0328191Y0096453D01*
X0327437Y0099069D02*
X0328787Y0100420D01*
X0329518Y0102184D01*
X0329518Y0104093D01*
X0328787Y0105858D01*
X0327437Y0107208D01*
X0325673Y0107939D01*
X0318163Y0107939D01*
X0316399Y0107208D01*
X0315530Y0106339D01*
X0310248Y0106339D01*
X0309833Y0106754D01*
X0308197Y0107431D01*
X0306427Y0107431D01*
X0304791Y0106754D01*
X0303539Y0105502D01*
X0302862Y0103866D01*
X0302862Y0102096D01*
X0303539Y0100460D01*
X0304791Y0099209D01*
X0306427Y0098531D01*
X0308197Y0098531D01*
X0309833Y0099209D01*
X0310563Y0099939D01*
X0315530Y0099939D01*
X0316399Y0099069D01*
X0318163Y0098339D01*
X0325673Y0098339D01*
X0327437Y0099069D01*
X0328018Y0099650D02*
X0400937Y0099650D01*
X0400937Y0098052D02*
X0295843Y0098052D01*
X0295936Y0098067D02*
X0296714Y0098320D01*
X0297444Y0098691D01*
X0298106Y0099172D01*
X0298684Y0099751D01*
X0299166Y0100413D01*
X0299537Y0101142D01*
X0299790Y0101921D01*
X0299918Y0102729D01*
X0299918Y0103139D01*
X0299918Y0103548D01*
X0299790Y0104356D01*
X0299537Y0105135D01*
X0299166Y0105864D01*
X0298684Y0106526D01*
X0298106Y0107105D01*
X0297444Y0107586D01*
X0296714Y0107958D01*
X0295936Y0108211D01*
X0295127Y0108339D01*
X0291918Y0108339D01*
X0288709Y0108339D01*
X0287900Y0108211D01*
X0287122Y0107958D01*
X0286393Y0107586D01*
X0285731Y0107105D01*
X0285152Y0106526D01*
X0284671Y0105864D01*
X0284299Y0105135D01*
X0284046Y0104356D01*
X0283918Y0103548D01*
X0283918Y0103139D01*
X0291918Y0103139D01*
X0291918Y0108339D01*
X0291918Y0103139D01*
X0291918Y0103139D01*
X0291918Y0103139D01*
X0299918Y0103139D01*
X0291918Y0103139D01*
X0291918Y0103139D01*
X0283918Y0103139D01*
X0283918Y0102729D01*
X0284046Y0101921D01*
X0284299Y0101142D01*
X0284671Y0100413D01*
X0285152Y0099751D01*
X0285731Y0099172D01*
X0286393Y0098691D01*
X0287122Y0098320D01*
X0287900Y0098067D01*
X0288709Y0097939D01*
X0291918Y0097939D01*
X0291918Y0103138D01*
X0291918Y0103138D01*
X0291918Y0097939D01*
X0295127Y0097939D01*
X0295936Y0098067D01*
X0298191Y0096453D02*
X0315645Y0096453D01*
X0314634Y0094855D02*
X0299203Y0094855D01*
X0299518Y0093256D02*
X0314318Y0093256D01*
X0314536Y0091658D02*
X0299300Y0091658D01*
X0298427Y0090059D02*
X0315409Y0090059D01*
X0317868Y0088461D02*
X0295968Y0088461D01*
X0297783Y0086862D02*
X0316054Y0086862D01*
X0314803Y0085264D02*
X0299033Y0085264D01*
X0299518Y0083665D02*
X0314318Y0083665D01*
X0314367Y0082067D02*
X0299470Y0082067D01*
X0298808Y0080468D02*
X0315029Y0080468D01*
X0291918Y0098052D02*
X0291918Y0098052D01*
X0291918Y0099650D02*
X0291918Y0099650D01*
X0291918Y0101249D02*
X0291918Y0101249D01*
X0291918Y0102847D02*
X0291918Y0102847D01*
X0291918Y0104446D02*
X0291918Y0104446D01*
X0291918Y0106044D02*
X0291918Y0106044D01*
X0291918Y0107643D02*
X0291918Y0107643D01*
X0286505Y0107643D02*
X0284216Y0107643D01*
X0284802Y0106044D02*
X0282617Y0106044D01*
X0284075Y0104446D02*
X0281019Y0104446D01*
X0280591Y0102847D02*
X0283918Y0102847D01*
X0284264Y0101249D02*
X0280591Y0101249D01*
X0280591Y0099650D02*
X0285252Y0099650D01*
X0287993Y0098052D02*
X0280591Y0098052D01*
X0280591Y0096453D02*
X0285645Y0096453D01*
X0284634Y0094855D02*
X0280591Y0094855D01*
X0280591Y0093256D02*
X0284318Y0093256D01*
X0284536Y0091658D02*
X0280591Y0091658D01*
X0298584Y0099650D02*
X0304349Y0099650D01*
X0303213Y0101249D02*
X0299572Y0101249D01*
X0299918Y0102847D02*
X0302862Y0102847D01*
X0303102Y0104446D02*
X0299761Y0104446D01*
X0299034Y0106044D02*
X0304082Y0106044D01*
X0303983Y0110840D02*
X0298961Y0110840D01*
X0299518Y0112439D02*
X0302384Y0112439D01*
X0300786Y0114037D02*
X0299518Y0114037D01*
X0299187Y0115636D02*
X0298879Y0115636D01*
X0298600Y0117234D02*
X0297374Y0117234D01*
X0296865Y0118833D02*
X0298600Y0118833D01*
X0305041Y0118833D02*
X0316971Y0118833D01*
X0316463Y0117234D02*
X0306639Y0117234D01*
X0305000Y0120431D02*
X0315044Y0120431D01*
X0314382Y0122030D02*
X0305000Y0122030D01*
X0305000Y0123628D02*
X0314318Y0123628D01*
X0314788Y0125227D02*
X0305000Y0125227D01*
X0304682Y0126825D02*
X0316016Y0126825D01*
X0318718Y0128424D02*
X0303324Y0128424D01*
X0301725Y0130022D02*
X0318718Y0130022D01*
X0325118Y0130022D02*
X0400937Y0130022D01*
X0400937Y0128424D02*
X0325118Y0128424D01*
X0327820Y0126825D02*
X0400937Y0126825D01*
X0400937Y0125227D02*
X0329049Y0125227D01*
X0329518Y0123628D02*
X0400937Y0123628D01*
X0400937Y0122030D02*
X0329454Y0122030D01*
X0328792Y0120431D02*
X0400937Y0120431D01*
X0400937Y0118833D02*
X0326865Y0118833D01*
X0327374Y0117234D02*
X0400937Y0117234D01*
X0400937Y0115636D02*
X0328879Y0115636D01*
X0329518Y0114037D02*
X0400937Y0114037D01*
X0400937Y0112439D02*
X0329518Y0112439D01*
X0328961Y0110840D02*
X0400937Y0110840D01*
X0400937Y0109242D02*
X0327609Y0109242D01*
X0326386Y0107643D02*
X0400937Y0107643D01*
X0400937Y0106044D02*
X0328600Y0106044D01*
X0329372Y0104446D02*
X0400937Y0104446D01*
X0400937Y0102847D02*
X0329518Y0102847D01*
X0329131Y0101249D02*
X0400937Y0101249D01*
X0400937Y0096453D02*
X0392872Y0096453D01*
X0394395Y0094855D02*
X0400937Y0094855D01*
X0400937Y0093256D02*
X0394395Y0093256D01*
X0394395Y0091658D02*
X0400937Y0091658D01*
X0400937Y0090059D02*
X0393501Y0090059D01*
X0391903Y0088461D02*
X0400937Y0088461D01*
X0400937Y0131621D02*
X0325118Y0131621D01*
X0325118Y0133219D02*
X0400937Y0133219D01*
X0400937Y0134818D02*
X0325118Y0134818D01*
X0325118Y0136416D02*
X0400937Y0136416D01*
X0400937Y0138015D02*
X0353439Y0138015D01*
X0353166Y0137742D02*
X0356213Y0140788D01*
X0356213Y0142942D01*
X0356213Y0145096D01*
X0353166Y0148142D01*
X0351013Y0148142D01*
X0351013Y0142942D01*
X0356213Y0142942D01*
X0351013Y0142942D01*
X0351013Y0142942D01*
X0351013Y0142942D01*
X0351013Y0148142D01*
X0348859Y0148142D01*
X0345813Y0145096D01*
X0345813Y0142942D01*
X0351012Y0142942D01*
X0351012Y0142942D01*
X0345813Y0142942D01*
X0345813Y0140788D01*
X0348859Y0137742D01*
X0351013Y0137742D01*
X0353166Y0137742D01*
X0351013Y0137742D02*
X0351013Y0142942D01*
X0351013Y0142942D01*
X0351013Y0137742D01*
X0351013Y0138015D02*
X0351013Y0138015D01*
X0351013Y0139613D02*
X0351013Y0139613D01*
X0351013Y0141212D02*
X0351013Y0141212D01*
X0351013Y0142810D02*
X0351013Y0142810D01*
X0351013Y0144409D02*
X0351013Y0144409D01*
X0351013Y0146007D02*
X0351013Y0146007D01*
X0351013Y0147606D02*
X0351013Y0147606D01*
X0353702Y0147606D02*
X0363673Y0147606D01*
X0365272Y0146007D02*
X0355301Y0146007D01*
X0356213Y0144409D02*
X0365504Y0144409D01*
X0365504Y0142810D02*
X0356213Y0142810D01*
X0356213Y0141212D02*
X0365504Y0141212D01*
X0366844Y0139613D02*
X0355038Y0139613D01*
X0348586Y0138015D02*
X0325118Y0138015D01*
X0325118Y0139613D02*
X0346987Y0139613D01*
X0345813Y0141212D02*
X0325118Y0141212D01*
X0325118Y0142810D02*
X0345813Y0142810D01*
X0345813Y0144409D02*
X0325118Y0144409D01*
X0325118Y0146007D02*
X0346724Y0146007D01*
X0348323Y0147606D02*
X0324983Y0147606D01*
X0323882Y0149204D02*
X0343965Y0149204D01*
X0342366Y0150803D02*
X0322283Y0150803D01*
X0320685Y0152401D02*
X0340768Y0152401D01*
X0346622Y0155598D02*
X0347931Y0155598D01*
X0348530Y0155000D02*
X0347220Y0155000D01*
X0342589Y0159631D01*
X0341415Y0160117D01*
X0344858Y0163561D01*
X0347348Y0163561D01*
X0345813Y0162025D01*
X0345813Y0159871D01*
X0351012Y0159871D01*
X0351012Y0159871D01*
X0345813Y0159871D01*
X0345813Y0157717D01*
X0348530Y0155000D01*
X0346333Y0157197D02*
X0345023Y0157197D01*
X0345813Y0158795D02*
X0343425Y0158795D01*
X0341691Y0160394D02*
X0345813Y0160394D01*
X0345813Y0161992D02*
X0343290Y0161992D01*
X0337436Y0165189D02*
X0316959Y0165189D01*
X0318557Y0166788D02*
X0339034Y0166788D01*
X0340633Y0168386D02*
X0320156Y0168386D01*
X0321755Y0169985D02*
X0400937Y0169985D01*
X0400937Y0171583D02*
X0323353Y0171583D01*
X0324741Y0173182D02*
X0400937Y0173182D01*
X0400937Y0174780D02*
X0325079Y0174780D01*
X0328211Y0176379D02*
X0400937Y0176379D01*
X0400937Y0177977D02*
X0329211Y0177977D01*
X0329518Y0179576D02*
X0400937Y0179576D01*
X0400937Y0181175D02*
X0329292Y0181175D01*
X0328407Y0182773D02*
X0400937Y0182773D01*
X0400937Y0184372D02*
X0325920Y0184372D01*
X0325673Y0184874D02*
X0327437Y0185605D01*
X0328787Y0186955D01*
X0329518Y0188719D01*
X0329518Y0190629D01*
X0328787Y0192393D01*
X0327437Y0193743D01*
X0325673Y0194474D01*
X0318163Y0194474D01*
X0316399Y0193743D01*
X0315049Y0192393D01*
X0314318Y0190629D01*
X0314318Y0188719D01*
X0315049Y0186955D01*
X0316399Y0185605D01*
X0318163Y0184874D01*
X0325673Y0184874D01*
X0327802Y0185970D02*
X0400937Y0185970D01*
X0400937Y0187569D02*
X0329041Y0187569D01*
X0329518Y0189167D02*
X0400937Y0189167D01*
X0400937Y0190766D02*
X0329461Y0190766D01*
X0328799Y0192364D02*
X0400937Y0192364D01*
X0400937Y0193963D02*
X0326907Y0193963D01*
X0325673Y0194874D02*
X0327437Y0195605D01*
X0328787Y0196955D01*
X0329518Y0198719D01*
X0329518Y0200629D01*
X0328787Y0202393D01*
X0327437Y0203743D01*
X0325673Y0204474D01*
X0318163Y0204474D01*
X0316399Y0203743D01*
X0315049Y0202393D01*
X0314318Y0200629D01*
X0314318Y0198719D01*
X0315049Y0196955D01*
X0316399Y0195605D01*
X0318163Y0194874D01*
X0325673Y0194874D01*
X0327332Y0195561D02*
X0400937Y0195561D01*
X0400937Y0197160D02*
X0328872Y0197160D01*
X0329518Y0198758D02*
X0400937Y0198758D01*
X0400937Y0200357D02*
X0329518Y0200357D01*
X0328969Y0201955D02*
X0400937Y0201955D01*
X0400937Y0203554D02*
X0327627Y0203554D01*
X0326344Y0205152D02*
X0348943Y0205152D01*
X0349024Y0205071D02*
X0353001Y0205071D01*
X0355813Y0207883D01*
X0355813Y0211859D01*
X0353001Y0214671D01*
X0349024Y0214671D01*
X0346213Y0211859D01*
X0346213Y0207883D01*
X0349024Y0205071D01*
X0347345Y0206751D02*
X0328583Y0206751D01*
X0328787Y0206955D02*
X0329518Y0208719D01*
X0329518Y0210629D01*
X0328787Y0212393D01*
X0327437Y0213743D01*
X0325673Y0214474D01*
X0318163Y0214474D01*
X0316399Y0213743D01*
X0315049Y0212393D01*
X0314318Y0210629D01*
X0314318Y0208719D01*
X0315049Y0206955D01*
X0316399Y0205605D01*
X0318163Y0204874D01*
X0325673Y0204874D01*
X0327437Y0205605D01*
X0328787Y0206955D01*
X0329365Y0208349D02*
X0346213Y0208349D01*
X0346213Y0209948D02*
X0329518Y0209948D01*
X0329138Y0211546D02*
X0346213Y0211546D01*
X0347498Y0213145D02*
X0328036Y0213145D01*
X0328174Y0216342D02*
X0348777Y0216342D01*
X0346436Y0217940D02*
X0329195Y0217940D01*
X0329518Y0219539D02*
X0344496Y0219539D01*
X0342898Y0221137D02*
X0329307Y0221137D01*
X0328445Y0222736D02*
X0341299Y0222736D01*
X0339701Y0224334D02*
X0326010Y0224334D01*
X0327765Y0225933D02*
X0338102Y0225933D01*
X0336504Y0227531D02*
X0329026Y0227531D01*
X0329518Y0229130D02*
X0334905Y0229130D01*
X0333307Y0230728D02*
X0329477Y0230728D01*
X0328815Y0232327D02*
X0332458Y0232327D01*
X0332458Y0233925D02*
X0326997Y0233925D01*
X0327242Y0235524D02*
X0332458Y0235524D01*
X0332458Y0237122D02*
X0328857Y0237122D01*
X0328787Y0236955D02*
X0329518Y0238719D01*
X0329518Y0240629D01*
X0328787Y0242393D01*
X0327437Y0243743D01*
X0325673Y0244474D01*
X0318163Y0244474D01*
X0316399Y0243743D01*
X0315049Y0242393D01*
X0314318Y0240629D01*
X0314318Y0238719D01*
X0315049Y0236955D01*
X0316399Y0235605D01*
X0318163Y0234874D01*
X0325673Y0234874D01*
X0327437Y0235605D01*
X0328787Y0236955D01*
X0329518Y0238721D02*
X0332458Y0238721D01*
X0332458Y0240319D02*
X0329518Y0240319D01*
X0328984Y0241918D02*
X0332458Y0241918D01*
X0332458Y0243516D02*
X0327664Y0243516D01*
X0332458Y0245115D02*
X0301593Y0245115D01*
X0299995Y0246713D02*
X0332458Y0246713D01*
X0332458Y0248312D02*
X0298396Y0248312D01*
X0297019Y0249911D02*
X0296798Y0249911D01*
X0296249Y0256305D02*
X0295522Y0256305D01*
X0293923Y0257903D02*
X0297847Y0257903D01*
X0296863Y0259502D02*
X0292325Y0259502D01*
X0290726Y0261100D02*
X0295264Y0261100D01*
X0295025Y0262699D02*
X0294189Y0262699D01*
X0300225Y0262699D02*
X0300225Y0262699D01*
X0300225Y0263493D02*
X0300225Y0258293D01*
X0302379Y0258293D01*
X0305425Y0261339D01*
X0305425Y0263493D01*
X0300225Y0263493D01*
X0300225Y0263493D01*
X0300225Y0261100D02*
X0300225Y0261100D01*
X0300225Y0259502D02*
X0300225Y0259502D01*
X0302603Y0257903D02*
X0311233Y0257903D01*
X0311457Y0258293D02*
X0313611Y0258293D01*
X0313611Y0263493D01*
X0313611Y0263493D01*
X0308411Y0263493D01*
X0308411Y0261339D01*
X0311457Y0258293D01*
X0311623Y0258293D02*
X0308811Y0255481D01*
X0308811Y0251505D01*
X0311623Y0248693D01*
X0315599Y0248693D01*
X0318411Y0251505D01*
X0318411Y0255481D01*
X0315599Y0258293D01*
X0311623Y0258293D01*
X0310248Y0259502D02*
X0303588Y0259502D01*
X0305186Y0261100D02*
X0308650Y0261100D01*
X0308411Y0262699D02*
X0305425Y0262699D01*
X0305425Y0264297D02*
X0308411Y0264297D01*
X0308660Y0265896D02*
X0305176Y0265896D01*
X0313611Y0263493D02*
X0313611Y0263493D01*
X0318811Y0263493D01*
X0318811Y0261339D01*
X0315765Y0258293D01*
X0313611Y0258293D01*
X0313611Y0263493D01*
X0313611Y0262699D02*
X0313611Y0262699D01*
X0313611Y0261100D02*
X0313611Y0261100D01*
X0313611Y0259502D02*
X0313611Y0259502D01*
X0315989Y0257903D02*
X0332116Y0257903D01*
X0332458Y0256305D02*
X0317588Y0256305D01*
X0318411Y0254706D02*
X0332458Y0254706D01*
X0332458Y0253108D02*
X0318411Y0253108D01*
X0318411Y0251509D02*
X0332458Y0251509D01*
X0332458Y0249911D02*
X0316817Y0249911D01*
X0310405Y0249911D02*
X0303431Y0249911D01*
X0305025Y0251509D02*
X0308811Y0251509D01*
X0308811Y0253108D02*
X0305025Y0253108D01*
X0305025Y0254706D02*
X0308811Y0254706D01*
X0309634Y0256305D02*
X0304202Y0256305D01*
X0316974Y0259502D02*
X0330518Y0259502D01*
X0328919Y0261100D02*
X0318572Y0261100D01*
X0318811Y0262699D02*
X0327321Y0262699D01*
X0325722Y0264297D02*
X0318811Y0264297D01*
X0318562Y0265896D02*
X0324124Y0265896D01*
X0329978Y0269093D02*
X0346213Y0269093D01*
X0346213Y0270691D02*
X0328379Y0270691D01*
X0331576Y0267494D02*
X0347625Y0267494D01*
X0354400Y0267494D02*
X0366916Y0267494D01*
X0368316Y0266094D02*
X0372292Y0266094D01*
X0375104Y0268906D01*
X0375104Y0272883D01*
X0372292Y0275694D01*
X0368316Y0275694D01*
X0365504Y0272883D01*
X0365504Y0268906D01*
X0368316Y0266094D01*
X0365504Y0269093D02*
X0355813Y0269093D01*
X0355813Y0270691D02*
X0365504Y0270691D01*
X0365504Y0272290D02*
X0355813Y0272290D01*
X0354807Y0273888D02*
X0366509Y0273888D01*
X0368108Y0275487D02*
X0353209Y0275487D01*
X0350379Y0276054D02*
X0350379Y0276054D01*
X0349161Y0277085D02*
X0387263Y0277085D01*
X0386520Y0275487D02*
X0372500Y0275487D01*
X0374098Y0273888D02*
X0385858Y0273888D01*
X0385763Y0272290D02*
X0375104Y0272290D01*
X0375104Y0270691D02*
X0385763Y0270691D01*
X0386180Y0269093D02*
X0375104Y0269093D01*
X0373692Y0267494D02*
X0386842Y0267494D01*
X0388039Y0265896D02*
X0333175Y0265896D01*
X0334773Y0264297D02*
X0389638Y0264297D01*
X0399789Y0264297D02*
X0400937Y0264297D01*
X0400937Y0262699D02*
X0336372Y0262699D01*
X0337970Y0261100D02*
X0400937Y0261100D01*
X0400937Y0259502D02*
X0338858Y0259502D01*
X0338858Y0257903D02*
X0400937Y0257903D01*
X0400937Y0256305D02*
X0338858Y0256305D01*
X0338858Y0254706D02*
X0400937Y0254706D01*
X0400937Y0253108D02*
X0338858Y0253108D01*
X0338858Y0251509D02*
X0400937Y0251509D01*
X0400937Y0249911D02*
X0338858Y0249911D01*
X0338858Y0248312D02*
X0400937Y0248312D01*
X0400937Y0246713D02*
X0338858Y0246713D01*
X0338858Y0245115D02*
X0400937Y0245115D01*
X0400937Y0243516D02*
X0338858Y0243516D01*
X0338858Y0241918D02*
X0400937Y0241918D01*
X0400937Y0240319D02*
X0338858Y0240319D01*
X0338858Y0238721D02*
X0400937Y0238721D01*
X0400937Y0237122D02*
X0338858Y0237122D01*
X0338858Y0235524D02*
X0400937Y0235524D01*
X0400937Y0233925D02*
X0339161Y0233925D01*
X0340759Y0232327D02*
X0400937Y0232327D01*
X0400937Y0230728D02*
X0342358Y0230728D01*
X0343956Y0229130D02*
X0400937Y0229130D01*
X0400937Y0227531D02*
X0345555Y0227531D01*
X0347153Y0225933D02*
X0400937Y0225933D01*
X0400937Y0224334D02*
X0373652Y0224334D01*
X0372292Y0225694D02*
X0368316Y0225694D01*
X0365504Y0222883D01*
X0365504Y0218906D01*
X0368316Y0216094D01*
X0372292Y0216094D01*
X0375104Y0218906D01*
X0375104Y0222883D01*
X0372292Y0225694D01*
X0375104Y0222736D02*
X0400937Y0222736D01*
X0400937Y0221137D02*
X0375104Y0221137D01*
X0375104Y0219539D02*
X0400937Y0219539D01*
X0400937Y0217940D02*
X0374138Y0217940D01*
X0372539Y0216342D02*
X0400937Y0216342D01*
X0400937Y0214743D02*
X0314151Y0214743D01*
X0312552Y0213145D02*
X0315801Y0213145D01*
X0314698Y0211546D02*
X0312087Y0211546D01*
X0312087Y0209948D02*
X0314318Y0209948D01*
X0314471Y0208349D02*
X0312087Y0208349D01*
X0312087Y0206751D02*
X0315253Y0206751D01*
X0317492Y0205152D02*
X0312087Y0205152D01*
X0312087Y0203554D02*
X0316210Y0203554D01*
X0314868Y0201955D02*
X0312087Y0201955D01*
X0312087Y0200357D02*
X0314318Y0200357D01*
X0314318Y0198758D02*
X0312087Y0198758D01*
X0312087Y0197160D02*
X0314964Y0197160D01*
X0316505Y0195561D02*
X0312087Y0195561D01*
X0312087Y0193963D02*
X0316929Y0193963D01*
X0315037Y0192364D02*
X0312087Y0192364D01*
X0312087Y0190766D02*
X0314375Y0190766D01*
X0314318Y0189167D02*
X0312087Y0189167D01*
X0312087Y0187569D02*
X0314795Y0187569D01*
X0316034Y0185970D02*
X0312087Y0185970D01*
X0312087Y0184372D02*
X0317916Y0184372D01*
X0315429Y0182773D02*
X0312087Y0182773D01*
X0312087Y0181175D02*
X0314544Y0181175D01*
X0314318Y0179576D02*
X0312087Y0179576D01*
X0312087Y0177977D02*
X0314625Y0177977D01*
X0315625Y0176379D02*
X0312087Y0176379D01*
X0311758Y0174780D02*
X0317499Y0174780D01*
X0315901Y0173182D02*
X0310385Y0173182D01*
X0308786Y0171583D02*
X0314302Y0171583D01*
X0312704Y0169985D02*
X0307188Y0169985D01*
X0304531Y0176379D02*
X0298211Y0176379D01*
X0299211Y0177977D02*
X0305687Y0177977D01*
X0305687Y0179576D02*
X0299518Y0179576D01*
X0299292Y0181175D02*
X0305687Y0181175D01*
X0305687Y0182773D02*
X0298407Y0182773D01*
X0295920Y0184372D02*
X0305687Y0184372D01*
X0305687Y0185970D02*
X0297802Y0185970D01*
X0297437Y0185605D02*
X0298787Y0186955D01*
X0299518Y0188719D01*
X0299518Y0190629D01*
X0298787Y0192393D01*
X0297437Y0193743D01*
X0295673Y0194474D01*
X0288163Y0194474D01*
X0286399Y0193743D01*
X0285049Y0192393D01*
X0284318Y0190629D01*
X0284318Y0188719D01*
X0285049Y0186955D01*
X0286399Y0185605D01*
X0288163Y0184874D01*
X0295673Y0184874D01*
X0297437Y0185605D01*
X0299041Y0187569D02*
X0305687Y0187569D01*
X0305687Y0189167D02*
X0299518Y0189167D01*
X0299461Y0190766D02*
X0305687Y0190766D01*
X0305687Y0192364D02*
X0298799Y0192364D01*
X0296907Y0193963D02*
X0305687Y0193963D01*
X0305687Y0195561D02*
X0297332Y0195561D01*
X0297437Y0195605D02*
X0298787Y0196955D01*
X0299518Y0198719D01*
X0299518Y0200629D01*
X0298787Y0202393D01*
X0297437Y0203743D01*
X0295673Y0204474D01*
X0288163Y0204474D01*
X0286399Y0203743D01*
X0285049Y0202393D01*
X0284318Y0200629D01*
X0284318Y0198719D01*
X0285049Y0196955D01*
X0286399Y0195605D01*
X0288163Y0194874D01*
X0295673Y0194874D01*
X0297437Y0195605D01*
X0298872Y0197160D02*
X0305687Y0197160D01*
X0305687Y0198758D02*
X0299518Y0198758D01*
X0299518Y0200357D02*
X0305687Y0200357D01*
X0305687Y0201955D02*
X0298969Y0201955D01*
X0297627Y0203554D02*
X0305687Y0203554D01*
X0305687Y0205152D02*
X0296344Y0205152D01*
X0295673Y0204874D02*
X0297437Y0205605D01*
X0298787Y0206955D01*
X0299518Y0208719D01*
X0299518Y0210629D01*
X0298787Y0212393D01*
X0297437Y0213743D01*
X0295673Y0214474D01*
X0288163Y0214474D01*
X0286399Y0213743D01*
X0285049Y0212393D01*
X0284318Y0210629D01*
X0284318Y0208719D01*
X0285049Y0206955D01*
X0286399Y0205605D01*
X0288163Y0204874D01*
X0295673Y0204874D01*
X0298583Y0206751D02*
X0305687Y0206751D01*
X0305687Y0208349D02*
X0299365Y0208349D01*
X0299518Y0209948D02*
X0305687Y0209948D01*
X0305687Y0211546D02*
X0299138Y0211546D01*
X0298036Y0213145D02*
X0305687Y0213145D01*
X0305729Y0214743D02*
X0296370Y0214743D01*
X0296714Y0214855D02*
X0297444Y0215227D01*
X0298106Y0215708D01*
X0298684Y0216286D01*
X0299166Y0216949D01*
X0299537Y0217678D01*
X0299790Y0218456D01*
X0299918Y0219265D01*
X0299918Y0219674D01*
X0299918Y0220083D01*
X0299790Y0220892D01*
X0299537Y0221670D01*
X0299166Y0222399D01*
X0298684Y0223062D01*
X0298106Y0223640D01*
X0297444Y0224121D01*
X0296714Y0224493D01*
X0295936Y0224746D01*
X0295127Y0224874D01*
X0291918Y0224874D01*
X0288709Y0224874D01*
X0287900Y0224746D01*
X0287122Y0224493D01*
X0286393Y0224121D01*
X0285731Y0223640D01*
X0285152Y0223062D01*
X0284671Y0222399D01*
X0284299Y0221670D01*
X0284046Y0220892D01*
X0283918Y0220083D01*
X0283918Y0219674D01*
X0291918Y0219674D01*
X0283918Y0219674D01*
X0283918Y0219265D01*
X0284046Y0218456D01*
X0284299Y0217678D01*
X0284671Y0216949D01*
X0285152Y0216286D01*
X0285731Y0215708D01*
X0286393Y0215227D01*
X0287122Y0214855D01*
X0287900Y0214602D01*
X0288709Y0214474D01*
X0291918Y0214474D01*
X0291918Y0219674D01*
X0291918Y0219674D01*
X0291918Y0219674D01*
X0291918Y0224874D01*
X0291918Y0219674D01*
X0291918Y0219674D01*
X0291918Y0214474D01*
X0295127Y0214474D01*
X0295936Y0214602D01*
X0296714Y0214855D01*
X0298725Y0216342D02*
X0306698Y0216342D01*
X0308297Y0217940D02*
X0299622Y0217940D01*
X0299918Y0219539D02*
X0309895Y0219539D01*
X0311494Y0221137D02*
X0299710Y0221137D01*
X0299918Y0219674D02*
X0291918Y0219674D01*
X0291918Y0219674D01*
X0299918Y0219674D01*
X0298921Y0222736D02*
X0313252Y0222736D01*
X0316071Y0225933D02*
X0297765Y0225933D01*
X0297437Y0225605D02*
X0298787Y0226955D01*
X0299518Y0228719D01*
X0299518Y0230629D01*
X0298787Y0232393D01*
X0297437Y0233743D01*
X0295673Y0234474D01*
X0288163Y0234474D01*
X0286399Y0233743D01*
X0285049Y0232393D01*
X0284318Y0230629D01*
X0284318Y0228719D01*
X0285049Y0226955D01*
X0286399Y0225605D01*
X0288163Y0224874D01*
X0295673Y0224874D01*
X0297437Y0225605D01*
X0297026Y0224334D02*
X0317826Y0224334D01*
X0310126Y0227531D02*
X0299026Y0227531D01*
X0299518Y0229130D02*
X0308527Y0229130D01*
X0306929Y0230728D02*
X0299477Y0230728D01*
X0298815Y0232327D02*
X0305330Y0232327D01*
X0303732Y0233925D02*
X0296997Y0233925D01*
X0297242Y0235524D02*
X0302133Y0235524D01*
X0300535Y0237122D02*
X0298857Y0237122D01*
X0304790Y0241918D02*
X0314852Y0241918D01*
X0314318Y0240319D02*
X0306389Y0240319D01*
X0307987Y0238721D02*
X0314318Y0238721D01*
X0314980Y0237122D02*
X0309586Y0237122D01*
X0311184Y0235524D02*
X0316594Y0235524D01*
X0316839Y0233925D02*
X0312783Y0233925D01*
X0316172Y0243516D02*
X0303192Y0243516D01*
X0286594Y0235524D02*
X0283356Y0235524D01*
X0282165Y0233925D02*
X0286839Y0233925D01*
X0285021Y0232327D02*
X0282165Y0232327D01*
X0282165Y0230728D02*
X0284359Y0230728D01*
X0284318Y0229130D02*
X0282165Y0229130D01*
X0282165Y0227531D02*
X0284810Y0227531D01*
X0286071Y0225933D02*
X0282165Y0225933D01*
X0282165Y0224334D02*
X0286811Y0224334D01*
X0284915Y0222736D02*
X0282165Y0222736D01*
X0282165Y0221137D02*
X0284126Y0221137D01*
X0283918Y0219539D02*
X0282165Y0219539D01*
X0282165Y0217940D02*
X0284214Y0217940D01*
X0285112Y0216342D02*
X0282165Y0216342D01*
X0282165Y0214743D02*
X0287466Y0214743D01*
X0285801Y0213145D02*
X0282165Y0213145D01*
X0282165Y0211546D02*
X0284698Y0211546D01*
X0284318Y0209948D02*
X0282165Y0209948D01*
X0282165Y0208349D02*
X0284471Y0208349D01*
X0285253Y0206751D02*
X0282165Y0206751D01*
X0282165Y0205152D02*
X0287492Y0205152D01*
X0286210Y0203554D02*
X0282165Y0203554D01*
X0282165Y0201955D02*
X0284868Y0201955D01*
X0284318Y0200357D02*
X0282165Y0200357D01*
X0282165Y0198758D02*
X0284318Y0198758D01*
X0284964Y0197160D02*
X0282165Y0197160D01*
X0282165Y0195561D02*
X0286505Y0195561D01*
X0286929Y0193963D02*
X0281792Y0193963D01*
X0280354Y0192364D02*
X0285037Y0192364D01*
X0284375Y0190766D02*
X0278756Y0190766D01*
X0277157Y0189167D02*
X0284318Y0189167D01*
X0284795Y0187569D02*
X0275559Y0187569D01*
X0273960Y0185970D02*
X0286034Y0185970D01*
X0287916Y0184372D02*
X0272362Y0184372D01*
X0270763Y0182773D02*
X0285429Y0182773D01*
X0284544Y0181175D02*
X0269165Y0181175D01*
X0267566Y0179576D02*
X0284318Y0179576D01*
X0284625Y0177977D02*
X0265968Y0177977D01*
X0264369Y0176379D02*
X0285625Y0176379D01*
X0282333Y0174780D02*
X0262771Y0174780D01*
X0261172Y0173182D02*
X0280468Y0173182D01*
X0278869Y0171583D02*
X0259573Y0171583D01*
X0257975Y0169985D02*
X0277270Y0169985D01*
X0275672Y0168386D02*
X0256376Y0168386D01*
X0254778Y0166788D02*
X0274073Y0166788D01*
X0272475Y0165189D02*
X0253179Y0165189D01*
X0251581Y0163591D02*
X0270876Y0163591D01*
X0269278Y0161992D02*
X0249982Y0161992D01*
X0248384Y0160394D02*
X0267679Y0160394D01*
X0266081Y0158795D02*
X0247939Y0158795D01*
X0247253Y0157197D02*
X0264482Y0157197D01*
X0262884Y0155598D02*
X0245654Y0155598D01*
X0240623Y0155598D02*
X0226363Y0155598D01*
X0227961Y0157197D02*
X0239024Y0157197D01*
X0238339Y0158795D02*
X0228647Y0158795D01*
X0228647Y0160394D02*
X0238339Y0160394D01*
X0238472Y0161992D02*
X0228514Y0161992D01*
X0226915Y0163591D02*
X0240070Y0163591D01*
X0208836Y0142810D02*
X0182342Y0142810D01*
X0185528Y0141212D02*
X0208836Y0141212D01*
X0208836Y0139613D02*
X0187804Y0139613D01*
X0189402Y0138015D02*
X0208836Y0138015D01*
X0208836Y0136416D02*
X0191001Y0136416D01*
X0192599Y0134818D02*
X0208836Y0134818D01*
X0208836Y0133219D02*
X0194198Y0133219D01*
X0195796Y0131621D02*
X0208836Y0131621D01*
X0208836Y0130022D02*
X0197395Y0130022D01*
X0198993Y0128424D02*
X0208836Y0128424D01*
X0208836Y0126825D02*
X0200592Y0126825D01*
X0202190Y0125227D02*
X0208836Y0125227D01*
X0208836Y0123628D02*
X0203789Y0123628D01*
X0205974Y0122030D02*
X0208261Y0122030D01*
X0207598Y0120431D02*
X0207093Y0120431D01*
X0207431Y0118833D02*
X0207586Y0118833D01*
X0207178Y0117234D02*
X0208165Y0117234D01*
X0209777Y0115636D02*
X0206181Y0115636D01*
X0176758Y0134818D02*
X0133929Y0134818D01*
X0135143Y0136416D02*
X0175543Y0136416D01*
X0175543Y0138015D02*
X0135143Y0138015D01*
X0135143Y0139613D02*
X0175543Y0139613D01*
X0176746Y0141212D02*
X0133940Y0141212D01*
X0132342Y0142810D02*
X0178345Y0142810D01*
X0176511Y0177977D02*
X0133388Y0177977D01*
X0134750Y0179576D02*
X0175150Y0179576D01*
X0175150Y0181175D02*
X0134750Y0181175D01*
X0134750Y0182773D02*
X0175150Y0182773D01*
X0176205Y0184372D02*
X0133694Y0184372D01*
X0132095Y0185970D02*
X0177804Y0185970D01*
X0215236Y0209948D02*
X0219047Y0209948D01*
X0219047Y0211546D02*
X0215236Y0211546D01*
X0215236Y0213145D02*
X0220333Y0213145D01*
X0215236Y0225933D02*
X0275765Y0225933D01*
X0275765Y0227531D02*
X0215236Y0227531D01*
X0215236Y0229130D02*
X0275765Y0229130D01*
X0275765Y0230728D02*
X0215236Y0230728D01*
X0215236Y0232327D02*
X0275765Y0232327D01*
X0275765Y0233925D02*
X0215236Y0233925D01*
X0215236Y0235524D02*
X0275765Y0235524D01*
X0276108Y0237122D02*
X0215236Y0237122D01*
X0215236Y0238721D02*
X0277503Y0238721D01*
X0277259Y0240319D02*
X0215236Y0240319D01*
X0215027Y0241918D02*
X0276007Y0241918D01*
X0275765Y0243516D02*
X0213822Y0243516D01*
X0212223Y0245115D02*
X0275765Y0245115D01*
X0275765Y0246713D02*
X0210625Y0246713D01*
X0209026Y0248312D02*
X0275765Y0248312D01*
X0275765Y0249911D02*
X0207428Y0249911D01*
X0205829Y0251509D02*
X0275765Y0251509D01*
X0275765Y0253108D02*
X0204231Y0253108D01*
X0202632Y0254706D02*
X0275765Y0254706D01*
X0275765Y0256305D02*
X0201034Y0256305D01*
X0199435Y0257903D02*
X0275765Y0257903D01*
X0275765Y0259502D02*
X0197836Y0259502D01*
X0196238Y0261100D02*
X0275765Y0261100D01*
X0275765Y0262699D02*
X0194639Y0262699D01*
X0193041Y0264297D02*
X0275765Y0264297D01*
X0275765Y0265896D02*
X0264613Y0265896D01*
X0264418Y0265701D02*
X0267230Y0268513D01*
X0267230Y0272489D01*
X0264418Y0275301D01*
X0260442Y0275301D01*
X0257630Y0272489D01*
X0257630Y0268513D01*
X0260442Y0265701D01*
X0264418Y0265701D01*
X0266211Y0267494D02*
X0276132Y0267494D01*
X0277559Y0269093D02*
X0267230Y0269093D01*
X0267230Y0270691D02*
X0279158Y0270691D01*
X0280756Y0272290D02*
X0267230Y0272290D01*
X0265831Y0273888D02*
X0282355Y0273888D01*
X0283953Y0275487D02*
X0245507Y0275487D01*
X0245292Y0275701D02*
X0248339Y0272655D01*
X0248339Y0270501D01*
X0243139Y0270501D01*
X0243139Y0270501D01*
X0243139Y0270501D01*
X0243139Y0275701D01*
X0245292Y0275701D01*
X0243139Y0275701D02*
X0240985Y0275701D01*
X0237939Y0272655D01*
X0237939Y0270501D01*
X0243138Y0270501D01*
X0243138Y0270501D01*
X0243139Y0270501D02*
X0243139Y0275701D01*
X0243139Y0275487D02*
X0243139Y0275487D01*
X0243139Y0273888D02*
X0243139Y0273888D01*
X0243139Y0272290D02*
X0243139Y0272290D01*
X0243139Y0270691D02*
X0243139Y0270691D01*
X0243138Y0270501D02*
X0237939Y0270501D01*
X0237939Y0268347D01*
X0240985Y0265301D01*
X0243139Y0265301D01*
X0245292Y0265301D01*
X0248339Y0268347D01*
X0248339Y0270501D01*
X0243139Y0270501D01*
X0243139Y0265301D01*
X0243139Y0270501D01*
X0243139Y0270501D01*
X0243139Y0269093D02*
X0243139Y0269093D01*
X0243139Y0267494D02*
X0243139Y0267494D01*
X0243139Y0265896D02*
X0243139Y0265896D01*
X0245887Y0265896D02*
X0260247Y0265896D01*
X0258648Y0267494D02*
X0247486Y0267494D01*
X0248339Y0269093D02*
X0257630Y0269093D01*
X0257630Y0270691D02*
X0248339Y0270691D01*
X0248339Y0272290D02*
X0257630Y0272290D01*
X0259029Y0273888D02*
X0247105Y0273888D01*
X0240771Y0275487D02*
X0030859Y0275487D01*
X0031521Y0273888D02*
X0220446Y0273888D01*
X0219047Y0272489D02*
X0221859Y0275301D01*
X0225835Y0275301D01*
X0228647Y0272489D01*
X0228647Y0268513D01*
X0225835Y0265701D01*
X0221859Y0265701D01*
X0219047Y0268513D01*
X0219047Y0272489D01*
X0219047Y0272290D02*
X0181996Y0272290D01*
X0186595Y0270691D02*
X0219047Y0270691D01*
X0219047Y0269093D02*
X0188245Y0269093D01*
X0189844Y0267494D02*
X0220066Y0267494D01*
X0221664Y0265896D02*
X0191442Y0265896D01*
X0185589Y0262699D02*
X0107036Y0262699D01*
X0107783Y0261952D02*
X0103448Y0266287D01*
X0100558Y0266287D01*
X0100558Y0259062D01*
X0107783Y0259062D01*
X0107783Y0261952D01*
X0107783Y0261100D02*
X0187187Y0261100D01*
X0188786Y0259502D02*
X0107783Y0259502D01*
X0107783Y0258712D02*
X0100558Y0258712D01*
X0100558Y0259062D01*
X0100208Y0259062D01*
X0100208Y0266287D01*
X0097317Y0266287D01*
X0092983Y0261952D01*
X0092983Y0259062D01*
X0100208Y0259062D01*
X0100208Y0258712D01*
X0092983Y0258712D01*
X0092983Y0255821D01*
X0097317Y0251487D01*
X0100208Y0251487D01*
X0100208Y0258712D01*
X0100558Y0258712D01*
X0100558Y0251487D01*
X0103448Y0251487D01*
X0107783Y0255821D01*
X0107783Y0258712D01*
X0107783Y0257903D02*
X0190384Y0257903D01*
X0191983Y0256305D02*
X0107783Y0256305D01*
X0106667Y0254706D02*
X0193581Y0254706D01*
X0195180Y0253108D02*
X0105069Y0253108D01*
X0103470Y0251509D02*
X0196778Y0251509D01*
X0198377Y0249911D02*
X0016443Y0249911D01*
X0016443Y0251509D02*
X0097295Y0251509D01*
X0095697Y0253108D02*
X0084503Y0253108D01*
X0084348Y0252952D02*
X0086317Y0254921D01*
X0087383Y0257494D01*
X0087383Y0260279D01*
X0086317Y0262852D01*
X0084348Y0264821D01*
X0081775Y0265887D01*
X0078990Y0265887D01*
X0076417Y0264821D01*
X0074448Y0262852D01*
X0073383Y0260279D01*
X0073383Y0257494D01*
X0074448Y0254921D01*
X0076417Y0252952D01*
X0078990Y0251887D01*
X0081775Y0251887D01*
X0084348Y0252952D01*
X0086102Y0254706D02*
X0094098Y0254706D01*
X0092983Y0256305D02*
X0086890Y0256305D01*
X0087383Y0257903D02*
X0092983Y0257903D01*
X0092983Y0259502D02*
X0087383Y0259502D01*
X0087043Y0261100D02*
X0092983Y0261100D01*
X0093729Y0262699D02*
X0086380Y0262699D01*
X0084872Y0264297D02*
X0095328Y0264297D01*
X0096927Y0265896D02*
X0029340Y0265896D01*
X0030537Y0267494D02*
X0124756Y0267494D01*
X0124756Y0265954D02*
X0124756Y0269930D01*
X0127568Y0272742D01*
X0131544Y0272742D01*
X0134356Y0269930D01*
X0134356Y0265954D01*
X0131544Y0263142D01*
X0127568Y0263142D01*
X0124756Y0265954D01*
X0124814Y0265896D02*
X0103839Y0265896D01*
X0105437Y0264297D02*
X0126412Y0264297D01*
X0132699Y0264297D02*
X0176412Y0264297D01*
X0174814Y0265896D02*
X0134298Y0265896D01*
X0134356Y0267494D02*
X0174756Y0267494D01*
X0174756Y0269093D02*
X0134356Y0269093D01*
X0133595Y0270691D02*
X0175517Y0270691D01*
X0177116Y0272290D02*
X0131996Y0272290D01*
X0127116Y0272290D02*
X0031616Y0272290D01*
X0031616Y0270691D02*
X0125517Y0270691D01*
X0124756Y0269093D02*
X0031199Y0269093D01*
X0027742Y0264297D02*
X0075894Y0264297D01*
X0074385Y0262699D02*
X0016443Y0262699D01*
X0016443Y0264297D02*
X0017591Y0264297D01*
X0016443Y0261100D02*
X0073723Y0261100D01*
X0073383Y0259502D02*
X0016443Y0259502D01*
X0016443Y0257903D02*
X0073383Y0257903D01*
X0073875Y0256305D02*
X0016443Y0256305D01*
X0016443Y0254706D02*
X0074664Y0254706D01*
X0076262Y0253108D02*
X0016443Y0253108D01*
X0016443Y0248312D02*
X0199975Y0248312D01*
X0201574Y0246713D02*
X0016443Y0246713D01*
X0016443Y0245115D02*
X0203172Y0245115D01*
X0204771Y0243516D02*
X0016443Y0243516D01*
X0016443Y0241918D02*
X0206369Y0241918D01*
X0207968Y0240319D02*
X0016443Y0240319D01*
X0016443Y0238721D02*
X0208836Y0238721D01*
X0208836Y0237122D02*
X0016443Y0237122D01*
X0016443Y0235524D02*
X0208836Y0235524D01*
X0208836Y0233925D02*
X0016443Y0233925D01*
X0016443Y0232327D02*
X0208836Y0232327D01*
X0246093Y0224334D02*
X0259475Y0224334D01*
X0260442Y0225301D02*
X0257630Y0222489D01*
X0257630Y0218513D01*
X0260442Y0215701D01*
X0264418Y0215701D01*
X0267230Y0218513D01*
X0267230Y0222489D01*
X0264418Y0225301D01*
X0260442Y0225301D01*
X0257877Y0222736D02*
X0247692Y0222736D01*
X0247939Y0221137D02*
X0257630Y0221137D01*
X0257630Y0219539D02*
X0247939Y0219539D01*
X0247366Y0217940D02*
X0258202Y0217940D01*
X0259801Y0216342D02*
X0245768Y0216342D01*
X0265059Y0216342D02*
X0275765Y0216342D01*
X0275765Y0217940D02*
X0266658Y0217940D01*
X0267230Y0219539D02*
X0275765Y0219539D01*
X0275765Y0221137D02*
X0267230Y0221137D01*
X0266983Y0222736D02*
X0275765Y0222736D01*
X0275765Y0224334D02*
X0265385Y0224334D01*
X0291918Y0224334D02*
X0291918Y0224334D01*
X0291918Y0222736D02*
X0291918Y0222736D01*
X0291918Y0221137D02*
X0291918Y0221137D01*
X0291918Y0219539D02*
X0291918Y0219539D01*
X0291918Y0217940D02*
X0291918Y0217940D01*
X0291918Y0216342D02*
X0291918Y0216342D01*
X0291918Y0214743D02*
X0291918Y0214743D01*
X0353248Y0216342D02*
X0368068Y0216342D01*
X0368316Y0214671D02*
X0365504Y0211859D01*
X0365504Y0207883D01*
X0368316Y0205071D01*
X0372292Y0205071D01*
X0375104Y0207883D01*
X0375104Y0211859D01*
X0372292Y0214671D01*
X0368316Y0214671D01*
X0366790Y0213145D02*
X0354527Y0213145D01*
X0355813Y0211546D02*
X0365504Y0211546D01*
X0365504Y0209948D02*
X0355813Y0209948D01*
X0355813Y0208349D02*
X0365504Y0208349D01*
X0366636Y0206751D02*
X0354681Y0206751D01*
X0353082Y0205152D02*
X0368234Y0205152D01*
X0372373Y0205152D02*
X0387526Y0205152D01*
X0387607Y0205071D02*
X0391583Y0205071D01*
X0394395Y0207883D01*
X0394395Y0211859D01*
X0391583Y0214671D01*
X0387607Y0214671D01*
X0384795Y0211859D01*
X0384795Y0207883D01*
X0387607Y0205071D01*
X0385927Y0206751D02*
X0373972Y0206751D01*
X0375104Y0208349D02*
X0384795Y0208349D01*
X0384795Y0209948D02*
X0375104Y0209948D01*
X0375104Y0211546D02*
X0384795Y0211546D01*
X0386081Y0213145D02*
X0373818Y0213145D01*
X0366470Y0217940D02*
X0354847Y0217940D01*
X0355813Y0219539D02*
X0365504Y0219539D01*
X0365504Y0221137D02*
X0355813Y0221137D01*
X0355813Y0222736D02*
X0365504Y0222736D01*
X0366956Y0224334D02*
X0354361Y0224334D01*
X0393110Y0213145D02*
X0400937Y0213145D01*
X0400937Y0211546D02*
X0394395Y0211546D01*
X0394395Y0209948D02*
X0400937Y0209948D01*
X0400937Y0208349D02*
X0394395Y0208349D01*
X0393263Y0206751D02*
X0400937Y0206751D01*
X0400937Y0205152D02*
X0391665Y0205152D01*
X0400937Y0168386D02*
X0366314Y0168386D01*
X0367912Y0166788D02*
X0400937Y0166788D01*
X0400937Y0165189D02*
X0369511Y0165189D01*
X0373372Y0163591D02*
X0385961Y0163591D01*
X0387441Y0165071D02*
X0384395Y0162025D01*
X0384395Y0159871D01*
X0389595Y0159871D01*
X0389595Y0159871D01*
X0389595Y0165071D01*
X0387441Y0165071D01*
X0389595Y0165071D02*
X0389595Y0159871D01*
X0389595Y0159871D01*
X0384395Y0159871D01*
X0384395Y0157717D01*
X0387441Y0154671D01*
X0389595Y0154671D01*
X0389595Y0159871D01*
X0389595Y0159871D01*
X0394795Y0159871D01*
X0394795Y0162025D01*
X0391749Y0165071D01*
X0389595Y0165071D01*
X0389595Y0163591D02*
X0389595Y0163591D01*
X0389595Y0161992D02*
X0389595Y0161992D01*
X0389595Y0160394D02*
X0389595Y0160394D01*
X0389595Y0159871D02*
X0389595Y0159871D01*
X0389595Y0154671D01*
X0391749Y0154671D01*
X0394795Y0157717D01*
X0394795Y0159871D01*
X0389595Y0159871D01*
X0389595Y0158795D02*
X0389595Y0158795D01*
X0389595Y0157197D02*
X0389595Y0157197D01*
X0389595Y0155598D02*
X0389595Y0155598D01*
X0386514Y0155598D02*
X0372820Y0155598D01*
X0374418Y0157197D02*
X0384915Y0157197D01*
X0384395Y0158795D02*
X0375104Y0158795D01*
X0375104Y0160394D02*
X0384395Y0160394D01*
X0384395Y0161992D02*
X0374971Y0161992D01*
X0367788Y0155598D02*
X0354094Y0155598D01*
X0355692Y0157197D02*
X0366190Y0157197D01*
X0365504Y0158795D02*
X0356213Y0158795D01*
X0356213Y0159871D02*
X0351013Y0159871D01*
X0356213Y0159871D01*
X0356213Y0160394D02*
X0365255Y0160394D01*
X0363657Y0161992D02*
X0356213Y0161992D01*
X0351013Y0159871D02*
X0351013Y0159871D01*
X0366330Y0154000D02*
X0400937Y0154000D01*
X0400937Y0155598D02*
X0392677Y0155598D01*
X0394275Y0157197D02*
X0400937Y0157197D01*
X0400937Y0158795D02*
X0394795Y0158795D01*
X0394795Y0160394D02*
X0400937Y0160394D01*
X0400937Y0161992D02*
X0394795Y0161992D01*
X0393229Y0163591D02*
X0400937Y0163591D01*
X0400937Y0152401D02*
X0367929Y0152401D01*
X0369527Y0150803D02*
X0400937Y0150803D01*
X0400937Y0149204D02*
X0371126Y0149204D01*
X0372724Y0147606D02*
X0387471Y0147606D01*
X0387607Y0147742D02*
X0384795Y0144930D01*
X0384795Y0140954D01*
X0387607Y0138142D01*
X0391583Y0138142D01*
X0394395Y0140954D01*
X0394395Y0144930D01*
X0391583Y0147742D01*
X0387607Y0147742D01*
X0385873Y0146007D02*
X0374027Y0146007D01*
X0375104Y0144409D02*
X0384795Y0144409D01*
X0384795Y0142810D02*
X0375104Y0142810D01*
X0375104Y0141212D02*
X0384795Y0141212D01*
X0386136Y0139613D02*
X0373764Y0139613D01*
X0393055Y0139613D02*
X0400937Y0139613D01*
X0400937Y0141212D02*
X0394395Y0141212D01*
X0394395Y0142810D02*
X0400937Y0142810D01*
X0400937Y0144409D02*
X0394395Y0144409D01*
X0393318Y0146007D02*
X0400937Y0146007D01*
X0400937Y0147606D02*
X0391719Y0147606D01*
X0317450Y0107643D02*
X0297332Y0107643D01*
X0297609Y0109242D02*
X0316227Y0109242D01*
X0315818Y0099650D02*
X0310274Y0099650D01*
X0286227Y0109242D02*
X0285814Y0109242D01*
X0286463Y0117234D02*
X0277565Y0117234D01*
X0279181Y0118833D02*
X0286971Y0118833D01*
X0285044Y0120431D02*
X0280797Y0120431D01*
X0282413Y0122030D02*
X0284382Y0122030D01*
X0284318Y0123628D02*
X0284030Y0123628D01*
X0303275Y0133219D02*
X0310561Y0133219D01*
X0308963Y0134818D02*
X0304874Y0134818D01*
X0305025Y0136416D02*
X0308811Y0136416D01*
X0308811Y0138015D02*
X0305025Y0138015D01*
X0304358Y0139613D02*
X0309479Y0139613D01*
X0247453Y0096453D02*
X0246415Y0096453D01*
X0256968Y0058089D02*
X0274191Y0058089D01*
X0274191Y0056491D02*
X0256968Y0056491D01*
X0256968Y0054892D02*
X0274191Y0054892D01*
X0274191Y0053294D02*
X0256968Y0053294D01*
X0256968Y0051695D02*
X0274191Y0051695D01*
X0274191Y0050097D02*
X0256968Y0050097D01*
X0256968Y0048498D02*
X0274191Y0048498D01*
X0274191Y0046900D02*
X0256968Y0046900D01*
X0256968Y0045301D02*
X0274191Y0045301D01*
X0274191Y0043703D02*
X0256968Y0043703D01*
X0256968Y0042104D02*
X0274191Y0042104D01*
X0274191Y0040506D02*
X0256968Y0040506D01*
X0266386Y0035710D02*
X0277538Y0035710D01*
X0279136Y0034111D02*
X0267630Y0034111D01*
X0267630Y0032513D02*
X0281346Y0032513D01*
X0267630Y0030914D02*
X0345813Y0030914D01*
X0346655Y0029316D02*
X0266788Y0029316D01*
X0247326Y0035710D02*
X0246529Y0035710D01*
X0353772Y0027717D02*
X0360943Y0027717D01*
X0362597Y0029316D02*
X0355371Y0029316D01*
X0356213Y0030914D02*
X0364252Y0030914D01*
X0365504Y0032513D02*
X0356213Y0032513D01*
X0356213Y0034111D02*
X0365504Y0034111D01*
X0366914Y0035710D02*
X0354968Y0035710D01*
X0366845Y0024520D02*
X0386157Y0024520D01*
X0386157Y0022922D02*
X0365190Y0022922D01*
X0363536Y0021323D02*
X0386157Y0021323D01*
X0386801Y0019725D02*
X0361881Y0019725D01*
X0359894Y0018126D02*
X0387463Y0018126D01*
X0386687Y0026119D02*
X0368499Y0026119D01*
X0372498Y0027717D02*
X0387349Y0027717D01*
X0388706Y0029316D02*
X0374096Y0029316D01*
X0375104Y0030914D02*
X0390682Y0030914D01*
X0399532Y0030914D02*
X0400937Y0030914D01*
X0400937Y0032513D02*
X0375104Y0032513D01*
X0375104Y0034111D02*
X0400937Y0034111D01*
X0400937Y0035710D02*
X0373694Y0035710D01*
X0126511Y0177977D02*
X0105143Y0177977D01*
X0103544Y0179576D02*
X0125150Y0179576D01*
X0100558Y0179576D02*
X0100208Y0179576D01*
X0100208Y0177977D02*
X0100558Y0177977D01*
X0100558Y0176379D02*
X0100208Y0176379D01*
X0100208Y0174780D02*
X0100558Y0174780D01*
X0100558Y0173182D02*
X0100208Y0173182D01*
X0100208Y0171583D02*
X0100558Y0171583D01*
X0100558Y0169985D02*
X0100208Y0169985D01*
X0100208Y0168386D02*
X0100558Y0168386D01*
X0100558Y0166788D02*
X0100208Y0166788D01*
X0100208Y0165189D02*
X0100558Y0165189D01*
X0051739Y0197160D02*
X0030966Y0197160D01*
X0030857Y0198758D02*
X0050140Y0198758D01*
X0049480Y0200357D02*
X0030194Y0200357D01*
X0028444Y0201955D02*
X0049480Y0201955D01*
X0049639Y0203554D02*
X0029184Y0203554D01*
X0030431Y0205152D02*
X0051238Y0205152D01*
X0051895Y0213145D02*
X0028775Y0213145D01*
X0029022Y0211546D02*
X0074516Y0211546D01*
X0073814Y0213145D02*
X0067231Y0213145D01*
X0068829Y0214743D02*
X0073383Y0214743D01*
X0073383Y0216342D02*
X0069480Y0216342D01*
X0069480Y0217940D02*
X0073784Y0217940D01*
X0074446Y0219539D02*
X0069480Y0219539D01*
X0068045Y0221137D02*
X0076041Y0221137D01*
X0076115Y0209948D02*
X0030364Y0209948D01*
X0030261Y0214743D02*
X0050297Y0214743D01*
X0049480Y0216342D02*
X0030923Y0216342D01*
X0030966Y0217940D02*
X0049480Y0217940D01*
X0049483Y0219539D02*
X0030533Y0219539D01*
X0029431Y0221137D02*
X0051081Y0221137D01*
X0016443Y0225933D02*
X0125150Y0225933D01*
X0126058Y0227531D02*
X0016443Y0227531D01*
X0030117Y0277085D02*
X0285738Y0277085D01*
X0239172Y0273888D02*
X0227248Y0273888D01*
X0228647Y0272290D02*
X0237939Y0272290D01*
X0237939Y0270691D02*
X0228647Y0270691D01*
X0228647Y0269093D02*
X0237939Y0269093D01*
X0238791Y0267494D02*
X0227629Y0267494D01*
X0226030Y0265896D02*
X0240390Y0265896D01*
X0183990Y0264297D02*
X0182699Y0264297D01*
X0100558Y0264297D02*
X0100208Y0264297D01*
X0100208Y0262699D02*
X0100558Y0262699D01*
X0100558Y0261100D02*
X0100208Y0261100D01*
X0100208Y0259502D02*
X0100558Y0259502D01*
X0100558Y0257903D02*
X0100208Y0257903D01*
X0100208Y0256305D02*
X0100558Y0256305D01*
X0100558Y0254706D02*
X0100208Y0254706D01*
X0100208Y0253108D02*
X0100558Y0253108D01*
X0100558Y0251509D02*
X0100208Y0251509D01*
X0100208Y0265896D02*
X0100558Y0265896D01*
X0100558Y0222736D02*
X0100208Y0222736D01*
X0100208Y0221137D02*
X0100558Y0221137D01*
X0100558Y0219539D02*
X0100208Y0219539D01*
X0100208Y0217940D02*
X0100558Y0217940D01*
X0100558Y0216342D02*
X0100208Y0216342D01*
X0100208Y0214743D02*
X0100558Y0214743D01*
X0100558Y0213145D02*
X0100208Y0213145D01*
X0100208Y0211546D02*
X0100558Y0211546D01*
X0100558Y0209948D02*
X0100208Y0209948D01*
X0100208Y0208349D02*
X0100558Y0208349D01*
X0017864Y0030914D02*
X0016443Y0030914D01*
D19*
X0023454Y0143532D03*
M02*
